<?xml version="1.0" standalone="no"?>
<!DOCTYPE svg PUBLIC "-//W3C//DTD SVG 1.1//EN" "http://www.w3.org/Graphics/SVG/1.1/DTD/svg11.dtd" >
<svg>
<metadata>
Created by FontForge 20120702 at Thu Jul 11 23:50:55 2013

Typeface (c) 1989 - 2001, Linotype Library GmbH or its affiliated Linotype-Hell companies. Portions (c) 1999 Microsoft Corporation. All rights reserved.

</metadata>
<defs>
<font id="FrutigerLinotype-Bold" horiz-adv-x="1139" >
  <font-face 
    font-family="Frutiger Linotype"
    font-weight="700"
    font-stretch="normal"
    units-per-em="2048"
    panose-1="2 11 8 4 3 5 4 4 2 4"
    ascent="1638"
    descent="-410"
    x-height="1055"
    cap-height="1430"
    bbox="-452 -512 2048 1957"
    underline-thickness="102"
    underline-position="-99"
    unicode-range="U+0020-FB02"
  />
<missing-glyph horiz-adv-x="1024" 
d="M128 0v1811h768v-1811h-768zM256 128h512v1555h-512v-1555z" />
    <glyph glyph-name=".notdef" horiz-adv-x="1024" 
d="M128 0v1811h768v-1811h-768zM256 128h512v1555h-512v-1555z" />
    <glyph glyph-name="glyph1" horiz-adv-x="0" 
 />
    <glyph glyph-name="glyph2" horiz-adv-x="569" 
 />
    <glyph glyph-name="space" unicode=" " horiz-adv-x="569" 
 />
    <glyph glyph-name="exclam" unicode="!" horiz-adv-x="797" 
d="M281 420l-39 1010h315l-43 -1010h-233zM256 0v287h287v-287h-287z" />
    <glyph glyph-name="quotedbl" unicode="&#x22;" horiz-adv-x="985" 
d="M555 918v512h250v-512h-250zM180 918v512h250v-512h-250z" />
    <glyph glyph-name="numbersign" unicode="#" 
d="M1012 584v-164h-189l-59 -420h-180l59 420h-209l-61 -420h-180l59 420h-184v164h206l35 262h-180v164h205l57 420h182l-57 -420h209l57 420h181l-58 -420h166v-164h-190l-35 -262h166zM700 846h-208l-35 -262h209z" />
    <glyph glyph-name="dollar" unicode="$" 
d="M530 889v319q-112 -51 -112 -178q0 -83 112 -141zM627 543v-314q118 51 118 156q0 98 -118 158zM530 1602h97v-148q183 0 334 -51l-27 -236q-142 62 -291 62q-10 0 -16 -2v-379q208 -83 276 -137q141 -110 141 -303q0 -192 -120 -302q-108 -99 -297 -122v-168h-97v161
q-8 -2 -22 -2q-142 0 -367 56l27 258q163 -88 324 -88q24 0 38 4v383q-204 79 -275 135q-136 108 -136 295q0 197 123 311q108 99 288 121v152z" />
    <glyph glyph-name="percent" unicode="%" horiz-adv-x="2048" 
d="M1493 139q127 0 127 213t-127 213q-131 0 -131 -213t131 -213zM502 -45l884 1520h168l-884 -1520h-168zM561 700q-164 0 -254 99.5t-90 277.5q0 179 90 278t254 99t252 -99t88 -278t-88 -278t-252 -99zM561 864q127 0 127 213t-127 213q-131 0 -131 -213t131 -213z
M1493 -25q-164 0 -254 99.5t-90 277.5q0 179 90 278t254 99q163 0 251.5 -99t88.5 -278t-88.5 -278t-251.5 -99z" />
    <glyph glyph-name="ampersand" unicode="&#x26;" horiz-adv-x="1479" 
d="M889 274l-318 355q-174 -91 -174 -230q0 -92 70 -151.5t172 -59.5q161 0 250 86zM635 899q68 35 120 86q66 64 66 121q0 71 -48 111q-43 36 -109 36q-68 0 -113 -36q-51 -42 -51 -115q0 -52 47 -111q14 -19 88 -92zM795 752l262 -287q82 94 90 311h250
q-13 -287 -183 -489l256 -287h-352l-96 127q-149 -152 -389 -152q-221 0 -361 108q-149 114 -149 308q0 135 65 225q71 99 236 168q-109 103 -141 150q-58 85 -58 194q0 152 142 245q125 81 292 81q169 0 282 -75q130 -87 130 -249q0 -134 -80 -229q-59 -70 -196 -149z" />
    <glyph glyph-name="quotesingle" unicode="'" horiz-adv-x="569" 
d="M160 918v512h250v-512h-250z" />
    <glyph glyph-name="parenleft" unicode="(" horiz-adv-x="682" 
d="M408 1548h260q-149 -237 -215 -422q-82 -232 -82 -495q0 -448 297 -918h-260q-328 446 -328 918q0 268 87 495q74 195 241 422z" />
    <glyph glyph-name="parenright" unicode=")" horiz-adv-x="682" 
d="M272 -287h-258q297 475 297 918q0 262 -83 495q-65 183 -214 422h258q167 -230 241 -422q89 -228 89 -495q0 -465 -330 -918z" />
    <glyph glyph-name="asterisk" unicode="*" 
d="M991 1036l-284 -63l196 -219l-188 -136l-146 254l-155 -254l-187 136l201 219l-281 63l68 213l272 -116l-32 297h233l-35 -295l273 114z" />
    <glyph glyph-name="plus" unicode="+" horiz-adv-x="1229" 
d="M508 625v411h213v-411h414v-213h-414v-412h-213v412h-414v213h414z" />
    <glyph glyph-name="comma" unicode="," horiz-adv-x="569" 
d="M47 -225l131 512h297l-186 -512h-242z" />
    <glyph glyph-name="hyphen" unicode="-" horiz-adv-x="682" 
d="M610 438h-538v226h538v-226z" />
    <glyph glyph-name="hyphen" unicode="&#xad;" horiz-adv-x="682" 
d="M610 438h-538v226h538v-226z" />
    <glyph glyph-name="period" unicode="." horiz-adv-x="569" 
d="M141 0v287h287v-287h-287z" />
    <glyph glyph-name="slash" unicode="/" horiz-adv-x="797" 
d="M43 -25l500 1479h213l-500 -1479h-213z" />
    <glyph glyph-name="zero" unicode="0" horiz-adv-x="1202" 
d="M1110 526q0 -248 -133 -399.5t-377 -151.5q-247 0 -381 154q-127 146 -127 397q0 246 129 395q137 158 379 158q248 0 383 -155q127 -146 127 -398zM823 526q0 338 -223 338q-119 0 -176 -112q-45 -89 -45 -226q0 -133 44 -221q57 -115 177 -115q223 0 223 336z" />
    <glyph glyph-name="one" unicode="1" horiz-adv-x="801" 
d="M653 0h-274v782l-234 -176l-79 215l335 234h252v-1055z" />
    <glyph glyph-name="two" unicode="2" horiz-adv-x="1032" 
d="M918 0h-832v225l225 178q65 47 191 142q116 91 116 170q0 149 -206 149q-135 0 -285 -67l-21 209q189 67 349 67q187 0 303 -69q143 -84 143 -259q0 -126 -102 -233q-56 -59 -224 -176l-182 -127h525v-209z" />
    <glyph glyph-name="three" unicode="3" horiz-adv-x="1028" 
d="M922 25q0 -239 -205 -349q-140 -75 -334 -75q-208 0 -363 45l17 221q138 -57 305 -57q108 0 195 49q106 60 106 168q0 233 -315 233h-129v209h120q318 0 318 199q0 202 -246 202q-173 0 -309 -69l-16 209q173 69 368 69q178 0 303 -67q174 -94 174 -295q0 -238 -266 -342
v-15q128 -19 204 -113q73 -91 73 -222z" />
    <glyph glyph-name="four" unicode="4" horiz-adv-x="1147" 
d="M1114 0h-190v-375h-254v375h-617v217l533 838h338v-846h190v-209zM670 201v585h-15l-360 -585h375z" />
    <glyph glyph-name="five" unicode="5" horiz-adv-x="1100" 
d="M1001 84q0 -235 -161 -364q-148 -119 -389 -119q-142 0 -332 45l10 221q136 -57 287 -57q136 0 217 63q90 70 90 203q0 134 -102 203q-87 59 -228 59q-131 0 -250 -37l15 754h809v-215h-551l-6 -310q89 17 137 17q183 0 301 -92q153 -120 153 -371z" />
    <glyph glyph-name="six" unicode="6" horiz-adv-x="1182" 
d="M1071 487q0 -234 -114 -368q-121 -144 -351 -144q-487 0 -487 666q0 343 123 553q153 260 467 260q156 0 295 -49l-35 -213q-124 53 -254 53q-189 0 -277 -184q-63 -131 -63 -303q111 162 289 162q197 0 304 -119q103 -114 103 -314zM801 442q0 112 -44 188
q-53 93 -157 93q-107 0 -158 -93q-41 -74 -41 -190q0 -111 46 -179q54 -81 159 -81q100 0 152 85q43 70 43 177z" />
    <glyph glyph-name="seven" unicode="7" horiz-adv-x="1008" 
d="M930 825l-486 -1200h-297l510 1215h-616v215h889v-230z" />
    <glyph glyph-name="eight" unicode="8" horiz-adv-x="1229" 
d="M1106 389q0 -206 -137 -313q-129 -101 -348 -101q-222 0 -353 97q-145 107 -145 313q0 223 262 352v13q-238 107 -238 329q0 190 134 288q118 87 315 87q191 0 318 -73q155 -89 155 -267q0 -111 -66.5 -205.5t-171.5 -136.5v-10q275 -129 275 -373zM807 1063
q0 85 -49 137.5t-133 52.5q-88 0 -148 -45q-67 -50 -67 -137q0 -145 231 -233q65 23 115.5 90t50.5 135zM831 377q0 182 -245 264q-189 -92 -189 -252q0 -90 68 -152q65 -61 156 -61t150.5 55t59.5 146z" />
    <glyph glyph-name="nine" unicode="9" horiz-adv-x="1182" 
d="M1063 414q0 -341 -125 -553q-153 -260 -469 -260q-156 0 -295 49l35 213q124 -53 254 -53q188 0 278 184q66 135 66 303q-111 -162 -289 -162q-197 0 -304 119q-103 114 -103 313q0 236 113 369q120 143 351 143q488 0 488 -665zM780 614q0 114 -47 183q-52 77 -158 77
q-97 0 -149 -81q-45 -70 -45 -181t44 -187q53 -93 157 -93q106 0 157 93q41 74 41 189z" />
    <glyph glyph-name="colon" unicode=":" horiz-adv-x="569" 
d="M141 768v287h287v-287h-287zM141 0v287h287v-287h-287z" />
    <glyph glyph-name="semicolon" unicode=";" horiz-adv-x="569" 
d="M47 -225l131 512h297l-186 -512h-242zM141 768v287h287v-287h-287z" />
    <glyph glyph-name="less" unicode="&#x3c;" horiz-adv-x="1229" 
d="M1135 193v-209l-1041 446v176l1041 447v-209l-764 -326z" />
    <glyph glyph-name="equal" unicode="=" horiz-adv-x="1229" 
d="M1135 848v-213h-1041v213h1041zM1135 401v-213h-1041v213h1041z" />
    <glyph glyph-name="greater" unicode="&#x3e;" horiz-adv-x="1229" 
d="M94 193l764 325l-764 326v209l1041 -447v-176l-1041 -446v209z" />
    <glyph glyph-name="question" unicode="?" horiz-adv-x="1024" 
d="M125 1159l-23 227q228 68 406 68q196 0 322 -85q145 -98 145 -282q0 -116 -91 -234q-84 -97 -168 -193q-90 -113 -90 -217q0 -12 1 -25h-252q0 166 78 290q17 28 145 175q78 90 78 172q0 94 -73 144q-63 42 -163 42q-136 0 -315 -82zM358 0v287h287v-287h-287z" />
    <glyph glyph-name="at" unicode="@" horiz-adv-x="1638" 
d="M850 913q-97 0 -165 -85q-64 -79 -64 -177q0 -74 41 -121t112 -47q95 0 163 85q64 80 64 182q0 72 -41.5 117.5t-109.5 45.5zM1292 293h174q-215 -318 -647 -318q-293 0 -505 185q-238 207 -238 555q0 309 224 522q228 217 568 217q277 0 471 -144q224 -165 224 -458
q0 -276 -208 -442q-159 -127 -308 -127q-108 0 -111 106h-4q-95 -106 -207 -106q-130 0 -222 94q-95 98 -95 244q0 203 123.5 348t297.5 145q151 0 238 -131l25 98h172l-113 -497q-14 -64 -14 -70q0 -31 30 -31q89 0 154 86q78 101 78 277q0 227 -175 335q-137 85 -356 85
q-250 0 -418 -167q-161 -160 -161 -384q0 -239 150 -395t380 -156q320 0 473 129z" />
    <glyph glyph-name="A" unicode="A" horiz-adv-x="1479" 
d="M940 553l-207 590h-4l-207 -590h418zM18 0l557 1430h324l561 -1430h-317l-123 328h-580l-125 -328h-297z" />
    <glyph glyph-name="B" unicode="B" horiz-adv-x="1251" 
d="M453 639v-414h135q295 0 295 199q0 215 -295 215h-135zM453 1204v-352h116q271 0 271 174q0 111 -89 151q-60 27 -188 27h-110zM166 0v1430h500q184 0 299 -66q161 -92 161 -301q0 -126 -77.5 -211t-206.5 -109v-4q146 -14 236.5 -103.5t90.5 -221.5q0 -238 -184 -342
q-127 -72 -319 -72h-500z" />
    <glyph glyph-name="C" unicode="C" horiz-adv-x="1251" 
d="M1194 260l12 -240q-191 -45 -325 -45q-360 0 -566 177q-219 187 -219 538q0 364 210 566q207 198 575 198q172 0 323 -59l-20 -242q-134 76 -310 76q-216 0 -350 -149q-129 -145 -129 -369t129 -364q133 -146 357 -146q198 0 313 59z" />
    <glyph glyph-name="D" unicode="D" horiz-adv-x="1479" 
d="M166 0v1430h391q825 0 825 -715t-825 -715h-391zM453 1204v-979h159q191 0 326 128q145 139 145 362t-145 361q-135 128 -326 128h-159z" />
    <glyph glyph-name="E" unicode="E" 
d="M166 0v1430h844v-226h-557v-352h510v-225h-510v-402h561v-225h-848z" />
    <glyph glyph-name="F" unicode="F" horiz-adv-x="1024" 
d="M166 0v1430h795v-226h-508v-352h483v-225h-483v-627h-287z" />
    <glyph glyph-name="G" unicode="G" horiz-adv-x="1479" 
d="M1300 1395l-18 -242q-164 76 -369 76q-243 0 -384 -149q-134 -142 -134 -369q0 -224 129 -364q133 -146 357 -146q106 0 188 20v373h-303v225h577v-770q-272 -74 -462 -74q-360 0 -566 177q-219 187 -219 538q0 364 210 566q207 198 575 198q222 0 419 -59z" />
    <glyph glyph-name="H" unicode="H" horiz-adv-x="1479" 
d="M166 0v1430h287v-578h573v578h287v-1430h-287v627h-573v-627h-287z" />
    <glyph glyph-name="I" unicode="I" horiz-adv-x="569" 
d="M141 0v1430h287v-1430h-287z" />
    <glyph glyph-name="J" unicode="J" horiz-adv-x="797" 
d="M45 2v248q67 -25 137 -25q123 0 163 88q24 50 24 164v953h286v-1090q0 -138 -85 -239q-107 -126 -306 -126q-115 0 -219 27z" />
    <glyph glyph-name="K" unicode="K" horiz-adv-x="1366" 
d="M166 0v1430h287v-615l516 615h352l-588 -674l613 -756h-375l-514 664h-4v-664h-287z" />
    <glyph glyph-name="L" unicode="L" horiz-adv-x="1024" 
d="M166 0v1430h287v-1205h555v-225h-842z" />
    <glyph glyph-name="M" unicode="M" horiz-adv-x="1933" 
d="M166 0v1430h459l340 -1084h4l340 1084h458v-1430h-274v1180h-4l-385 -1180h-275l-385 1180l-4 -4v-1176h-274z" />
    <glyph glyph-name="N" unicode="N" horiz-adv-x="1479" 
d="M152 0v1430h352l545 -1070h4v1070h274v-1430h-350l-547 1069h-4v-1069h-274z" />
    <glyph glyph-name="O" unicode="O" horiz-adv-x="1593" 
d="M96 719q0 336 180 532q186 203 521 203q330 0 518 -205q182 -199 182 -530q0 -333 -180 -534q-189 -210 -520 -210q-336 0 -523 208q-178 198 -178 536zM395 719q0 -217 91 -356q106 -162 311 -162q204 0 310 162q91 139 91 356q0 210 -94 349q-108 161 -307 161
t-308 -161q-94 -139 -94 -349z" />
    <glyph glyph-name="P" unicode="P" 
d="M428 1204v-436h100q273 0 273 213q0 223 -273 223h-100zM141 0v1430h363q596 0 596 -433q0 -236 -160 -352q-142 -102 -391 -102h-121v-543h-287z" />
    <glyph glyph-name="Q" unicode="Q" horiz-adv-x="1593" 
d="M1460 -270h-346l-250 250q-20 -5 -67 -5q-336 0 -523 208q-178 198 -178 536q0 336 180 532q186 203 521 203q330 0 518 -205q182 -199 182 -530q0 -234 -92 -407q-94 -177 -268 -261zM395 719q0 -217 91 -356q106 -162 311 -162q204 0 310 162q91 139 91 356
q0 210 -94 349q-108 161 -307 161t-308 -161q-94 -139 -94 -349z" />
    <glyph glyph-name="R" unicode="R" horiz-adv-x="1251" 
d="M428 1204v-385h94q303 0 303 199q0 115 -97 158q-67 28 -206 28h-94zM141 0v1430h310q329 0 452 -45q221 -80 221 -343q0 -128 -79 -219q-81 -94 -216 -112v-4q95 -8 152 -148l229 -559h-319l-172 446q-33 84 -70 114q-42 34 -129 34h-92v-594h-287z" />
    <glyph glyph-name="S" unicode="S" 
d="M961 1403l-27 -236q-142 62 -291 62q-90 0 -149 -41q-76 -52 -76 -158q0 -97 162 -165q261 -109 302 -138q162 -113 162 -319q0 -222 -160 -334q-140 -99 -376 -99q-142 0 -367 56l27 258q163 -88 324 -88q94 0 167 43q86 52 86 141q0 108 -162 180q-280 124 -302 139
q-162 111 -162 314q0 223 155 338q133 98 344 98q189 0 343 -51z" />
    <glyph glyph-name="T" unicode="T" 
d="M426 0v1204h-410v226h1106v-226h-409v-1204h-287z" />
    <glyph glyph-name="U" unicode="U" horiz-adv-x="1479" 
d="M156 516v914h286v-826q0 -403 297 -403t297 403v826h287v-914q0 -541 -584 -541q-583 0 -583 541z" />
    <glyph glyph-name="V" unicode="V" horiz-adv-x="1366" 
d="M512 0l-492 1430h308l366 -1123h4l363 1123h285l-482 -1430h-352z" />
    <glyph glyph-name="W" unicode="W" horiz-adv-x="2048" 
d="M399 0l-379 1430h302l266 -1143h4l244 1143h389l252 -1143h4l268 1143h279l-373 -1430h-369l-258 1143h-4l-254 -1143h-371z" />
    <glyph glyph-name="X" unicode="X" horiz-adv-x="1366" 
d="M20 0l469 743l-426 687h332l299 -510l305 510h308l-430 -687l469 -743h-338l-330 557l-334 -557h-324z" />
    <glyph glyph-name="Y" unicode="Y" horiz-adv-x="1366" 
d="M545 0v565l-522 865h335l338 -601l344 601h303l-512 -865v-565h-286z" />
    <glyph glyph-name="Z" unicode="Z" 
d="M74 0v233l671 971h-645v226h951v-234l-678 -971h692v-225h-991z" />
    <glyph glyph-name="bracketleft" unicode="[" horiz-adv-x="682" 
d="M147 -287v1835h459v-200h-196v-1434h196v-201h-459z" />
    <glyph glyph-name="backslash" unicode="\" horiz-adv-x="797" 
d="M541 -25l-500 1479h213l500 -1479h-213z" />
    <glyph glyph-name="bracketright" unicode="]" horiz-adv-x="682" 
d="M76 1548h459v-1835h-459v201h196v1434h-196v200z" />
    <glyph glyph-name="asciicircum" unicode="^" horiz-adv-x="1229" 
d="M348 641h-213l383 789h193l383 -789h-213l-267 573z" />
    <glyph glyph-name="underscore" unicode="_" horiz-adv-x="1024" 
d="M0 -154h1024v-102h-1024v102z" />
    <glyph glyph-name="grave" unicode="`" horiz-adv-x="569" 
d="M340 1497l170 -299h-170l-281 299h281z" />
    <glyph glyph-name="a" unicode="a" 
d="M197 764l-9 235q173 80 367 80q241 0 348 -105t107 -339v-135q0 -107 4 -264q3 -110 12 -236h-242q-3 20 -12 158h-4q-46 -85 -140 -135q-88 -48 -186 -48q-149 0 -254 82q-114 88 -114 232q0 212 180 301q125 61 354 61h152q0 125 -58 178q-55 50 -180 50
q-174 0 -325 -115zM336 305q0 -129 174 -129q164 0 225 152q25 63 25 159h-119q-305 0 -305 -182z" />
    <glyph glyph-name="b" unicode="b" horiz-adv-x="1251" 
d="M418 530q0 -133 52 -227q65 -115 189 -115q123 0 184 117q48 92 48 225q0 131 -47 221q-60 115 -180 115q-122 0 -189 -112q-57 -95 -57 -224zM141 0v1536h275v-616h4q120 159 315 159q228 0 343 -165q100 -144 100 -384q0 -239 -100 -385q-116 -170 -343 -170
q-214 0 -323 154h-4v-129h-267z" />
    <glyph glyph-name="c" unicode="c" horiz-adv-x="909" 
d="M850 1044l-25 -217q-85 39 -186 39q-127 0 -203 -92t-76 -242q0 -153 71 -245q75 -99 214 -99q98 0 211 50l12 -228q-113 -35 -274 -35q-252 0 -390 158q-130 149 -130 399q0 238 131 388q139 159 379 159q149 0 266 -35z" />
    <glyph glyph-name="d" unicode="d" horiz-adv-x="1251" 
d="M360 530q0 -133 49 -225q61 -117 183 -117q124 0 189 115q53 94 53 227q0 129 -57 224q-68 112 -189 112t-181 -115q-47 -90 -47 -221zM844 0v119h-4q-115 -144 -324 -144q-227 0 -342 170q-100 146 -100 385q0 240 100 384q115 165 342 165q195 0 315 -147h5v604h274
v-1536h-266z" />
    <glyph glyph-name="e" unicode="e" 
d="M336 631h467q-15 248 -223 248q-223 0 -244 -248zM987 283v-224q-152 -84 -362 -84q-262 0 -406.5 144t-144.5 403q0 242 122 393q132 164 367 164q276 0 398 -180q104 -154 104 -457h-729q9 -125 90.5 -195.5t210.5 -70.5q160 0 350 107z" />
    <glyph glyph-name="f" unicode="f" horiz-adv-x="797" 
d="M242 0v854h-203v201h203v147q0 162 86 258q90 101 250 101q103 0 200 -23l-22 -227q-63 37 -119 37q-121 0 -121 -162v-131h240v-201h-240v-854h-274z" />
    <glyph glyph-name="g" unicode="g" horiz-adv-x="1251" 
d="M594 213q122 0 185 97q57 86 57 229q0 144 -55 231q-61 96 -175 96q-128 0 -193 -106q-53 -88 -53 -228q0 -121 58 -213q66 -106 176 -106zM848 1055h262v-953q0 -557 -557 -557q-195 0 -365 72l23 233q172 -92 307 -92q201 0 273 137q45 86 45 273h-5q-40 -72 -125 -118
q-92 -50 -202 -50q-220 0 -332 160q-98 140 -98 372q0 217 105 369q122 178 341 178q218 0 324 -168h4v144z" />
    <glyph glyph-name="h" unicode="h" horiz-adv-x="1251" 
d="M141 0v1536h275v-625h4q114 168 332 168q179 0 273 -117q85 -108 85 -296v-666h-274v563q0 139 -23 200q-39 103 -156 103q-132 0 -195 -124q-46 -92 -46 -226v-516h-275z" />
    <glyph glyph-name="i" unicode="i" horiz-adv-x="569" 
d="M147 0v1055h275v-1055h-275zM147 1247v262h275v-262h-275z" />
    <glyph glyph-name="j" unicode="j" horiz-adv-x="569" 
d="M-31 -438l11 196q115 7 146 52q21 32 21 149v1096h275v-1133q0 -377 -318 -377q-79 0 -135 17zM147 1247v262h275v-262h-275z" />
    <glyph glyph-name="k" unicode="k" 
d="M147 0v1536h275v-903h4l328 422h323l-393 -471l442 -584h-348l-352 512h-4v-512h-275z" />
    <glyph glyph-name="l" unicode="l" horiz-adv-x="569" 
d="M147 0v1536h275v-1536h-275z" />
    <glyph glyph-name="m" unicode="m" horiz-adv-x="1821" 
d="M137 0v1055h256v-148h4q115 172 314 172q227 0 311 -186q45 91 140 141q87 45 190 45q334 0 334 -413v-666h-275v629q0 108 -20 155q-34 82 -138 82q-204 0 -204 -354v-512h-275v629q0 108 -20 155q-34 82 -138 82q-204 0 -204 -354v-512h-275z" />
    <glyph glyph-name="n" unicode="n" horiz-adv-x="1251" 
d="M141 0v1055h260v-144h5q119 168 346 168q179 0 273 -117q85 -108 85 -296v-666h-274v563q0 139 -23 200q-39 103 -156 103q-132 0 -195 -124q-46 -92 -46 -226v-516h-275z" />
    <glyph glyph-name="o" unicode="o" horiz-adv-x="1251" 
d="M74 520q0 256 158 410q153 149 393 149t394 -149q159 -154 159 -410q0 -235 -146 -386q-152 -159 -407 -159q-254 0 -406 159q-145 151 -145 386zM360 553q0 -365 265 -365q266 0 266 365q0 131 -66 217q-72 96 -200 96q-126 0 -199 -97q-66 -88 -66 -216z" />
    <glyph glyph-name="p" unicode="p" horiz-adv-x="1251" 
d="M141 -430v1485h262v-150h5q104 174 327 174q228 0 343 -165q100 -144 100 -384t-101 -385q-117 -170 -348 -170q-189 0 -309 146h-4v-551h-275zM664 866q-122 0 -189 -112q-57 -95 -57 -224q0 -133 52 -227q65 -115 189 -115q123 0 184 117q48 92 48 225q0 131 -47 221
q-60 115 -180 115z" />
    <glyph glyph-name="q" unicode="q" horiz-adv-x="1251" 
d="M836 -430v551h-5q-119 -146 -309 -146q-231 0 -348 170q-100 145 -100 385q0 241 100 384q117 165 348 165q217 0 322 -174h4v150h262v-1485h-274zM588 866q-121 0 -181 -115q-47 -90 -47 -221q0 -133 49 -225q61 -117 183 -117q124 0 189 115q53 94 53 227
q0 129 -57 224q-68 112 -189 112z" />
    <glyph glyph-name="r" unicode="r" horiz-adv-x="797" 
d="M147 0v1055h244v-240h4q11 87 88 169q89 95 201 95q55 0 84 -8v-276q-39 22 -123 22q-145 0 -195 -158q-28 -89 -28 -272v-387h-275z" />
    <glyph glyph-name="s" unicode="s" horiz-adv-x="909" 
d="M786 1040l-18 -206q-132 45 -246 45q-162 0 -162 -117q0 -64 124 -105q183 -60 230 -91q124 -82 124 -247q0 -172 -138 -264q-119 -80 -305 -80q-141 0 -311 45l16 226q140 -70 271 -70q67 0 116 26q64 34 64 103q0 82 -124 123q-204 69 -230 85q-123 75 -123 239
q0 160 126 249q112 78 287 78q118 0 299 -39z" />
    <glyph glyph-name="t" unicode="t" horiz-adv-x="797" 
d="M231 317v537h-202v201h202v211l275 88v-299h244v-201h-244v-492q0 -174 129 -174q80 0 125 29l8 -217q-86 -25 -203 -25q-159 0 -246.5 92t-87.5 250z" />
    <glyph glyph-name="u" unicode="u" horiz-adv-x="1251" 
d="M1110 1055v-1055h-260v143h-4q-138 -168 -346 -168q-180 0 -273 118q-86 108 -86 296v666h275v-563q0 -139 23 -200q39 -104 155 -104q133 0 195 125q47 92 47 226v516h274z" />
    <glyph glyph-name="v" unicode="v" 
d="M416 0l-391 1055h294l263 -768h4l254 768h274l-389 -1055h-309z" />
    <glyph glyph-name="w" unicode="w" horiz-adv-x="1821" 
d="M379 0l-356 1055h290l234 -781h4l213 781h319l230 -781h4l219 781h262l-323 -1055h-324l-229 805h-4l-226 -805h-313z" />
    <glyph glyph-name="x" unicode="x" 
d="M381 553l-326 502h324l207 -344l202 344h291l-315 -502l356 -553h-327l-236 393l-238 -393h-301z" />
    <glyph glyph-name="y" unicode="y" 
d="M326 1055l254 -770h4l254 770h278l-395 -1047q-94 -249 -145 -319q-104 -144 -293 -144q-96 0 -195 29l18 203q53 -19 142 -19q82 0 130 51.5t48 137.5l-403 1108h303z" />
    <glyph glyph-name="z" unicode="z" horiz-adv-x="1024" 
d="M96 842v213h836v-226l-524 -616h542v-213h-876v223l534 619h-512z" />
    <glyph glyph-name="braceleft" unicode="{" horiz-adv-x="682" 
d="M37 543v176q67 0 112 41q56 50 56 149v363q0 133 96 209q85 67 207 67h154v-164h-93q-66 0 -88 -46q-14 -30 -14 -103v-354q0 -227 -229 -248v-4q229 -22 229 -262v-340q0 -74 14 -104q22 -46 88 -46h93v-164h-154q-126 0 -210 69q-93 75 -93 208v348q0 108 -56 161
q-44 44 -112 44z" />
    <glyph glyph-name="bar" unicode="|" horiz-adv-x="455" 
d="M121 1536h213v-2048h-213v2048z" />
    <glyph glyph-name="braceright" unicode="}" horiz-adv-x="682" 
d="M645 719v-176q-68 0 -112 -44q-56 -53 -56 -161v-348q0 -135 -93 -210q-83 -67 -210 -67h-154v164h93q66 0 88 46q14 30 14 104v340q0 240 229 262v4q-229 21 -229 248v354q0 73 -14 103q-22 46 -88 46h-93v164h154q127 0 210 -67q93 -74 93 -209v-363q0 -99 56 -149
q45 -41 112 -41z" />
    <glyph glyph-name="asciitilde" unicode="~" horiz-adv-x="1229" 
d="M215 336l-74 180q95 180 248 180q103 0 240 -69q145 -74 215 -74q73 0 170 147l73 -180q-107 -180 -235 -180q-100 0 -237.5 71.5t-223.5 71.5q-109 0 -176 -147z" />
    <glyph glyph-name="asciitilde" unicode="&#x223c;" horiz-adv-x="1229" 
d="M215 336l-74 180q95 180 248 180q103 0 240 -69q145 -74 215 -74q73 0 170 147l73 -180q-107 -180 -235 -180q-100 0 -237.5 71.5t-223.5 71.5q-109 0 -176 -147z" />
    <glyph glyph-name="Adieresis" unicode="&#xc4;" horiz-adv-x="1479" 
d="M940 553l-207 590h-4l-207 -590h418zM18 0l557 1430h324l561 -1430h-317l-123 328h-580l-125 -328h-297zM832 1809h237v-238h-237v238zM648 1571h-238v238h238v-238z" />
    <glyph glyph-name="Aring" unicode="&#xc5;" horiz-adv-x="1479" 
d="M940 553l-207 590h-4l-207 -590h418zM18 0l557 1430h324l561 -1430h-317l-123 328h-580l-125 -328h-297zM522 1696q0 89 65 154t154 65q90 0 153.5 -64.5t63.5 -154.5q0 -91 -63.5 -154t-153.5 -63t-154.5 63.5t-64.5 153.5zM632 1696q0 -44 31.5 -75t77.5 -31
q44 0 75 31t31 75q0 46 -31 77t-75 31q-46 0 -77.5 -31t-31.5 -77z" />
    <glyph glyph-name="Ccedilla" unicode="&#xc7;" horiz-adv-x="1251" 
d="M1194 260l12 -240q-191 -45 -325 -45q-21 0 -29 2l-74 -86l4 -4q74 13 84 13q66 0 112 -35q52 -39 52 -107q0 -109 -83 -165q-69 -48 -173 -48q-144 0 -237 43l41 111q97 -31 143 -31q108 0 108 72q0 74 -90 74q-35 0 -86 -19l-30 53l110 140q-296 31 -462 205
q-175 183 -175 497q0 364 210 566q207 198 575 198q172 0 323 -59l-20 -242q-134 76 -310 76q-216 0 -350 -149q-129 -145 -129 -369t129 -364q133 -146 357 -146q198 0 313 59z" />
    <glyph glyph-name="Eacute" unicode="&#xc9;" 
d="M166 0v1430h844v-226h-557v-352h510v-225h-510v-402h561v-225h-848zM401 1522l170 299h281l-281 -299h-170z" />
    <glyph glyph-name="Ntilde" unicode="&#xd1;" horiz-adv-x="1479" 
d="M152 0v1430h352l545 -1070h4v1070h274v-1430h-350l-547 1069h-4v-1069h-274zM488 1559h-111q0 96 59 170q62 78 150 78q59 0 166 -41q117 -45 149 -45q91 0 91 100h110q0 -107 -52 -175q-54 -73 -146 -73q-83 0 -177 37q-99 39 -139 39q-49 0 -77 -30q-23 -26 -23 -60z
" />
    <glyph glyph-name="Odieresis" unicode="&#xd6;" horiz-adv-x="1593" 
d="M96 719q0 336 180 532q186 203 521 203q330 0 518 -205q182 -199 182 -530q0 -333 -180 -534q-189 -210 -520 -210q-336 0 -523 208q-178 198 -178 536zM395 719q0 -217 91 -356q106 -162 311 -162q204 0 310 162q91 139 91 356q0 210 -94 349q-108 161 -307 161
t-308 -161q-94 -139 -94 -349zM889 1809h237v-238h-237v238zM705 1571h-238v238h238v-238z" />
    <glyph glyph-name="Udieresis" unicode="&#xdc;" horiz-adv-x="1479" 
d="M156 516v914h286v-826q0 -403 297 -403t297 403v826h287v-914q0 -541 -584 -541q-583 0 -583 541zM832 1809h237v-238h-237v238zM648 1571h-238v238h238v-238z" />
    <glyph glyph-name="aacute" unicode="&#xe1;" 
d="M197 764l-9 235q173 80 367 80q241 0 348 -105t107 -339v-135q0 -107 4 -264q3 -110 12 -236h-242q-3 20 -12 158h-4q-46 -85 -140 -135q-88 -48 -186 -48q-149 0 -254 82q-114 88 -114 232q0 212 180 301q125 61 354 61h152q0 125 -58 178q-55 50 -180 50
q-174 0 -325 -115zM336 305q0 -129 174 -129q164 0 225 152q25 63 25 159h-119q-305 0 -305 -182zM418 1198l170 299h281l-281 -299h-170z" />
    <glyph glyph-name="agrave" unicode="&#xe0;" 
d="M197 764l-9 235q173 80 367 80q241 0 348 -105t107 -339v-135q0 -107 4 -264q3 -110 12 -236h-242q-3 20 -12 158h-4q-46 -85 -140 -135q-88 -48 -186 -48q-149 0 -254 82q-114 88 -114 232q0 212 180 301q125 61 354 61h152q0 125 -58 178q-55 50 -180 50
q-174 0 -325 -115zM336 305q0 -129 174 -129q164 0 225 152q25 63 25 159h-119q-305 0 -305 -182zM533 1497l170 -299h-170l-281 299h281z" />
    <glyph glyph-name="acircumflex" unicode="&#xe2;" 
d="M197 764l-9 235q173 80 367 80q241 0 348 -105t107 -339v-135q0 -107 4 -264q3 -110 12 -236h-242q-3 20 -12 158h-4q-46 -85 -140 -135q-88 -48 -186 -48q-149 0 -254 82q-114 88 -114 232q0 212 180 301q125 61 354 61h152q0 125 -58 178q-55 50 -180 50
q-174 0 -325 -115zM336 305q0 -129 174 -129q164 0 225 152q25 63 25 159h-119q-305 0 -305 -182zM471 1497h207l215 -299h-182l-139 176l-144 -176h-182z" />
    <glyph glyph-name="adieresis" unicode="&#xe4;" 
d="M197 764l-9 235q173 80 367 80q241 0 348 -105t107 -339v-135q0 -107 4 -264q3 -110 12 -236h-242q-3 20 -12 158h-4q-46 -85 -140 -135q-88 -48 -186 -48q-149 0 -254 82q-114 88 -114 232q0 212 180 301q125 61 354 61h152q0 125 -58 178q-55 50 -180 50
q-174 0 -325 -115zM336 305q0 -129 174 -129q164 0 225 152q25 63 25 159h-119q-305 0 -305 -182zM662 1485h237v-238h-237v238zM478 1247h-238v238h238v-238z" />
    <glyph glyph-name="atilde" unicode="&#xe3;" 
d="M197 764l-9 235q173 80 367 80q241 0 348 -105t107 -339v-135q0 -107 4 -264q3 -110 12 -236h-242q-3 20 -12 158h-4q-46 -85 -140 -135q-88 -48 -186 -48q-149 0 -254 82q-114 88 -114 232q0 212 180 301q125 61 354 61h152q0 125 -58 178q-55 50 -180 50
q-174 0 -325 -115zM336 305q0 -129 174 -129q164 0 225 152q25 63 25 159h-119q-305 0 -305 -182zM318 1235h-111q0 96 59 170q62 78 150 78q59 0 166 -41q117 -45 149 -45q91 0 91 100h110q0 -107 -52 -175q-54 -73 -146 -73q-83 0 -177 37q-99 39 -139 39q-49 0 -77 -30
q-23 -26 -23 -60z" />
    <glyph glyph-name="aring" unicode="&#xe5;" 
d="M197 764l-9 235q173 80 367 80q241 0 348 -105t107 -339v-135q0 -107 4 -264q3 -110 12 -236h-242q-3 20 -12 158h-4q-46 -85 -140 -135q-88 -48 -186 -48q-149 0 -254 82q-114 88 -114 232q0 212 180 301q125 61 354 61h152q0 125 -58 178q-55 50 -180 50
q-174 0 -325 -115zM336 305q0 -129 174 -129q164 0 225 152q25 63 25 159h-119q-305 0 -305 -182zM352 1403q0 89 65 154t154 65q90 0 153.5 -64.5t63.5 -154.5q0 -91 -63.5 -154t-153.5 -63t-154.5 63.5t-64.5 153.5zM462 1403q0 -44 31.5 -75t77.5 -31q44 0 75 31t31 75
q0 46 -31 77t-75 31q-46 0 -77.5 -31t-31.5 -77z" />
    <glyph glyph-name="ccedilla" unicode="&#xe7;" horiz-adv-x="909" 
d="M850 1044l-25 -217q-85 39 -186 39q-127 0 -203 -92t-76 -242q0 -153 71 -245q75 -99 214 -99q98 0 211 50l12 -228q-98 -30 -227 -33l-76 -86l4 -4q74 13 84 13q66 0 112 -35q52 -39 52 -107q0 -109 -83 -165q-69 -48 -173 -48q-144 0 -237 43l41 111q97 -31 143 -31
q108 0 108 72q0 74 -90 74q-35 0 -86 -19l-30 53l106 134q-215 22 -332 175q-110 145 -110 375q0 238 131 388q139 159 379 159q149 0 266 -35z" />
    <glyph glyph-name="eacute" unicode="&#xe9;" 
d="M336 631h467q-15 248 -223 248q-223 0 -244 -248zM987 283v-224q-152 -84 -362 -84q-262 0 -406.5 144t-144.5 403q0 242 122 393q132 164 367 164q276 0 398 -180q104 -154 104 -457h-729q9 -125 90.5 -195.5t210.5 -70.5q160 0 350 107zM418 1198l170 299h281
l-281 -299h-170z" />
    <glyph glyph-name="egrave" unicode="&#xe8;" 
d="M336 631h467q-15 248 -223 248q-223 0 -244 -248zM987 283v-224q-152 -84 -362 -84q-262 0 -406.5 144t-144.5 403q0 242 122 393q132 164 367 164q276 0 398 -180q104 -154 104 -457h-729q9 -125 90.5 -195.5t210.5 -70.5q160 0 350 107zM533 1497l170 -299h-170
l-281 299h281z" />
    <glyph glyph-name="ecircumflex" unicode="&#xea;" 
d="M336 631h467q-15 248 -223 248q-223 0 -244 -248zM987 283v-224q-152 -84 -362 -84q-262 0 -406.5 144t-144.5 403q0 242 122 393q132 164 367 164q276 0 398 -180q104 -154 104 -457h-729q9 -125 90.5 -195.5t210.5 -70.5q160 0 350 107zM471 1497h207l215 -299h-182
l-139 176l-144 -176h-182z" />
    <glyph glyph-name="edieresis" unicode="&#xeb;" 
d="M336 631h467q-15 248 -223 248q-223 0 -244 -248zM987 283v-224q-152 -84 -362 -84q-262 0 -406.5 144t-144.5 403q0 242 122 393q132 164 367 164q276 0 398 -180q104 -154 104 -457h-729q9 -125 90.5 -195.5t210.5 -70.5q160 0 350 107zM662 1485h237v-238h-237v238z
M478 1247h-238v238h238v-238z" />
    <glyph glyph-name="iacute" unicode="&#xed;" horiz-adv-x="569" 
d="M422 0h-275v1055h275v-1055zM133 1198l170 299h281l-281 -299h-170z" />
    <glyph glyph-name="igrave" unicode="&#xec;" horiz-adv-x="569" 
d="M422 0h-275v1055h275v-1055zM248 1497l170 -299h-170l-281 299h281z" />
    <glyph glyph-name="icircumflex" unicode="&#xee;" horiz-adv-x="569" 
d="M422 0h-275v1055h275v-1055zM186 1497h207l215 -299h-182l-139 176l-144 -176h-182z" />
    <glyph glyph-name="idieresis" unicode="&#xef;" horiz-adv-x="569" 
d="M422 0h-275v1055h275v-1055zM377 1485h237v-238h-237v238zM193 1247h-238v238h238v-238z" />
    <glyph glyph-name="ntilde" unicode="&#xf1;" horiz-adv-x="1251" 
d="M141 0v1055h260v-144h5q119 168 346 168q179 0 273 -117q85 -108 85 -296v-666h-274v563q0 139 -23 200q-39 103 -156 103q-132 0 -195 -124q-46 -92 -46 -226v-516h-275zM375 1235h-111q0 96 59 170q62 78 150 78q59 0 166 -41q117 -45 149 -45q91 0 91 100h110
q0 -107 -52 -175q-54 -73 -146 -73q-83 0 -177 37q-99 39 -139 39q-49 0 -77 -30q-23 -26 -23 -60z" />
    <glyph glyph-name="oacute" unicode="&#xf3;" horiz-adv-x="1251" 
d="M74 520q0 256 158 410q153 149 393 149t394 -149q159 -154 159 -410q0 -235 -146 -386q-152 -159 -407 -159q-254 0 -406 159q-145 151 -145 386zM360 553q0 -365 265 -365q266 0 266 365q0 131 -66 217q-72 96 -200 96q-126 0 -199 -97q-66 -88 -66 -216zM475 1198
l170 299h281l-281 -299h-170z" />
    <glyph glyph-name="ograve" unicode="&#xf2;" horiz-adv-x="1251" 
d="M74 520q0 256 158 410q153 149 393 149t394 -149q159 -154 159 -410q0 -235 -146 -386q-152 -159 -407 -159q-254 0 -406 159q-145 151 -145 386zM360 553q0 -365 265 -365q266 0 266 365q0 131 -66 217q-72 96 -200 96q-126 0 -199 -97q-66 -88 -66 -216zM590 1497
l170 -299h-170l-281 299h281z" />
    <glyph glyph-name="ocircumflex" unicode="&#xf4;" horiz-adv-x="1251" 
d="M74 520q0 256 158 410q153 149 393 149t394 -149q159 -154 159 -410q0 -235 -146 -386q-152 -159 -407 -159q-254 0 -406 159q-145 151 -145 386zM360 553q0 -365 265 -365q266 0 266 365q0 131 -66 217q-72 96 -200 96q-126 0 -199 -97q-66 -88 -66 -216zM528 1497h207
l215 -299h-182l-139 176l-144 -176h-182z" />
    <glyph glyph-name="odieresis" unicode="&#xf6;" horiz-adv-x="1251" 
d="M74 520q0 256 158 410q153 149 393 149t394 -149q159 -154 159 -410q0 -235 -146 -386q-152 -159 -407 -159q-254 0 -406 159q-145 151 -145 386zM360 553q0 -365 265 -365q266 0 266 365q0 131 -66 217q-72 96 -200 96q-126 0 -199 -97q-66 -88 -66 -216zM719 1485h237
v-238h-237v238zM535 1247h-238v238h238v-238z" />
    <glyph glyph-name="otilde" unicode="&#xf5;" horiz-adv-x="1251" 
d="M74 520q0 256 158 410q153 149 393 149t394 -149q159 -154 159 -410q0 -235 -146 -386q-152 -159 -407 -159q-254 0 -406 159q-145 151 -145 386zM360 553q0 -365 265 -365q266 0 266 365q0 131 -66 217q-72 96 -200 96q-126 0 -199 -97q-66 -88 -66 -216zM375 1235h-111
q0 96 59 170q62 78 150 78q59 0 166 -41q117 -45 149 -45q91 0 91 100h110q0 -107 -52 -175q-54 -73 -146 -73q-83 0 -177 37q-99 39 -139 39q-49 0 -77 -30q-23 -26 -23 -60z" />
    <glyph glyph-name="uacute" unicode="&#xfa;" horiz-adv-x="1251" 
d="M1110 1055v-1055h-260v143h-4q-138 -168 -346 -168q-180 0 -273 118q-86 108 -86 296v666h275v-563q0 -139 23 -200q39 -104 155 -104q133 0 195 125q47 92 47 226v516h274zM475 1198l170 299h281l-281 -299h-170z" />
    <glyph glyph-name="ugrave" unicode="&#xf9;" horiz-adv-x="1251" 
d="M1110 1055v-1055h-260v143h-4q-138 -168 -346 -168q-180 0 -273 118q-86 108 -86 296v666h275v-563q0 -139 23 -200q39 -104 155 -104q133 0 195 125q47 92 47 226v516h274zM590 1497l170 -299h-170l-281 299h281z" />
    <glyph glyph-name="ucircumflex" unicode="&#xfb;" horiz-adv-x="1251" 
d="M1110 1055v-1055h-260v143h-4q-138 -168 -346 -168q-180 0 -273 118q-86 108 -86 296v666h275v-563q0 -139 23 -200q39 -104 155 -104q133 0 195 125q47 92 47 226v516h274zM528 1497h207l215 -299h-182l-139 176l-144 -176h-182z" />
    <glyph glyph-name="udieresis" unicode="&#xfc;" horiz-adv-x="1251" 
d="M1110 1055v-1055h-260v143h-4q-138 -168 -346 -168q-180 0 -273 118q-86 108 -86 296v666h275v-563q0 -139 23 -200q39 -104 155 -104q133 0 195 125q47 92 47 226v516h274zM719 1485h237v-238h-237v238zM535 1247h-238v238h238v-238z" />
    <glyph glyph-name="dagger" unicode="&#x2020;" 
d="M121 891v213h317v326h262v-326h318v-213h-318v-891h-262v891h-317z" />
    <glyph glyph-name="degree" unicode="&#xb0;" horiz-adv-x="819" 
d="M410 1305q-80 0 -130.5 -50.5t-50.5 -130.5t50.5 -130t130.5 -50q79 0 129.5 50t50.5 130t-50.5 130.5t-129.5 50.5zM410 1454q136 0 232.5 -96.5t96.5 -233.5q0 -139 -95 -234t-234 -95q-143 0 -236.5 93.5t-93.5 235.5q0 137 96.5 233.5t233.5 96.5z" />
    <glyph glyph-name="cent" unicode="&#xa2;" 
d="M528 297l174 569q-109 -13 -174 -104.5t-65 -229.5q0 -146 65 -235zM821 1245h119l-57 -186q24 -2 69 -15l-24 -217q-53 25 -107 33l-198 -645q50 -27 125 -27q97 0 210 50l13 -228q-113 -35 -275 -35q-83 0 -143 17l-55 -176h-119l65 213q-268 132 -268 503
q0 238 131 388q140 159 379 159q57 0 82 -4z" />
    <glyph glyph-name="sterling" unicode="&#xa3;" 
d="M111 0v213h180v449h-156v163h156v172q0 203 143 332q140 125 348 125q149 0 267 -35l-15 -225q-126 35 -198 35q-128 0 -197 -82q-61 -72 -61 -184v-138h301v-163h-301v-449h456v-213h-923z" />
    <glyph glyph-name="section" unicode="&#xa7;" 
d="M348 633q0 -81 147 -147q112 -47 224 -95q74 63 74 154q0 89 -124 143q-123 48 -247 96q-74 -53 -74 -151zM924 1413l-23 -223q-135 51 -293 51q-193 0 -196 -139q-2 -85 151 -145q266 -104 287 -117q156 -92 156 -252q0 -179 -152 -262q139 -81 139 -234
q0 -172 -143 -277q-129 -94 -309 -94q-138 0 -379 60l18 233q194 -80 344 -80q207 0 207 142q0 83 -154 145q-269 108 -287 118q-155 91 -155 245q0 183 158 276q-143 99 -143 244q0 169 143 266q125 84 303 84q111 0 328 -41z" />
    <glyph glyph-name="bullet" unicode="&#x2022;" horiz-adv-x="1024" 
d="M156 715q0 147 104.5 251.5t251.5 104.5q148 0 253 -104.5t105 -251.5q0 -148 -105.5 -253.5t-252.5 -105.5t-251.5 105.5t-104.5 253.5z" />
    <glyph glyph-name="paragraph" unicode="&#xb6;" horiz-adv-x="1270" 
d="M453 -254v952q-212 0 -330.5 97t-118.5 262q0 373 492 373h600v-1684h-213v1520h-217v-1520h-213z" />
    <glyph glyph-name="germandbls" unicode="&#xdf;" horiz-adv-x="1251" 
d="M422 0h-275v1034q0 240 126 379q133 148 378 148q186 0 318 -95q147 -106 147 -282q0 -292 -272 -363v-4q153 -20 249.5 -126t96.5 -251q0 -207 -136 -331q-132 -121 -343 -121q-49 0 -179 22l9 213q64 -22 143 -22q219 0 219 268q0 231 -321 231v213q247 0 247 224
q0 91 -44 148q-49 63 -138 63q-111 0 -172 -94q-53 -80 -53 -197v-1057z" />
    <glyph glyph-name="registered" unicode="&#xae;" horiz-adv-x="1638" 
d="M80 715q0 305 217 522t522 217q306 0 523 -217t217 -522q0 -306 -217 -523t-523 -217q-305 0 -522 217t-217 523zM293 715q0 -254 152 -416q149 -160 374 -160q223 0 373 160q154 163 154 416q0 251 -154 415q-150 160 -373 160q-225 0 -374 -160q-152 -163 -152 -415z
M522 307v821h309q165 0 243 -53q85 -59 85 -192q0 -202 -217 -219l217 -357h-180l-197 348h-84v-348h-176zM698 791h144q69 0 100 17q41 24 41 91q0 94 -160 94h-125v-202z" />
    <glyph glyph-name="copyright" unicode="&#xa9;" horiz-adv-x="1638" 
d="M1346 715q0 251 -154 415q-150 160 -373 160q-225 0 -374 -160q-152 -163 -152 -415q0 -254 152 -416q149 -160 374 -160q223 0 373 160q154 163 154 416zM1036 596h170q-22 -146 -124 -231q-98 -80 -234 -80q-187 0 -304 126q-114 122 -114 310q0 191 110 312
q114 124 304 124q141 0 236 -78q99 -82 120 -229h-164q-27 143 -192 143q-101 0 -157 -74t-56 -196q0 -116 60 -195t157 -79q173 0 188 147zM80 715q0 305 217 522t522 217q306 0 523 -217t217 -522q0 -306 -217 -523t-523 -217q-305 0 -522 217t-217 523z" />
    <glyph glyph-name="trademark" unicode="&#x2122;" horiz-adv-x="2048" 
d="M952 578v852h297l203 -533l201 533h297v-852h-201v602h-4l-217 -602h-154l-217 602h-4v-602h-201zM338 578v688h-240v164h693v-164h-240v-688h-213z" />
    <glyph glyph-name="acute" unicode="&#xb4;" horiz-adv-x="569" 
d="M59 1198l170 299h281l-281 -299h-170z" />
    <glyph glyph-name="dieresis" unicode="&#xa8;" horiz-adv-x="569" 
d="M377 1485h237v-238h-237v238zM193 1247h-238v238h238v-238z" />
    <glyph glyph-name="notequal" unicode="&#x2260;" horiz-adv-x="1229" 
d="M444 406l125 243h-475v197h576l157 309l172 -88l-114 -221h250v-197h-351l-125 -243h476v-197h-576l-158 -309l-172 88l115 221h-250v197h350z" />
    <glyph glyph-name="AE" unicode="&#xc6;" horiz-adv-x="1933" 
d="M1030 553l-47 664h-4l-354 -664h405zM18 0l783 1430h1022v-226h-555l28 -352h482v-225h-457l33 -402h477v-225h-756l-24 328h-549l-176 -328h-308z" />
    <glyph glyph-name="Oslash" unicode="&#xd8;" horiz-adv-x="1593" 
d="M467 397l575 742q-100 90 -245 90q-199 0 -308 -161q-94 -139 -94 -349q0 -190 72 -322zM1118 1042l-577 -743q98 -98 256 -98q204 0 310 162q91 139 91 356q0 193 -80 323zM1313 1489l92 -76l-111 -143q203 -200 203 -551q0 -333 -180 -534q-189 -210 -520 -210
q-251 0 -418 117l-117 -151l-92 73l121 156q-195 191 -195 549q0 336 180 532q186 203 521 203q236 0 405 -108z" />
    <glyph glyph-name="infinity" unicode="&#x221e;" horiz-adv-x="1638" 
d="M821 649q207 244 396 244q150 0 243.5 -100t93.5 -258q0 -163 -93.5 -264t-243.5 -101q-116 0 -222 71q-70 47 -174 158q-203 -227 -393 -227q-151 0 -246.5 100t-95.5 258q0 160 93.5 260.5t242.5 100.5q123 0 227 -73q76 -52 172 -169zM934 526q156 -170 285 -170
q72 0 115.5 47.5t43.5 124.5q0 80 -45 129.5t-119 49.5q-115 0 -280 -181zM709 526q-179 179 -287 179q-69 0 -114.5 -50.5t-45.5 -126.5t45.5 -123t120.5 -47q136 0 281 168z" />
    <glyph glyph-name="plusminus" unicode="&#xb1;" horiz-adv-x="1229" 
d="M508 766v270h213v-270h414v-213h-414v-272h-213v272h-414v213h414zM94 0v213h1041v-213h-1041z" />
    <glyph glyph-name="lessequal" unicode="&#x2264;" horiz-adv-x="1229" 
d="M94 555v199l1041 370v-209l-773 -260l773 -252v-206zM94 127h1041v-197h-1041v197z" />
    <glyph glyph-name="greaterequal" unicode="&#x2265;" horiz-adv-x="1229" 
d="M1135 555l-1041 -358v206l772 252l-772 260v209l1041 -370v-199zM1135 127v-197h-1041v197h1041z" />
    <glyph glyph-name="yen" unicode="&#xa5;" 
d="M1161 1430l-354 -674h201v-164h-287l-14 -27v-100h301v-164h-301v-301h-275v301h-301v164h301v100l-16 27h-285v164h205l-356 674h288l310 -631l315 631h268z" />
    <glyph glyph-name="uni00B5" unicode="&#xb5;" horiz-adv-x="1251" 
d="M141 -430v1485h275v-563q0 -139 23 -200q39 -104 155 -104q133 0 195 125q47 92 47 226v516h274v-1055h-260v143h-4q-26 -63 -86 -112q-68 -56 -142 -56q-135 0 -198 70h-4v-475h-275z" />
    <glyph glyph-name="partialdiff" unicode="&#x2202;" horiz-adv-x="1108" 
d="M246 1217l-111 129q170 131 344 131q298 0 445 -265q98 -176 98 -475q0 -269 -69 -447q-122 -315 -439 -315q-208 0 -330 148q-108 131 -108 317q0 199 122 323t308 124q171 0 307 -127q9 274 -85 420q-87 135 -241 135q-116 0 -241 -98zM809 586q-131 145 -272 145
q-123 0 -194 -89q-67 -83 -67 -212q0 -148 78 -229q67 -70 168 -70q141 0 220 143q70 128 67 312z" />
    <glyph glyph-name="summation" unicode="&#x2211;" horiz-adv-x="1305" 
d="M1229 1610v-191h-875l580 -821l-619 -848h938v-188h-1202v166l633 868l-606 850v164h1151z" />
    <glyph glyph-name="product" unicode="&#x220f;" horiz-adv-x="1544" 
d="M1401 -410h-266v1833h-725v-1833h-267v2048h1258v-2048z" />
    <glyph glyph-name="glyph155" 
d="M1128 25q-117 -50 -198 -50q-142 0 -197 93q-37 63 -37 186v565h-303v-819h-266v819h-127v236h1100v-236h-137v-555q0 -67 32 -67q29 0 133 43v-215z" />
    <glyph glyph-name="integral" unicode="&#x222b;" 
d="M979 1602l-25 -246q-91 35 -141 35q-106 0 -106 -152v-1266q0 -156 -68 -254q-89 -129 -274 -129q-115 0 -205 37l20 246q91 -35 144 -35q106 0 106 152v1265q0 383 344 383q117 0 205 -36z" />
    <glyph glyph-name="ordfeminine" unicode="&#xaa;" horiz-adv-x="739" 
d="M682 803h-172l-6 86h-4q-43 -103 -193 -103q-97 0 -166 41q-84 48 -84 140q0 229 363 229h76q0 135 -150 135q-111 0 -215 -63v135q99 51 246 51q155 0 223 -62q72 -65 72 -216q0 -235 10 -373zM233 977q0 -68 107 -68q74 0 117 52q41 49 41 124h-62q-203 0 -203 -108z
" />
    <glyph glyph-name="ordmasculine" unicode="&#xba;" horiz-adv-x="813" 
d="M410 1454q150 0 253 -90q107 -94 107 -242q0 -152 -106 -246q-101 -90 -256 -90q-156 0 -258 90q-107 94 -107 246q0 149 110 243q105 89 257 89zM414 1331q-170 0 -170 -209q0 -213 166 -213q159 0 159 213q0 87 -34 142q-41 67 -121 67z" />
    <glyph glyph-name="uni2126" unicode="&#x2126;" horiz-adv-x="1587" 
d="M1491 0h-627v459q328 57 328 379q0 169 -115 280t-284 111q-171 0 -284.5 -110.5t-113.5 -280.5q0 -322 326 -377v-461h-625v225h379v109q-178 59 -277 191q-102 134 -102 319q0 278 213 450q199 160 484 160q286 0 485 -160q213 -172 213 -450q0 -186 -102 -321
q-100 -131 -279 -189v-109h381v-225z" />
    <glyph glyph-name="ae" unicode="&#xe6;" horiz-adv-x="1821" 
d="M1022 631h463q0 105 -51 172q-57 76 -164 76q-117 0 -185 -73q-63 -68 -63 -175zM1675 283v-224q-152 -84 -362 -84q-309 0 -443 191q-57 -94 -170 -145q-104 -47 -223 -46q-170 2 -277 72q-126 82 -126 242q0 198 173 290q136 72 355 72h158q0 117 -53 171
q-57 59 -191 59q-171 0 -326 -117l-8 235q173 80 375 80q123 0 194 -23q91 -29 164 -110q127 133 361 133q471 0 471 -637h-725q0 -124 89 -197q83 -69 214 -69q160 0 350 107zM336 289q0 -48 42 -80.5t114 -32.5q144 0 207 77q61 74 61 234h-119q-305 0 -305 -198z" />
    <glyph glyph-name="oslash" unicode="&#xf8;" horiz-adv-x="1251" 
d="M397 344l389 467q-65 55 -161 55q-126 0 -199 -97q-66 -88 -66 -216q0 -124 37 -209zM854 725l-395 -475q64 -62 166 -62q266 0 266 365q0 95 -37 172zM1051 1126l82 -67l-111 -133q156 -153 156 -406q0 -235 -146 -386q-152 -159 -407 -159q-182 0 -322 88l-113 -135
l-84 68l115 137q-147 148 -147 387q0 256 158 410q153 149 393 149q178 0 315 -86z" />
    <glyph glyph-name="questiondown" unicode="&#xbf;" horiz-adv-x="1024" 
d="M899 -104l23 -228q-159 -67 -406 -67q-199 0 -323 84q-144 97 -144 282q0 117 91 235q84 96 168 193q90 113 90 217q0 12 -1 25h252q0 -215 -149 -383q-99 -111 -104 -118q-48 -66 -48 -136q0 -97 77 -146q63 -40 159 -40q161 0 315 82zM664 1055v-287h-287v287h287z" />
    <glyph glyph-name="exclamdown" unicode="&#xa1;" horiz-adv-x="797" 
d="M240 -375l43 1010h227l45 -1010h-315zM252 768v287h287v-287h-287z" />
    <glyph glyph-name="logicalnot" unicode="&#xac;" horiz-adv-x="1229" 
d="M922 221v414h-828v213h1041v-627h-213z" />
    <glyph glyph-name="radical" unicode="&#x221a;" horiz-adv-x="1077" 
d="M1102 1610l-434 -2048h-195l-319 659l-101 -47l-76 164l279 129l281 -592l354 1735h211z" />
    <glyph glyph-name="florin" unicode="&#x192;" 
d="M254 831h233l64 287q39 175 125 253q93 83 272 83q89 0 172 -18l-37 -217q-90 22 -118 22q-108 0 -144 -168l-51 -242h248l-27 -163h-254l-125 -674q-33 -181 -89 -277q-100 -172 -294 -172q-145 0 -213 21l41 203q44 -11 107 -11q77 0 113 69q17 32 34 118l144 723h-232
z" />
    <glyph glyph-name="approxequal" unicode="&#x2248;" horiz-adv-x="1229" 
d="M1163 909q-37 -342 -299 -342q-64 0 -266 66q-66 23 -131 46q-87 30 -129 30q-49 0 -85.5 -39.5t-47.5 -102.5h-139q12 146 80 238q79 106 216 106q46 0 271 -69l128 -44q78 -24 132 -24q106 0 131 135h139zM1163 496q-37 -342 -299 -342q-64 0 -266 65q-66 23 -131 47
q-87 29 -129 29q-49 0 -85.5 -39t-47.5 -102h-139q12 145 80 237q79 107 216 107q46 0 271 -70q64 -22 128 -43q78 -25 132 -25q106 0 131 136h139z" />
    <glyph glyph-name="uni2206" unicode="&#x2206;" horiz-adv-x="1395" 
d="M793 1458l583 -1458h-1356l560 1458h213zM684 1223l-383 -1033h782z" />
    <glyph glyph-name="guillemotleft" unicode="&#xab;" 
d="M557 551l242 420h258l-226 -420l226 -420h-258zM100 551l242 420h258l-225 -420l225 -420h-258z" />
    <glyph glyph-name="guillemotright" unicode="&#xbb;" 
d="M582 551l-242 -420h-258l225 420l-225 420h258zM1038 551l-241 -420h-258l225 420l-225 420h258z" />
    <glyph glyph-name="ellipsis" unicode="&#x2026;" horiz-adv-x="2048" 
d="M485 0h-286v287h286v-287zM1167 0h-286v287h286v-287zM1849 0h-286v287h286v-287z" />
    <glyph glyph-name="Agrave" unicode="&#xc0;" horiz-adv-x="1479" 
d="M940 553l-207 590h-4l-207 -590h418zM18 0l557 1430h324l561 -1430h-317l-123 328h-580l-125 -328h-297zM738 1821l170 -299h-170l-281 299h281z" />
    <glyph glyph-name="Atilde" unicode="&#xc3;" horiz-adv-x="1479" 
d="M940 553l-207 590h-4l-207 -590h418zM18 0l557 1430h324l561 -1430h-317l-123 328h-580l-125 -328h-297zM488 1559h-111q0 96 59 170q62 78 150 78q59 0 166 -41q117 -45 149 -45q91 0 91 100h110q0 -107 -52 -175q-54 -73 -146 -73q-83 0 -177 37q-99 39 -139 39
q-49 0 -77 -30q-23 -26 -23 -60z" />
    <glyph glyph-name="Otilde" unicode="&#xd5;" horiz-adv-x="1593" 
d="M96 719q0 336 180 532q186 203 521 203q330 0 518 -205q182 -199 182 -530q0 -333 -180 -534q-189 -210 -520 -210q-336 0 -523 208q-178 198 -178 536zM395 719q0 -217 91 -356q106 -162 311 -162q204 0 310 162q91 139 91 356q0 210 -94 349q-108 161 -307 161
t-308 -161q-94 -139 -94 -349zM545 1559h-111q0 96 59 170q62 78 150 78q59 0 166 -41q117 -45 149 -45q91 0 91 100h110q0 -107 -52 -175q-54 -73 -146 -73q-83 0 -177 37q-99 39 -139 39q-49 0 -77 -30q-23 -26 -23 -60z" />
    <glyph glyph-name="OE" unicode="&#x152;" horiz-adv-x="1933" 
d="M1004 225v979q-86 13 -152 13q-214 0 -335.5 -138.5t-121.5 -371.5q0 -219 118 -352q125 -141 347 -142q59 0 144 12zM1823 1430v-226h-533v-352h488v-225h-488v-402h541v-225h-543q-77 0 -229.5 -6t-229.5 -6q-733 0 -733 719q0 360 210 551q201 184 560 184
q71 0 211.5 -6t210.5 -6h535z" />
    <glyph glyph-name="oe" unicode="&#x153;" horiz-adv-x="1933" 
d="M360 526q0 -147 57 -239q69 -111 208 -111q141 0 212 107q60 91 60 239q0 151 -59 244q-71 113 -213 113q-130 0 -203 -117q-62 -99 -62 -236zM1860 442h-689q3 -130 86 -200q78 -66 207 -66q171 0 314 105l8 -224q-139 -82 -330 -82q-315 0 -428 175
q-124 -175 -403 -175q-254 0 -406 159q-145 151 -145 386q0 256 158 410q153 149 393 149q262 0 393 -180q122 180 368 180q474 0 474 -637zM1171 631h426q-7 248 -208 248q-100 0 -161 -77q-57 -70 -57 -171z" />
    <glyph glyph-name="endash" unicode="&#x2013;" horiz-adv-x="1024" 
d="M0 457v188h1024v-188h-1024z" />
    <glyph glyph-name="emdash" unicode="&#x2014;" horiz-adv-x="2048" 
d="M0 457v188h2048v-188h-2048z" />
    <glyph glyph-name="quotedblleft" unicode="&#x201c;" horiz-adv-x="985" 
d="M70 918l186 512h244l-129 -512h-301zM485 918l187 512h243l-129 -512h-301z" />
    <glyph glyph-name="quotedblright" unicode="&#x201d;" horiz-adv-x="985" 
d="M70 918l131 512h299l-189 -512h-241zM485 918l131 512h299l-188 -512h-242z" />
    <glyph glyph-name="quoteleft" unicode="&#x2018;" horiz-adv-x="569" 
d="M70 918l186 512h244l-129 -512h-301z" />
    <glyph glyph-name="quoteright" unicode="&#x2019;" horiz-adv-x="569" 
d="M70 918l131 512h299l-189 -512h-241z" />
    <glyph glyph-name="divide" unicode="&#xf7;" horiz-adv-x="1229" 
d="M1135 412h-1041v213h1041v-213zM614 1083q71 0 114.5 -44t43.5 -113q0 -70 -43.5 -114t-114.5 -44q-70 0 -113.5 44t-43.5 114q0 69 43.5 113t113.5 44zM614 -47q-70 0 -113.5 44t-43.5 114q0 69 43.5 113t113.5 44q71 0 114.5 -44t43.5 -113q0 -70 -43.5 -114
t-114.5 -44z" />
    <glyph glyph-name="lozenge" unicode="&#x25ca;" horiz-adv-x="1214" 
d="M698 1530l361 -801l-361 -801h-186l-356 801l356 801h186zM858 729l-252 604l-250 -604l250 -606z" />
    <glyph glyph-name="ydieresis" unicode="&#xff;" 
d="M326 1055l254 -770h4l254 770h278l-395 -1047q-94 -249 -145 -319q-104 -144 -293 -144q-96 0 -195 29l18 203q53 -19 142 -19q82 0 130 51.5t48 137.5l-403 1108h303zM662 1485h237v-238h-237v238zM478 1247h-238v238h238v-238z" />
    <glyph glyph-name="Ydieresis" unicode="&#x178;" horiz-adv-x="1366" 
d="M545 0v565l-522 865h335l338 -601l344 601h303l-512 -865v-565h-286zM776 1809h237v-238h-237v238zM592 1571h-238v238h238v-238z" />
    <glyph glyph-name="fraction" unicode="&#x2044;" horiz-adv-x="342" 
d="M-340 -45l854 1520h168l-854 -1520h-168z" />
    <glyph glyph-name="fraction" unicode="&#x2215;" horiz-adv-x="342" 
d="M-340 -45l854 1520h168l-854 -1520h-168z" />
    <glyph glyph-name="Euro" unicode="&#x20ac;" 
d="M1221 1399l-54 -213q-98 49 -241 49q-152 0 -263 -85q-107 -83 -155 -231h600l-31 -124h-602q-4 -40 -4 -80t4 -80h565l-28 -125h-504q47 -144 156.5 -226.5t259.5 -82.5q141 0 243 45l13 -230q-115 -41 -295 -41q-262 0 -447 140q-188 142 -243 395h-203l31 125h153
q-3 41 -3 81t3 79h-184l31 124h174q58 247 244 391t440 144q187 0 340 -55z" />
    <glyph glyph-name="guilsinglleft" unicode="&#x2039;" horiz-adv-x="682" 
d="M100 551l242 420h258l-225 -420l225 -420h-258z" />
    <glyph glyph-name="guilsinglright" unicode="&#x203a;" horiz-adv-x="682" 
d="M582 551l-242 -420h-258l225 420l-225 420h258z" />
    <glyph glyph-name="uniFB01" unicode="&#xfb01;" horiz-adv-x="1366" 
d="M944 0v1055h275v-1055h-275zM944 1247v262h275v-262h-275zM242 0v854h-203v201h203v147q0 162 86 258q90 101 250 101q103 0 200 -23l-22 -227q-63 37 -119 37q-121 0 -121 -162v-131h240v-201h-240v-854h-274z" />
    <glyph glyph-name="uniFB02" unicode="&#xfb02;" horiz-adv-x="1366" 
d="M944 0v1536h275v-1536h-275zM242 0v854h-203v201h203v147q0 162 86 258q90 101 250 101q103 0 200 -23l-22 -227q-63 37 -119 37q-121 0 -121 -162v-131h240v-201h-240v-854h-274z" />
    <glyph glyph-name="daggerdbl" unicode="&#x2021;" 
d="M121 936v201h317v293h262v-293h318v-201h-318v-434h318v-201h-318v-301h-262v301h-317v201h317v434h-317z" />
    <glyph glyph-name="uni2219" unicode="&#x2219;" horiz-adv-x="569" 
d="M285 424q-71 0 -114.5 44t-43.5 114q0 69 43.5 113t114.5 44q70 0 113.5 -44t43.5 -113q0 -70 -43.5 -114t-113.5 -44z" />
    <glyph glyph-name="quotesinglbase" unicode="&#x201a;" horiz-adv-x="569" 
d="M70 -225l131 512h299l-189 -512h-241z" />
    <glyph glyph-name="quotedblbase" unicode="&#x201e;" horiz-adv-x="985" 
d="M485 -225l131 512h299l-188 -512h-242zM70 -225l131 512h299l-189 -512h-241z" />
    <glyph glyph-name="perthousand" unicode="&#x2030;" horiz-adv-x="2048" 
d="M309 893q67 0 88 64q13 39 13 143q0 103 -13 142q-21 65 -88 65q-68 0 -89 -65q-13 -39 -13 -142q0 -104 13 -143q21 -64 89 -64zM150 -45l878 1520h168l-879 -1520h-167zM309 745q-291 0 -291 361q0 348 291 348q289 0 289 -348q0 -361 -289 -361zM1055 123q67 0 88 64
q12 39 12 143q0 103 -12 142q-21 65 -88 65q-68 0 -90 -65q-13 -39 -13 -142q0 -104 13 -143q21 -64 90 -64zM1055 -25q-291 0 -291 361q0 348 291 348q288 0 288 -348q0 -361 -288 -361zM1743 -25q-291 0 -291 361q0 348 291 348q289 0 289 -348q0 -361 -289 -361z
M1743 123q67 0 88 64q12 39 12 143q0 103 -12 142q-21 65 -88 65q-68 0 -90 -65q-13 -39 -13 -142q0 -104 13 -143q22 -64 90 -64z" />
    <glyph glyph-name="Acircumflex" unicode="&#xc2;" horiz-adv-x="1479" 
d="M940 553l-207 590h-4l-207 -590h418zM18 0l557 1430h324l561 -1430h-317l-123 328h-580l-125 -328h-297zM641 1821h207l215 -299h-182l-139 176l-144 -176h-182z" />
    <glyph glyph-name="Ecircumflex" unicode="&#xca;" 
d="M166 0v1430h844v-226h-557v-352h510v-225h-510v-402h561v-225h-848zM471 1821h207l215 -299h-182l-139 176l-144 -176h-182z" />
    <glyph glyph-name="Aacute" unicode="&#xc1;" horiz-adv-x="1479" 
d="M940 553l-207 590h-4l-207 -590h418zM18 0l557 1430h324l561 -1430h-317l-123 328h-580l-125 -328h-297zM571 1522l170 299h281l-281 -299h-170z" />
    <glyph glyph-name="Edieresis" unicode="&#xcb;" 
d="M166 0v1430h844v-226h-557v-352h510v-225h-510v-402h561v-225h-848zM662 1809h237v-238h-237v238zM478 1571h-238v238h238v-238z" />
    <glyph glyph-name="Egrave" unicode="&#xc8;" 
d="M166 0v1430h844v-226h-557v-352h510v-225h-510v-402h561v-225h-848zM568 1821l170 -299h-170l-281 299h281z" />
    <glyph glyph-name="Iacute" unicode="&#xcd;" horiz-adv-x="569" 
d="M141 0v1430h287v-1430h-287zM117 1522l170 299h281l-281 -299h-170z" />
    <glyph glyph-name="Icircumflex" unicode="&#xce;" horiz-adv-x="569" 
d="M141 0v1430h287v-1430h-287zM186 1821h207l215 -299h-182l-139 176l-144 -176h-182z" />
    <glyph glyph-name="Idieresis" unicode="&#xcf;" horiz-adv-x="569" 
d="M141 0v1430h287v-1430h-287zM377 1809h237v-238h-237v238zM193 1571h-238v238h238v-238z" />
    <glyph glyph-name="Igrave" unicode="&#xcc;" horiz-adv-x="569" 
d="M141 0v1430h287v-1430h-287zM283 1821l170 -299h-170l-281 299h281z" />
    <glyph glyph-name="Oacute" unicode="&#xd3;" horiz-adv-x="1593" 
d="M96 719q0 336 180 532q186 203 521 203q330 0 518 -205q182 -199 182 -530q0 -333 -180 -534q-189 -210 -520 -210q-336 0 -523 208q-178 198 -178 536zM395 719q0 -217 91 -356q106 -162 311 -162q204 0 310 162q91 139 91 356q0 210 -94 349q-108 161 -307 161
t-308 -161q-94 -139 -94 -349zM629 1522l170 299h281l-281 -299h-170z" />
    <glyph glyph-name="Ocircumflex" unicode="&#xd4;" horiz-adv-x="1593" 
d="M96 719q0 336 180 532q186 203 521 203q330 0 518 -205q182 -199 182 -530q0 -333 -180 -534q-189 -210 -520 -210q-336 0 -523 208q-178 198 -178 536zM395 719q0 -217 91 -356q106 -162 311 -162q204 0 310 162q91 139 91 356q0 210 -94 349q-108 161 -307 161
t-308 -161q-94 -139 -94 -349zM698 1851h207l215 -299h-182l-139 176l-144 -176h-182z" />
    <glyph glyph-name="Ograve" unicode="&#xd2;" horiz-adv-x="1593" 
d="M96 719q0 336 180 532q186 203 521 203q330 0 518 -205q182 -199 182 -530q0 -333 -180 -534q-189 -210 -520 -210q-336 0 -523 208q-178 198 -178 536zM395 719q0 -217 91 -356q106 -162 311 -162q204 0 310 162q91 139 91 356q0 210 -94 349q-108 161 -307 161
t-308 -161q-94 -139 -94 -349zM795 1821l170 -299h-170l-281 299h281z" />
    <glyph glyph-name="Uacute" unicode="&#xda;" horiz-adv-x="1479" 
d="M156 516v914h286v-826q0 -403 297 -403t297 403v826h287v-914q0 -541 -584 -541q-583 0 -583 541zM571 1522l170 299h281l-281 -299h-170z" />
    <glyph glyph-name="Ucircumflex" unicode="&#xdb;" horiz-adv-x="1479" 
d="M156 516v914h286v-826q0 -403 297 -403t297 403v826h287v-914q0 -541 -584 -541q-583 0 -583 541zM641 1821h207l215 -299h-182l-139 176l-144 -176h-182z" />
    <glyph glyph-name="Ugrave" unicode="&#xd9;" horiz-adv-x="1479" 
d="M156 516v914h286v-826q0 -403 297 -403t297 403v826h287v-914q0 -541 -584 -541q-583 0 -583 541zM738 1821l170 -299h-170l-281 299h281z" />
    <glyph glyph-name="dotlessi" unicode="&#x131;" horiz-adv-x="569" 
d="M422 0h-275v1055h275v-1055z" />
    <glyph glyph-name="circumflex" unicode="&#x2c6;" horiz-adv-x="569" 
d="M186 1497h207l215 -299h-182l-139 176l-144 -176h-182z" />
    <glyph glyph-name="tilde" unicode="&#x2dc;" horiz-adv-x="569" 
d="M33 1235h-111q0 96 59 170q62 78 150 78q59 0 166 -41q117 -45 149 -45q91 0 91 100h110q0 -107 -52 -175q-54 -73 -146 -73q-83 0 -177 37q-99 39 -139 39q-49 0 -77 -30q-23 -26 -23 -60z" />
    <glyph glyph-name="uni02C9" unicode="&#x2c9;" horiz-adv-x="569" 
d="M580 1266h-590v164h590v-164z" />
    <glyph glyph-name="breve" unicode="&#x2d8;" horiz-adv-x="569" 
d="M-49 1495h127q35 -164 205 -164t209 164h126q-9 -138 -103 -224.5t-232 -86.5t-232 87t-100 224z" />
    <glyph glyph-name="dotaccent" unicode="&#x2d9;" horiz-adv-x="569" 
d="M403 1247h-237v238h237v-238z" />
    <glyph glyph-name="ring" unicode="&#x2da;" horiz-adv-x="569" 
d="M68 1403q0 89 65 154t154 65q90 0 153.5 -64.5t63.5 -154.5q0 -91 -63.5 -154t-153.5 -63t-154.5 63.5t-64.5 153.5zM178 1403q0 -44 31.5 -75t77.5 -31q44 0 75 31t31 75q0 46 -31 77t-75 31q-46 0 -77.5 -31t-31.5 -77z" />
    <glyph glyph-name="cedilla" unicode="&#xb8;" horiz-adv-x="569" 
d="M154 -412l41 111q97 -31 143 -31q108 0 108 72q0 74 -90 74q-35 0 -86 -19l-30 53l120 152h129l-94 -109l4 -4q74 13 84 13q66 0 112 -35q52 -39 52 -107q0 -109 -83 -165q-69 -48 -173 -48q-144 0 -237 43z" />
    <glyph glyph-name="hungarumlaut" unicode="&#x2dd;" horiz-adv-x="569" 
d="M-143 1196l170 299h280l-280 -299h-170zM260 1198l170 299h281l-281 -299h-170z" />
    <glyph glyph-name="ogonek" unicode="&#x2db;" horiz-adv-x="569" 
d="M371 0h100q-170 -131 -170 -252q0 -92 84 -92q64 0 115 68l82 -17q-40 -85 -95 -121q-60 -41 -161 -41q-201 0 -201 185q0 137 246 270z" />
    <glyph glyph-name="caron" unicode="&#x2c7;" horiz-adv-x="569" 
d="M393 1198h-207l-225 299h182l144 -176l139 176h182z" />
    <glyph glyph-name="Lslash" unicode="&#x141;" horiz-adv-x="1024" 
d="M166 0v498l-150 -90v188l150 90v744h287v-574l344 205v-189l-344 -204v-443h555v-225h-842z" />
    <glyph glyph-name="lslash" unicode="&#x142;" horiz-adv-x="569" 
d="M147 0v600l-147 -88v188l147 88v748h275v-584l147 88v-188l-147 -88v-764h-275z" />
    <glyph glyph-name="Scaron" unicode="&#x160;" 
d="M961 1403l-27 -236q-142 62 -291 62q-90 0 -149 -41q-76 -52 -76 -158q0 -97 162 -165q261 -109 302 -138q162 -113 162 -319q0 -222 -160 -334q-140 -99 -376 -99q-142 0 -367 56l27 258q163 -88 324 -88q94 0 167 43q86 52 86 141q0 108 -162 180q-280 124 -302 139
q-162 111 -162 314q0 223 155 338q133 98 344 98q189 0 343 -51zM678 1522h-207l-225 299h182l144 -176l139 176h182z" />
    <glyph glyph-name="scaron" unicode="&#x161;" horiz-adv-x="909" 
d="M786 1040l-18 -206q-132 45 -246 45q-162 0 -162 -117q0 -64 124 -105q183 -60 230 -91q124 -82 124 -247q0 -172 -138 -264q-119 -80 -305 -80q-141 0 -311 45l16 226q140 -70 271 -70q67 0 116 26q64 34 64 103q0 82 -124 123q-204 69 -230 85q-123 75 -123 239
q0 160 126 249q112 78 287 78q118 0 299 -39zM563 1198h-207l-225 299h182l144 -176l139 176h182z" />
    <glyph glyph-name="Zcaron" unicode="&#x17d;" 
d="M74 0v233l671 971h-645v226h951v-234l-678 -971h692v-225h-991zM680 1522h-207l-225 299h182l144 -176l139 176h182z" />
    <glyph glyph-name="zcaron" unicode="&#x17e;" horiz-adv-x="1024" 
d="M96 842v213h836v-226l-524 -616h542v-213h-876v223l534 619h-512zM620 1198h-207l-225 299h182l144 -176l139 176h182z" />
    <glyph glyph-name="brokenbar" unicode="&#xa6;" horiz-adv-x="455" 
d="M121 1382h213v-716h-213v716zM121 358h213v-716h-213v716z" />
    <glyph glyph-name="brokenbar" unicode="&#x443;" horiz-adv-x="455" 
d="M121 1382h213v-716h-213v716zM121 358h213v-716h-213v716z" />
    <glyph glyph-name="Eth" unicode="&#xd0;" horiz-adv-x="1479" 
d="M166 0v688h-131v176h131v566h391q825 0 825 -715t-825 -715h-391zM453 688v-463h159q191 0 326 128q145 139 145 362t-145 361q-135 128 -326 128h-159v-340h299v-176h-299z" />
    <glyph glyph-name="eth" unicode="&#xf0;" horiz-adv-x="1251" 
d="M629 842q-127 0 -203 -108q-66 -94 -66 -220q0 -130 60 -219q71 -107 207 -107q130 0 199 101q59 87 59 225q0 125 -60 218q-71 110 -196 110zM297 1217l170 110q-100 63 -203 98l125 140q136 -50 260 -121l189 121l104 -97l-170 -108q399 -307 399 -782
q0 -291 -142 -447t-404 -156q-254 0 -405 159q-144 151 -146 386q-3 222 124 373q134 162 353 162q150 0 252 -66h4q-65 139 -217 254l-189 -123z" />
    <glyph glyph-name="eth" unicode="&#x445;" horiz-adv-x="1251" 
d="M629 842q-127 0 -203 -108q-66 -94 -66 -220q0 -130 60 -219q71 -107 207 -107q130 0 199 101q59 87 59 225q0 125 -60 218q-71 110 -196 110zM297 1217l170 110q-100 63 -203 98l125 140q136 -50 260 -121l189 121l104 -97l-170 -108q399 -307 399 -782
q0 -291 -142 -447t-404 -156q-254 0 -405 159q-144 151 -146 386q-3 222 124 373q134 162 353 162q150 0 252 -66h4q-65 139 -217 254l-189 -123z" />
    <glyph glyph-name="Yacute" unicode="&#xdd;" horiz-adv-x="1366" 
d="M545 0v565l-522 865h335l338 -601l344 601h303l-512 -865v-565h-286zM536 1522l170 299h281l-281 -299h-170z" />
    <glyph glyph-name="yacute" unicode="&#xfd;" 
d="M326 1055l254 -770h4l254 770h278l-395 -1047q-94 -249 -145 -319q-104 -144 -293 -144q-96 0 -195 29l18 203q53 -19 142 -19q82 0 130 51.5t48 137.5l-403 1108h303zM418 1198l170 299h281l-281 -299h-170z" />
    <glyph glyph-name="Thorn" unicode="&#xde;" 
d="M428 0h-287v1430h287v-238h76q596 0 596 -434q0 -236 -160 -352q-141 -101 -391 -101h-121v-305zM428 967v-437h100q273 0 273 213q0 224 -273 224h-100z" />
    <glyph glyph-name="thorn" unicode="&#xfe;" horiz-adv-x="1251" 
d="M141 -430v1966h275v-618h4q96 161 315 161q228 0 343 -165q100 -144 100 -384q0 -239 -100 -385q-116 -170 -343 -170q-203 0 -315 144h-4v-549h-275zM664 866q-122 0 -189 -112q-57 -95 -57 -224q0 -133 52 -227q65 -115 189 -115q123 0 184 117q48 92 48 225
q0 131 -47 221q-60 115 -180 115z" />
    <glyph glyph-name="minus" unicode="&#x2212;" horiz-adv-x="1229" 
d="M1135 412h-1041v213h1041v-213z" />
    <glyph glyph-name="multiply" unicode="&#xd7;" horiz-adv-x="1229" 
d="M467 518l-332 332l148 147l331 -331l332 331l148 -147l-334 -332l334 -332l-148 -147l-332 334l-331 -334l-148 147z" />
    <glyph glyph-name="uni00B9" unicode="&#xb9;" horiz-adv-x="739" 
d="M25 1237l284 205h193v-864h-213v655l-158 -121z" />
    <glyph glyph-name="uni00B2" unicode="&#xb2;" horiz-adv-x="739" 
d="M680 578h-619v167q83 29 222 177q155 165 155 249q0 107 -125 107q-117 0 -215 -70l-14 178q126 68 276 68q141 0 223 -61q93 -68 93 -203q0 -115 -125 -256q-114 -128 -221 -176v-4h350v-176z" />
    <glyph glyph-name="uni00B3" unicode="&#xb3;" horiz-adv-x="739" 
d="M94 1237l-10 168q141 49 264 49t212 -45q114 -57 114 -166q0 -172 -170 -215v-4q86 -6 134 -61.5t48 -135.5q0 -132 -125 -203q-104 -59 -250 -59q-124 0 -258 35l10 170q140 -41 222 -41q64 0 111 26q53 30 53 79q0 100 -150 100q-75 0 -115 -6v172q18 1 52 0
q44 -2 67 -2q52 0 94 23q52 28 52 75q0 94 -132 94q-130 0 -223 -53z" />
    <glyph glyph-name="onehalf" unicode="&#xbd;" horiz-adv-x="1708" 
d="M274 -45l854 1520h168l-854 -1520h-168zM20 1235l285 207h193v-864h-213v655l-158 -123zM1022 0v168q82 29 221 176q156 165 156 250q0 106 -125 106q-117 0 -215 -69l-15 178q126 68 277 68q141 0 223 -61q92 -69 92 -204q0 -115 -125 -256q-113 -127 -221 -176v-4h350
v-176h-618z" />
    <glyph glyph-name="onequarter" unicode="&#xbc;" horiz-adv-x="1708" 
d="M336 -45l854 1520h168l-854 -1520h-168zM41 1237l285 205h192v-864h-213v655l-158 -121zM1106 326h237v350h-4zM932 162v174l368 528h256v-538h99v-164h-99v-162h-213v162h-411z" />
    <glyph glyph-name="threequarters" unicode="&#xbe;" horiz-adv-x="1708" 
d="M360 -45l854 1520h168l-854 -1520h-168zM70 1237l-11 168q142 49 265 49q122 0 212 -45q113 -57 113 -166q0 -172 -170 -215v-4q86 -6 136 -63q47 -54 47 -134q0 -132 -126 -203q-103 -59 -249 -59q-125 0 -258 35l10 170q140 -41 233 -41q65 0 111 26q53 30 53 79
q0 100 -162 100q-74 0 -114 -6v172q18 1 51 0q45 -2 68 -2q60 0 104 23q53 27 53 75q0 94 -143 94q-131 0 -223 -53zM1368 326v350h-4l-229 -350h233zM1581 162v-162h-213v162h-412v174l369 528h256v-538h98v-164h-98z" />
    <glyph glyph-name="currency" unicode="&#xa4;" 
d="M981 1251l121 -121l-119 -118q94 -132 94 -291q0 -157 -94 -295l119 -119l-121 -121l-119 119q-135 -94 -293 -94q-157 0 -293 94l-118 -119l-121 121l119 119q-95 134 -95 293q0 158 95 293l-119 118l121 121l118 -118q131 94 293 94q158 0 293 -94zM287 719
q0 -122 83 -208.5t199 -86.5q117 0 200 86.5t83 208.5q0 121 -83 208t-200 87q-116 0 -199 -87t-83 -208z" />
    <glyph glyph-name="macron" unicode="&#xaf;" horiz-adv-x="1024" 
d="M1024 1540h-1024v102h1024v-102z" />
    <glyph glyph-name="periodcentered" unicode="&#xb7;" horiz-adv-x="569" 
d="M285 424q-71 0 -114.5 44t-43.5 114q0 69 43.5 113t114.5 44q70 0 113.5 -44t43.5 -113q0 -70 -43.5 -114t-113.5 -44z" />
    <glyph glyph-name="glyph248" 
d="M567 188q140 0 187 194q26 106 26 329q0 224 -26 334q-48 196 -187 196q-136 0 -182 -196q-27 -110 -27 -334q0 -223 26 -329q46 -194 183 -194zM567 -25q-495 0 -495 736q0 314 102 506q127 237 393 237q500 0 500 -743q0 -308 -95 -492q-125 -244 -405 -244z" />
    <glyph glyph-name="glyph249" 
d="M162 1094l418 336h254v-1430h-287v1104l-242 -197z" />
    <glyph glyph-name="glyph250" 
d="M1034 0h-950v240q110 102 219 205q173 167 269 297q130 176 130 294q0 93 -72 146q-65 47 -161 47q-154 0 -330 -115l-22 238q201 102 424 102q209 0 326 -104q122 -108 122 -314q0 -198 -182 -433q-88 -114 -356 -378h583v-225z" />
    <glyph glyph-name="glyph251" 
d="M92 23l17 243q165 -65 317 -65q108 0 195 47q106 57 106 155q0 224 -315 224h-140v225h131q318 0 318 188q0 189 -246 189q-167 0 -321 -76l-17 229q183 72 400 72q178 0 301 -69q170 -94 170 -298q0 -240 -267 -342v-4q133 -17 205 -114q68 -90 68 -226
q0 -230 -185 -340q-143 -86 -362 -86q-212 0 -375 48z" />
    <glyph glyph-name="glyph252" 
d="M291 510h358v620h-4zM33 297v231l534 902h357v-920h182v-213h-182v-297h-275v297h-616z" />
    <glyph glyph-name="glyph253" 
d="M1004 1430v-213h-551l-7 -306q77 15 132 15q185 0 305 -94q155 -120 155 -371q0 -211 -140 -343q-151 -143 -417 -143q-162 0 -334 41l7 256q174 -71 292 -71q127 0 209 57q97 68 97 195q0 128 -103 193q-86 54 -225 54q-133 0 -256 -38l14 768h822z" />
    <glyph glyph-name="glyph254" 
d="M979 1403l-37 -232q-133 58 -250 58q-170 0 -260 -142q-73 -115 -80 -301l4 -4q99 144 277 144q199 0 310 -119q108 -116 108 -318q0 -239 -117 -373q-123 -141 -359 -141q-485 0 -485 666q0 343 120 552q151 261 468 261q156 0 301 -51zM569 713q-98 0 -148 -82
q-44 -71 -44 -189q0 -110 46 -177q53 -77 152 -77q94 0 145 81q44 70 44 175q0 115 -46 187q-52 82 -149 82z" />
    <glyph glyph-name="glyph255" 
d="M102 1204v226h922v-238l-508 -1192h-311l530 1204h-633z" />
    <glyph glyph-name="glyph256" 
d="M334 741v4q-238 106 -238 332q0 185 130 285q121 92 325 92q205 0 334 -82q145 -92 145 -262q0 -103 -60 -196q-65 -101 -177 -146v-2q274 -128 274 -375q0 -208 -140 -316q-128 -100 -352 -100q-223 0 -356 97q-147 108 -147 315q0 226 262 354zM371 1069
q0 -131 225 -215q62 22 111 82.5t49 124.5q0 81 -48 130.5t-128 49.5q-85 0 -144 -43q-65 -48 -65 -129zM358 391q0 -87 66 -146q63 -57 151 -57q89 0 147 52t58 139q0 169 -239 248q-183 -88 -183 -236z" />
    <glyph glyph-name="glyph257" 
d="M162 27l37 231q132 -57 250 -57q170 0 259 141q73 116 80 301l-4 4q-96 -143 -276 -143q-200 0 -310 119q-108 116 -108 317q0 240 116 373q123 141 359 141q486 0 486 -666q0 -342 -121 -551q-150 -262 -467 -262q-157 0 -301 52zM571 717q99 0 149 81q44 71 44 189
q0 110 -46 178q-53 76 -153 76q-93 0 -144 -80q-44 -70 -44 -176q0 -114 46 -186q52 -82 148 -82z" />
    <glyph glyph-name="uni00A0" unicode="&#xa0;" horiz-adv-x="569" 
 />
    <glyph glyph-name="uni2002" unicode="&#x2002;" horiz-adv-x="1024" 
 />
    <glyph glyph-name="uni2003" unicode="&#x2003;" horiz-adv-x="2048" 
 />
    <glyph glyph-name="uni2004" unicode="&#x2004;" horiz-adv-x="682" 
 />
    <glyph glyph-name="uni2005" unicode="&#x2005;" horiz-adv-x="512" 
 />
    <glyph glyph-name="uni2006" unicode="&#x2006;" horiz-adv-x="341" 
 />
    <glyph glyph-name="uni2007" unicode="&#x2007;" 
 />
    <glyph glyph-name="uni2008" unicode="&#x2008;" horiz-adv-x="569" 
 />
    <glyph glyph-name="uni2009" unicode="&#x2009;" horiz-adv-x="410" 
 />
    <glyph glyph-name="uni200A" unicode="&#x200a;" horiz-adv-x="171" 
 />
    <glyph glyph-name="uni200B" unicode="&#x200b;" horiz-adv-x="0" 
 />
    <glyph glyph-name="Amacron" unicode="&#x100;" horiz-adv-x="1479" 
d="M940 553l-207 590h-4l-207 -590h418zM18 0l557 1430h324l561 -1430h-317l-123 328h-580l-125 -328h-297zM1035 1590h-590v164h590v-164z" />
    <glyph glyph-name="amacron" unicode="&#x101;" 
d="M197 764l-9 235q173 80 367 80q241 0 348 -105t107 -339v-135q0 -107 4 -264q3 -110 12 -236h-242q-3 20 -12 158h-4q-46 -85 -140 -135q-88 -48 -186 -48q-149 0 -254 82q-114 88 -114 232q0 212 180 301q125 61 354 61h152q0 125 -58 178q-55 50 -180 50
q-174 0 -325 -115zM336 305q0 -129 174 -129q164 0 225 152q25 63 25 159h-119q-305 0 -305 -182zM875 1266h-590v164h590v-164z" />
    <glyph glyph-name="Abreve" unicode="&#x102;" horiz-adv-x="1479" 
d="M940 553l-207 590h-4l-207 -590h418zM18 0l557 1430h324l561 -1430h-317l-123 328h-580l-125 -328h-297zM406 1849h127q35 -164 205 -164t209 164h126q-9 -138 -103 -224.5t-232 -86.5t-232 87t-100 224z" />
    <glyph glyph-name="abreve" unicode="&#x103;" 
d="M197 764l-9 235q173 80 367 80q241 0 348 -105t107 -339v-135q0 -107 4 -264q3 -110 12 -236h-242q-3 20 -12 158h-4q-46 -85 -140 -135q-88 -48 -186 -48q-149 0 -254 82q-114 88 -114 232q0 212 180 301q125 61 354 61h152q0 125 -58 178q-55 50 -180 50
q-174 0 -325 -115zM336 305q0 -129 174 -129q164 0 225 152q25 63 25 159h-119q-305 0 -305 -182zM246 1495h127q35 -164 205 -164t209 164h126q-9 -138 -103 -224.5t-232 -86.5t-232 87t-100 224z" />
    <glyph glyph-name="Aogonek" unicode="&#x104;" horiz-adv-x="1479" 
d="M940 553l-207 590h-4l-207 -590h418zM18 0l557 1430h324l561 -1430h-168q-168 -129 -168 -250q0 -92 84 -92q64 0 115 68l82 -17q-40 -85 -95 -121q-60 -41 -161 -41q-201 0 -201 185q0 80 78 162q59 53 117 106l-123 328h-580l-125 -328h-297z" />
    <glyph glyph-name="aogonek" unicode="&#x105;" 
d="M336 305q0 -129 174 -129q164 0 225 152q25 63 25 159h-119q-305 0 -305 -182zM197 764l-9 235q173 80 367 80q241 0 348 -105t107 -339v-135q0 -107 4 -264q3 -110 12 -236h-113q-168 -128 -168 -250q0 -92 84 -92q64 0 115 68l82 -17q-40 -85 -95 -121
q-60 -41 -161 -41q-201 0 -201 185q0 137 242 268h-27q-3 20 -12 158h-4q-46 -85 -140 -135q-88 -48 -186 -48q-149 0 -254 82q-114 88 -114 232q0 212 180 301q125 61 354 61h152q0 125 -58 178q-55 50 -180 50q-174 0 -325 -115z" />
    <glyph glyph-name="Cacute" unicode="&#x106;" horiz-adv-x="1251" 
d="M1194 260l12 -240q-191 -45 -325 -45q-360 0 -566 177q-219 187 -219 538q0 364 210 566q207 198 575 198q172 0 323 -59l-20 -242q-134 76 -310 76q-216 0 -350 -149q-129 -145 -129 -369t129 -364q133 -146 357 -146q198 0 313 59zM631 1552l170 299h281l-281 -299
h-170z" />
    <glyph glyph-name="cacute" unicode="&#x107;" horiz-adv-x="909" 
d="M850 1044l-25 -217q-85 39 -186 39q-127 0 -203 -92t-76 -242q0 -153 71 -245q75 -99 214 -99q98 0 211 50l12 -228q-113 -35 -274 -35q-252 0 -390 158q-130 149 -130 399q0 238 131 388q139 159 379 159q149 0 266 -35zM475 1198l170 299h281l-281 -299h-170z" />
    <glyph glyph-name="Ccircumflex" unicode="&#x108;" horiz-adv-x="1251" 
d="M1194 260l12 -240q-191 -45 -325 -45q-360 0 -566 177q-219 187 -219 538q0 364 210 566q207 198 575 198q172 0 323 -59l-20 -242q-134 76 -310 76q-216 0 -350 -149q-129 -145 -129 -369t129 -364q133 -146 357 -146q198 0 313 59zM686 1851h207l215 -299h-182
l-139 176l-144 -176h-182z" />
    <glyph glyph-name="ccircumflex" unicode="&#x109;" horiz-adv-x="909" 
d="M850 1044l-25 -217q-85 39 -186 39q-127 0 -203 -92t-76 -242q0 -153 71 -245q75 -99 214 -99q98 0 211 50l12 -228q-113 -35 -274 -35q-252 0 -390 158q-130 149 -130 399q0 238 131 388q139 159 379 159q149 0 266 -35zM441 1497h207l215 -299h-182l-139 176l-144 -176
h-182z" />
    <glyph glyph-name="Cdotaccent" unicode="&#x10a;" horiz-adv-x="1251" 
d="M1194 260l12 -240q-191 -45 -325 -45q-360 0 -566 177q-219 187 -219 538q0 364 210 566q207 198 575 198q172 0 323 -59l-20 -242q-134 76 -310 76q-216 0 -350 -149q-129 -145 -129 -369t129 -364q133 -146 357 -146q198 0 313 59zM928 1601h-237v238h237v-238z" />
    <glyph glyph-name="cdotaccent" unicode="&#x10b;" horiz-adv-x="909" 
d="M850 1044l-25 -217q-85 39 -186 39q-127 0 -203 -92t-76 -242q0 -153 71 -245q75 -99 214 -99q98 0 211 50l12 -228q-113 -35 -274 -35q-252 0 -390 158q-130 149 -130 399q0 238 131 388q139 159 379 159q149 0 266 -35zM668 1247h-237v238h237v-238z" />
    <glyph glyph-name="Ccaron" unicode="&#x10c;" horiz-adv-x="1251" 
d="M1194 260l12 -240q-191 -45 -325 -45q-360 0 -566 177q-219 187 -219 538q0 364 210 566q207 198 575 198q172 0 323 -59l-20 -242q-134 76 -310 76q-216 0 -350 -149q-129 -145 -129 -369t129 -364q133 -146 357 -146q198 0 313 59zM913 1562h-207l-225 299h182
l144 -176l139 176h182z" />
    <glyph glyph-name="ccaron" unicode="&#x10d;" horiz-adv-x="909" 
d="M850 1044l-25 -217q-85 39 -186 39q-127 0 -203 -92t-76 -242q0 -153 71 -245q75 -99 214 -99q98 0 211 50l12 -228q-113 -35 -274 -35q-252 0 -390 158q-130 149 -130 399q0 238 131 388q139 159 379 159q149 0 266 -35zM648 1198h-207l-225 299h182l144 -176l139 176
h182z" />
    <glyph glyph-name="Dcaron" unicode="&#x10e;" horiz-adv-x="1479" 
d="M166 0v1430h391q825 0 825 -715t-825 -715h-391zM453 1204v-979h159q191 0 326 128q145 139 145 362t-145 361q-135 128 -326 128h-159zM773 1562h-207l-225 299h182l144 -176l139 176h182z" />
    <glyph glyph-name="dcaron" unicode="&#x10f;" horiz-adv-x="1397" 
d="M360 530q0 -133 49 -225q61 -117 183 -117q124 0 189 115q53 94 53 227q0 129 -57 224q-68 112 -189 112t-181 -115q-47 -90 -47 -221zM844 0v119h-4q-115 -144 -324 -144q-227 0 -342 170q-100 146 -100 385q0 240 100 384q115 165 342 165q195 0 315 -147h5v604h274
v-1536h-266zM1212 1329v207h238v-158q0 -239 -246 -239v84q122 0 131 106h-123z" />
    <glyph glyph-name="Dcroat" unicode="&#x110;" horiz-adv-x="1479" 
d="M166 0v688h-131v176h131v566h391q825 0 825 -715t-825 -715h-391zM453 688v-463h159q191 0 326 128q145 139 145 362t-145 361q-135 128 -326 128h-159v-340h299v-176h-299z" />
    <glyph glyph-name="dcroat" unicode="&#x111;" horiz-adv-x="1356" 
d="M360 530q0 -136 48 -225q61 -117 184 -117t188 115q54 94 54 227q0 131 -56 224q-67 112 -190 112q-121 0 -180 -114q-48 -91 -48 -222zM836 1167h-191v201h191v168h274v-168h166v-201h-166v-1167h-266v119q-65 -78 -145.5 -111t-182.5 -33q-228 0 -342 168
q-100 148 -100 387q0 240 98 383q114 166 344 166q193 0 320 -150v238z" />
    <glyph glyph-name="Emacron" unicode="&#x112;" 
d="M166 0v1430h844v-226h-557v-352h510v-225h-510v-402h561v-225h-848zM900 1590h-590v164h590v-164z" />
    <glyph glyph-name="emacron" unicode="&#x113;" 
d="M336 631h467q-15 248 -223 248q-223 0 -244 -248zM987 283v-224q-152 -84 -362 -84q-262 0 -406.5 144t-144.5 403q0 242 122 393q132 164 367 164q276 0 398 -180q104 -154 104 -457h-729q9 -125 90.5 -195.5t210.5 -70.5q160 0 350 107zM880 1266h-590v164h590v-164z
" />
    <glyph glyph-name="Ebreve" unicode="&#x114;" 
d="M166 0v1430h844v-226h-557v-352h510v-225h-510v-402h561v-225h-848zM261 1849h127q35 -164 205 -164t209 164h126q-9 -138 -103 -224.5t-232 -86.5t-232 87t-100 224z" />
    <glyph glyph-name="ebreve" unicode="&#x115;" 
d="M336 631h467q-15 248 -223 248q-223 0 -244 -248zM987 283v-224q-152 -84 -362 -84q-262 0 -406.5 144t-144.5 403q0 242 122 393q132 164 367 164q276 0 398 -180q104 -154 104 -457h-729q9 -125 90.5 -195.5t210.5 -70.5q160 0 350 107zM246 1495h127q35 -164 205 -164
t209 164h126q-9 -138 -103 -224.5t-232 -86.5t-232 87t-100 224z" />
    <glyph glyph-name="Edotaccent" unicode="&#x116;" 
d="M166 0v1430h844v-226h-557v-352h510v-225h-510v-402h561v-225h-848zM723 1601h-237v238h237v-238z" />
    <glyph glyph-name="edotaccent" unicode="&#x117;" 
d="M336 631h467q-15 248 -223 248q-223 0 -244 -248zM987 283v-224q-152 -84 -362 -84q-262 0 -406.5 144t-144.5 403q0 242 122 393q132 164 367 164q276 0 398 -180q104 -154 104 -457h-729q9 -125 90.5 -195.5t210.5 -70.5q160 0 350 107zM703 1247h-237v238h237v-238z
" />
    <glyph glyph-name="Eogonek" unicode="&#x118;" 
d="M166 0v1430h844v-226h-557v-352h510v-225h-510v-402h561v-225h-117q-168 -128 -168 -250q0 -92 84 -92q64 0 115 68l82 -17q-40 -85 -95 -121q-60 -41 -161 -41q-201 0 -201 185q0 137 242 268h-629z" />
    <glyph glyph-name="eogonek" unicode="&#x119;" 
d="M336 631h467q-15 248 -223 248q-223 0 -244 -248zM987 283v-224q-78 -41 -149 -57q-170 -131 -170 -252q0 -92 84 -92q64 0 114 68l82 -17q-40 -85 -95 -121q-60 -41 -161 -41q-200 0 -200 185q0 133 206 248q-24 -5 -73 -5q-262 0 -406.5 144t-144.5 403q0 242 122 393
q132 164 367 164q276 0 398 -180q104 -154 104 -457h-729q9 -125 90.5 -195.5t210.5 -70.5q160 0 350 107z" />
    <glyph glyph-name="Ecaron" unicode="&#x11a;" 
d="M166 0v1430h844v-226h-557v-352h510v-225h-510v-402h561v-225h-848zM708 1552h-207l-225 299h182l144 -176l139 176h182z" />
    <glyph glyph-name="ecaron" unicode="&#x11b;" 
d="M336 631h467q-15 248 -223 248q-223 0 -244 -248zM987 283v-224q-152 -84 -362 -84q-262 0 -406.5 144t-144.5 403q0 242 122 393q132 164 367 164q276 0 398 -180q104 -154 104 -457h-729q9 -125 90.5 -195.5t210.5 -70.5q160 0 350 107zM678 1198h-207l-225 299h182
l144 -176l139 176h182z" />
    <glyph glyph-name="Gcircumflex" unicode="&#x11c;" horiz-adv-x="1479" 
d="M1300 1395l-18 -242q-164 76 -369 76q-243 0 -384 -149q-134 -142 -134 -369q0 -224 129 -364q133 -146 357 -146q106 0 188 20v373h-303v225h577v-770q-272 -74 -462 -74q-360 0 -566 177q-219 187 -219 538q0 364 210 566q207 198 575 198q222 0 419 -59zM742 1851h207
l215 -299h-182l-139 176l-144 -176h-182z" />
    <glyph glyph-name="gcircumflex" unicode="&#x11d;" horiz-adv-x="1251" 
d="M594 213q122 0 185 97q57 86 57 229q0 144 -55 231q-61 96 -175 96q-128 0 -193 -106q-53 -88 -53 -228q0 -121 58 -213q66 -106 176 -106zM848 1055h262v-953q0 -557 -557 -557q-195 0 -365 72l23 233q172 -92 307 -92q201 0 273 137q45 86 45 273h-5q-40 -72 -125 -118
q-92 -50 -202 -50q-220 0 -332 160q-98 140 -98 372q0 217 105 369q122 178 341 178q218 0 324 -168h4v144zM531 1497h207l215 -299h-182l-139 176l-144 -176h-182z" />
    <glyph glyph-name="Gbreve" unicode="&#x11e;" horiz-adv-x="1479" 
d="M1300 1395l-18 -242q-164 76 -369 76q-243 0 -384 -149q-134 -142 -134 -369q0 -224 129 -364q133 -146 357 -146q106 0 188 20v373h-303v225h577v-770q-272 -74 -462 -74q-360 0 -566 177q-219 187 -219 538q0 364 210 566q207 198 575 198q222 0 419 -59zM516 1859h127
q35 -164 205 -164t209 164h126q-9 -138 -103 -224.5t-232 -86.5t-232 87t-100 224z" />
    <glyph glyph-name="gbreve" unicode="&#x11f;" horiz-adv-x="1251" 
d="M594 213q122 0 185 97q57 86 57 229q0 144 -55 231q-61 96 -175 96q-128 0 -193 -106q-53 -88 -53 -228q0 -121 58 -213q66 -106 176 -106zM848 1055h262v-953q0 -557 -557 -557q-195 0 -365 72l23 233q172 -92 307 -92q201 0 273 137q45 86 45 273h-5q-40 -72 -125 -118
q-92 -50 -202 -50q-220 0 -332 160q-98 140 -98 372q0 217 105 369q122 178 341 178q218 0 324 -168h4v144zM281 1495h127q35 -164 205 -164t209 164h126q-9 -138 -103 -224.5t-232 -86.5t-232 87t-100 224z" />
    <glyph glyph-name="Gdotaccent" unicode="&#x120;" horiz-adv-x="1479" 
d="M1300 1395l-18 -242q-164 76 -369 76q-243 0 -384 -149q-134 -142 -134 -369q0 -224 129 -364q133 -146 357 -146q106 0 188 20v373h-303v225h577v-770q-272 -74 -462 -74q-360 0 -566 177q-219 187 -219 538q0 364 210 566q207 198 575 198q222 0 419 -59zM938 1601
h-237v238h237v-238z" />
    <glyph glyph-name="gdotaccent" unicode="&#x121;" horiz-adv-x="1251" 
d="M594 213q122 0 185 97q57 86 57 229q0 144 -55 231q-61 96 -175 96q-128 0 -193 -106q-53 -88 -53 -228q0 -121 58 -213q66 -106 176 -106zM848 1055h262v-953q0 -557 -557 -557q-195 0 -365 72l23 233q172 -92 307 -92q201 0 273 137q45 86 45 273h-5q-40 -72 -125 -118
q-92 -50 -202 -50q-220 0 -332 160q-98 140 -98 372q0 217 105 369q122 178 341 178q218 0 324 -168h4v144zM733 1247h-237v238h237v-238z" />
    <glyph glyph-name="Gcommaaccent" unicode="&#x122;" horiz-adv-x="1479" 
d="M1300 1395l-18 -242q-164 76 -369 76q-243 0 -384 -149q-134 -142 -134 -369q0 -224 129 -364q133 -146 357 -146q106 0 188 20v373h-303v225h577v-770q-272 -74 -462 -74q-360 0 -566 177q-219 187 -219 538q0 364 210 566q207 198 575 198q222 0 419 -59zM700 -297v207
h237v-158q0 -239 -245 -239v84q122 0 131 106h-123z" />
    <glyph glyph-name="gcommaaccent" unicode="&#x123;" horiz-adv-x="1251" 
d="M594 213q122 0 185 97q57 86 57 229q0 144 -55 231q-61 96 -175 96q-128 0 -193 -106q-53 -88 -53 -228q0 -121 58 -213q66 -106 176 -106zM848 1055h262v-953q0 -557 -557 -557q-195 0 -365 72l23 233q172 -92 307 -92q201 0 273 137q45 86 45 273h-5q-40 -72 -125 -118
q-92 -50 -202 -50q-220 0 -332 160q-98 140 -98 372q0 217 105 369q122 178 341 178q218 0 324 -168h4v144zM772 1417v-207h-237v158q0 240 245 240v-84q-122 0 -131 -107h123z" />
    <glyph glyph-name="Hcircumflex" unicode="&#x124;" horiz-adv-x="1479" 
d="M166 0v1430h287v-578h573v578h287v-1430h-287v627h-573v-627h-287zM639 1851h207l215 -299h-182l-139 176l-144 -176h-182z" />
    <glyph glyph-name="hcircumflex" unicode="&#x125;" horiz-adv-x="1251" 
d="M141 0v1536h275v-625h4q114 168 332 168q179 0 273 -117q85 -108 85 -296v-666h-274v563q0 139 -23 200q-39 103 -156 103q-132 0 -195 -124q-46 -92 -46 -226v-516h-275zM186 1947h207l215 -299h-182l-139 176l-144 -176h-182z" />
    <glyph glyph-name="Hbar" unicode="&#x126;" horiz-adv-x="1761" 
d="M1454 1034v-1034h-287v627h-573v-627h-287v1034h-205v201h205v195h287v-195h573v195h287v-195h205v-201h-205zM594 1034v-182h573v182h-573z" />
    <glyph glyph-name="hbar" unicode="&#x127;" horiz-adv-x="1319" 
d="M457 1167v-256q81 118 233 156q49 12 103 12q178 0 272 -116q86 -107 86 -297v-666h-274v563q0 137 -23 199q-38 104 -156 104q-130 0 -194 -123q-47 -90 -47 -227v-516h-275v1167h-151v201h151v168h275v-168h205v-201h-205z" />
    <glyph glyph-name="Itilde" unicode="&#x128;" horiz-adv-x="569" 
d="M141 0v1430h287v-1430h-287zM31 1589h-111q0 96 59 170q62 78 150 78q59 0 166 -41q117 -45 149 -45q91 0 91 100h110q0 -107 -52 -175q-54 -73 -146 -73q-83 0 -177 37q-99 39 -139 39q-49 0 -77 -30q-23 -26 -23 -60z" />
    <glyph glyph-name="itilde" unicode="&#x129;" horiz-adv-x="569" 
d="M422 0h-275v1055h275v-1055zM33 1235h-111q0 96 59 170q62 78 150 78q59 0 166 -41q117 -45 149 -45q91 0 91 100h110q0 -107 -52 -175q-54 -73 -146 -73q-83 0 -177 37q-99 39 -139 39q-49 0 -77 -30q-23 -26 -23 -60z" />
    <glyph glyph-name="Imacron" unicode="&#x12a;" horiz-adv-x="569" 
d="M141 0v1430h287v-1430h-287zM578 1620h-590v164h590v-164z" />
    <glyph glyph-name="imacron" unicode="&#x12b;" horiz-adv-x="569" 
d="M422 0h-275v1055h275v-1055zM580 1266h-590v164h590v-164z" />
    <glyph glyph-name="Ibreve" unicode="&#x12c;" horiz-adv-x="569" 
d="M141 0v1430h287v-1430h-287zM-51 1849h127q35 -164 205 -164t209 164h126q-9 -138 -103 -224.5t-232 -86.5t-232 87t-100 224z" />
    <glyph glyph-name="ibreve" unicode="&#x12d;" horiz-adv-x="569" 
d="M422 0h-275v1055h275v-1055zM-51 1495h127q35 -164 205 -164t209 164h126q-9 -138 -103 -224.5t-232 -86.5t-232 87t-100 224z" />
    <glyph glyph-name="Iogonek" unicode="&#x12e;" horiz-adv-x="569" 
d="M141 0v1430h287v-1430h-82q-168 -129 -168 -250q0 -92 84 -92q64 0 115 68l82 -17q-40 -85 -95 -121q-60 -41 -161 -41q-201 0 -201 185q0 137 242 268h-103z" />
    <glyph glyph-name="iogonek" unicode="&#x12f;" horiz-adv-x="569" 
d="M147 1247v262h275v-262h-275zM147 0v1055h275v-1055h-76q-168 -129 -168 -250q0 -92 84 -92q64 0 115 68l82 -17q-40 -85 -95 -121q-60 -41 -161 -41q-201 0 -201 185q0 137 242 268h-97z" />
    <glyph glyph-name="Idotaccent" unicode="&#x130;" horiz-adv-x="569" 
d="M141 0v1430h287v-1430h-287zM403 1601h-237v238h237v-238z" />
    <glyph glyph-name="IJ" unicode="&#x132;" horiz-adv-x="1366" 
d="M141 0v1430h287v-1430h-287zM614 2v248q67 -25 137 -25q123 0 163 88q24 50 24 164v953h286v-1090q0 -138 -85 -239q-107 -126 -306 -126q-115 0 -219 27z" />
    <glyph glyph-name="ij" unicode="&#x133;" horiz-adv-x="1140" 
d="M147 0v1055h275v-1055h-275zM147 1247v262h275v-262h-275zM540 -438l11 196q115 7 146 52q21 32 21 149v1096h275v-1133q0 -377 -318 -377q-79 0 -135 17zM718 1247v262h275v-262h-275z" />
    <glyph glyph-name="Jcircumflex" unicode="&#x134;" horiz-adv-x="797" 
d="M45 2v248q67 -25 137 -25q123 0 163 88q24 50 24 164v953h286v-1090q0 -138 -85 -239q-107 -126 -306 -126q-115 0 -219 27zM399 1851h207l215 -299h-182l-139 176l-144 -176h-182z" />
    <glyph glyph-name="jcircumflex" unicode="&#x135;" horiz-adv-x="569" 
d="M-31 -438l11 196q115 7 146 52q21 32 21 149v1096h275v-1133q0 -377 -318 -377q-79 0 -135 17zM-39 1198l225 299h215l207 -299h-182l-139 176l-144 -176h-182z" />
    <glyph glyph-name="Kcommaaccent" unicode="&#x136;" horiz-adv-x="1366" 
d="M166 0v1430h287v-615l516 615h352l-588 -674l613 -756h-375l-514 664h-4v-664h-287zM591 -297v207h237v-158q0 -239 -245 -239v84q122 0 131 106h-123z" />
    <glyph glyph-name="kcommaaccent" unicode="&#x137;" 
d="M147 0v1536h275v-903h4l328 422h323l-393 -471l442 -584h-348l-352 512h-4v-512h-275zM449 -297v207h237v-158q0 -239 -245 -239v84q122 0 131 106h-123z" />
    <glyph glyph-name="kgreenlandic" unicode="&#x138;" 
d="M147 0v1055h275v-434l332 434h323l-393 -484l442 -571h-348l-356 500v-500h-275z" />
    <glyph glyph-name="Lacute" unicode="&#x139;" horiz-adv-x="1024" 
d="M166 0v1430h287v-1205h555v-225h-842zM217 1522l170 299h281l-281 -299h-170z" />
    <glyph glyph-name="lacute" unicode="&#x13a;" horiz-adv-x="569" 
d="M147 0v1536h275v-1536h-275zM177 1658l170 299h281l-281 -299h-170z" />
    <glyph glyph-name="Lcommaaccent" unicode="&#x13b;" horiz-adv-x="1024" 
d="M166 0v1430h287v-1205h555v-225h-842zM473 -297v207h237v-158q0 -239 -245 -239v84q122 0 131 106h-123z" />
    <glyph glyph-name="lcommaaccent" unicode="&#x13c;" horiz-adv-x="569" 
d="M147 0v1536h275v-1536h-275zM164 -297v207h237v-158q0 -239 -245 -239v84q122 0 131 106h-123z" />
    <glyph glyph-name="Lcaron" unicode="&#x13d;" horiz-adv-x="1024" 
d="M166 0v1430h287v-1205h555v-225h-842zM614 1223v207h238v-158q0 -240 -246 -240v84q122 0 131 107h-123z" />
    <glyph glyph-name="lcaron" unicode="&#x13e;" horiz-adv-x="709" 
d="M147 0v1536h275v-1536h-275zM524 1329v207h238v-158q0 -239 -246 -239v84q122 0 131 106h-123z" />
    <glyph glyph-name="Ldot" unicode="&#x13f;" horiz-adv-x="1024" 
d="M166 0v1430h287v-1205h555v-225h-842zM903 677h-237v238h237v-238z" />
    <glyph glyph-name="ldot" unicode="&#x140;" horiz-adv-x="850" 
d="M147 0v1536h275v-1536h-275zM803 677h-237v238h237v-238z" />
    <glyph glyph-name="Nacute" unicode="&#x143;" horiz-adv-x="1479" 
d="M152 0v1430h352l545 -1070h4v1070h274v-1430h-350l-547 1069h-4v-1069h-274zM631 1522l170 299h281l-281 -299h-170z" />
    <glyph glyph-name="nacute" unicode="&#x144;" horiz-adv-x="1251" 
d="M141 0v1055h260v-144h5q119 168 346 168q179 0 273 -117q85 -108 85 -296v-666h-274v563q0 139 -23 200q-39 103 -156 103q-132 0 -195 -124q-46 -92 -46 -226v-516h-275zM549 1198l170 299h281l-281 -299h-170z" />
    <glyph glyph-name="Ncommaaccent" unicode="&#x145;" horiz-adv-x="1479" 
d="M152 0v1430h352l545 -1070h4v1070h274v-1430h-350l-547 1069h-4v-1069h-274zM618 -297v207h237v-158q0 -239 -245 -239v84q122 0 131 106h-123z" />
    <glyph glyph-name="ncommaaccent" unicode="&#x146;" horiz-adv-x="1251" 
d="M141 0v1055h260v-144h5q119 168 346 168q179 0 273 -117q85 -108 85 -296v-666h-274v563q0 139 -23 200q-39 103 -156 103q-132 0 -195 -124q-46 -92 -46 -226v-516h-275zM518 -297v207h237v-158q0 -239 -245 -239v84q122 0 131 106h-123z" />
    <glyph glyph-name="Ncaron" unicode="&#x147;" horiz-adv-x="1479" 
d="M152 0v1430h352l545 -1070h4v1070h274v-1430h-350l-547 1069h-4v-1069h-274zM858 1522h-207l-225 299h182l144 -176l139 176h182z" />
    <glyph glyph-name="ncaron" unicode="&#x148;" horiz-adv-x="1251" 
d="M141 0v1055h260v-144h5q119 168 346 168q179 0 273 -117q85 -108 85 -296v-666h-274v563q0 139 -23 200q-39 103 -156 103q-132 0 -195 -124q-46 -92 -46 -226v-516h-275zM748 1198h-207l-225 299h182l144 -176l139 176h182z" />
    <glyph glyph-name="napostrophe" unicode="&#x149;" horiz-adv-x="1501" 
d="M391 0v1055h260v-144h5q119 168 346 168q179 0 273 -117q85 -108 85 -296v-666h-274v563q0 139 -23 200q-39 103 -156 103q-132 0 -195 -124q-46 -92 -46 -226v-516h-275zM44 1103v207h237v-158q0 -239 -245 -239v84q122 0 131 106h-123z" />
    <glyph glyph-name="Eng" unicode="&#x14a;" horiz-adv-x="1479" 
d="M1327 -86q0 -280 -344 -317q-37 -5 -63 -5q-133 0 -211 25v209q53 -25 139 -25q153 0 153 109q0 40 -28 96l-547 1063v-1069h-274v1430h352l549 -1070v1070h274v-1516z" />
    <glyph glyph-name="eng" unicode="&#x14b;" horiz-adv-x="1251" 
d="M1110 -86q0 -152 -66 -225q-73 -83 -225 -92l-63 -5h-70q-60 4 -141 25v209q31 -16 63 -19l76 -6q55 -4 108 23q44 22 44 74v665q0 137 -23 199q-38 104 -156 104q-130 0 -194 -123q-47 -90 -47 -227v-516h-275v1055h260v-144q127 168 351 168q178 0 272 -116
q86 -107 86 -297v-752z" />
    <glyph glyph-name="Omacron" unicode="&#x14c;" horiz-adv-x="1593" 
d="M96 719q0 336 180 532q186 203 521 203q330 0 518 -205q182 -199 182 -530q0 -333 -180 -534q-189 -210 -520 -210q-336 0 -523 208q-178 198 -178 536zM395 719q0 -217 91 -356q106 -162 311 -162q204 0 310 162q91 139 91 356q0 210 -94 349q-108 161 -307 161
t-308 -161q-94 -139 -94 -349zM1092 1620h-590v164h590v-164z" />
    <glyph glyph-name="omacron" unicode="&#x14d;" horiz-adv-x="1251" 
d="M74 520q0 256 158 410q153 149 393 149t394 -149q159 -154 159 -410q0 -235 -146 -386q-152 -159 -407 -159q-254 0 -406 159q-145 151 -145 386zM360 553q0 -365 265 -365q266 0 266 365q0 131 -66 217q-72 96 -200 96q-126 0 -199 -97q-66 -88 -66 -216zM920 1266h-590
v164h590v-164z" />
    <glyph glyph-name="Obreve" unicode="&#x14e;" horiz-adv-x="1593" 
d="M96 719q0 336 180 532q186 203 521 203q330 0 518 -205q182 -199 182 -530q0 -333 -180 -534q-189 -210 -520 -210q-336 0 -523 208q-178 198 -178 536zM395 719q0 -217 91 -356q106 -162 311 -162q204 0 310 162q91 139 91 356q0 210 -94 349q-108 161 -307 161
t-308 -161q-94 -139 -94 -349zM463 1849h127q35 -164 205 -164t209 164h126q-9 -138 -103 -224.5t-232 -86.5t-232 87t-100 224z" />
    <glyph glyph-name="obreve" unicode="&#x14f;" horiz-adv-x="1251" 
d="M74 520q0 256 158 410q153 149 393 149t394 -149q159 -154 159 -410q0 -235 -146 -386q-152 -159 -407 -159q-254 0 -406 159q-145 151 -145 386zM360 553q0 -365 265 -365q266 0 266 365q0 131 -66 217q-72 96 -200 96q-126 0 -199 -97q-66 -88 -66 -216zM293 1495h127
q35 -164 205 -164t209 164h126q-9 -138 -103 -224.5t-232 -86.5t-232 87t-100 224z" />
    <glyph glyph-name="Ohungarumlaut" unicode="&#x150;" horiz-adv-x="1593" 
d="M96 719q0 336 180 532q186 203 521 203q330 0 518 -205q182 -199 182 -530q0 -333 -180 -534q-189 -210 -520 -210q-336 0 -523 208q-178 198 -178 536zM395 719q0 -217 91 -356q106 -162 311 -162q204 0 310 162q91 139 91 356q0 210 -94 349q-108 161 -307 161
t-308 -161q-94 -139 -94 -349zM469 1550l170 299h280l-280 -299h-170zM872 1552l170 299h281l-281 -299h-170z" />
    <glyph glyph-name="ohungarumlaut" unicode="&#x151;" horiz-adv-x="1251" 
d="M74 520q0 256 158 410q153 149 393 149t394 -149q159 -154 159 -410q0 -235 -146 -386q-152 -159 -407 -159q-254 0 -406 159q-145 151 -145 386zM360 553q0 -365 265 -365q266 0 266 365q0 131 -66 217q-72 96 -200 96q-126 0 -199 -97q-66 -88 -66 -216zM292 1196
l170 299h280l-280 -299h-170zM695 1198l170 299h281l-281 -299h-170z" />
    <glyph glyph-name="Racute" unicode="&#x154;" horiz-adv-x="1251" 
d="M428 1204v-385h94q303 0 303 199q0 115 -97 158q-67 28 -206 28h-94zM141 0v1430h310q329 0 452 -45q221 -80 221 -343q0 -128 -79 -219q-81 -94 -216 -112v-4q95 -8 152 -148l229 -559h-319l-172 446q-33 84 -70 114q-42 34 -129 34h-92v-594h-287zM451 1552l170 299
h281l-281 -299h-170z" />
    <glyph glyph-name="racute" unicode="&#x155;" horiz-adv-x="797" 
d="M147 0v1055h244v-240h4q11 87 88 169q89 95 201 95q55 0 84 -8v-276q-39 22 -123 22q-145 0 -195 -158q-28 -89 -28 -272v-387h-275zM381 1198l170 299h281l-281 -299h-170z" />
    <glyph glyph-name="Rcommaaccent" unicode="&#x156;" horiz-adv-x="1251" 
d="M428 1204v-385h94q303 0 303 199q0 115 -97 158q-67 28 -206 28h-94zM141 0v1430h310q329 0 452 -45q221 -80 221 -343q0 -128 -79 -219q-81 -94 -216 -112v-4q95 -8 152 -148l229 -559h-319l-172 446q-33 84 -70 114q-42 34 -129 34h-92v-594h-287zM616 -297v207h237
v-158q0 -239 -245 -239v84q122 0 131 106h-123z" />
    <glyph glyph-name="rcommaaccent" unicode="&#x157;" horiz-adv-x="797" 
d="M147 0v1055h244v-240h4q11 87 88 169q89 95 201 95q55 0 84 -8v-276q-39 22 -123 22q-145 0 -195 -158q-28 -89 -28 -272v-387h-275zM164 -297v207h237v-158q0 -239 -245 -239v84q122 0 131 106h-123z" />
    <glyph glyph-name="Rcaron" unicode="&#x158;" horiz-adv-x="1251" 
d="M428 1204v-385h94q303 0 303 199q0 115 -97 158q-67 28 -206 28h-94zM141 0v1430h310q329 0 452 -45q221 -80 221 -343q0 -128 -79 -219q-81 -94 -216 -112v-4q95 -8 152 -148l229 -559h-319l-172 446q-33 84 -70 114q-42 34 -129 34h-92v-594h-287zM688 1552h-207
l-225 299h182l144 -176l139 176h182z" />
    <glyph glyph-name="rcaron" unicode="&#x159;" horiz-adv-x="797" 
d="M147 0v1055h244v-240h4q11 87 88 169q89 95 201 95q55 0 84 -8v-276q-39 22 -123 22q-145 0 -195 -158q-28 -89 -28 -272v-387h-275zM568 1198h-207l-225 299h182l144 -176l139 176h182z" />
    <glyph glyph-name="Sacute" unicode="&#x15a;" 
d="M961 1403l-27 -236q-142 62 -291 62q-90 0 -149 -41q-76 -52 -76 -158q0 -97 162 -165q261 -109 302 -138q162 -113 162 -319q0 -222 -160 -334q-140 -99 -376 -99q-142 0 -367 56l27 258q163 -88 324 -88q94 0 167 43q86 52 86 141q0 108 -162 180q-280 124 -302 139
q-162 111 -162 314q0 223 155 338q133 98 344 98q189 0 343 -51zM481 1552l170 299h281l-281 -299h-170z" />
    <glyph glyph-name="sacute" unicode="&#x15b;" horiz-adv-x="909" 
d="M786 1040l-18 -206q-132 45 -246 45q-162 0 -162 -117q0 -64 124 -105q183 -60 230 -91q124 -82 124 -247q0 -172 -138 -264q-119 -80 -305 -80q-141 0 -311 45l16 226q140 -70 271 -70q67 0 116 26q64 34 64 103q0 82 -124 123q-204 69 -230 85q-123 75 -123 239
q0 160 126 249q112 78 287 78q118 0 299 -39zM371 1198l170 299h281l-281 -299h-170z" />
    <glyph glyph-name="Scircumflex" unicode="&#x15c;" 
d="M961 1403l-27 -236q-142 62 -291 62q-90 0 -149 -41q-76 -52 -76 -158q0 -97 162 -165q261 -109 302 -138q162 -113 162 -319q0 -222 -160 -334q-140 -99 -376 -99q-142 0 -367 56l27 258q163 -88 324 -88q94 0 167 43q86 52 86 141q0 108 -162 180q-280 124 -302 139
q-162 111 -162 314q0 223 155 338q133 98 344 98q189 0 343 -51zM496 1851h207l215 -299h-182l-139 176l-144 -176h-182z" />
    <glyph glyph-name="scircumflex" unicode="&#x15d;" horiz-adv-x="909" 
d="M786 1040l-18 -206q-132 45 -246 45q-162 0 -162 -117q0 -64 124 -105q183 -60 230 -91q124 -82 124 -247q0 -172 -138 -264q-119 -80 -305 -80q-141 0 -311 45l16 226q140 -70 271 -70q67 0 116 26q64 34 64 103q0 82 -124 123q-204 69 -230 85q-123 75 -123 239
q0 160 126 249q112 78 287 78q118 0 299 -39zM371 1497h207l215 -299h-182l-139 176l-144 -176h-182z" />
    <glyph glyph-name="Scedilla" unicode="&#x15e;" 
d="M401 -150l101 125q-140 0 -361 56l27 258q163 -88 324 -88q94 0 167 43q86 52 86 141q0 108 -162 180q-280 124 -302 139q-162 111 -162 314q0 223 155 338q133 98 344 98q189 0 343 -51l-27 -236q-142 62 -291 62q-90 0 -149 -41q-76 -52 -76 -158q0 -97 162 -165
q261 -109 302 -138q162 -113 162 -319q0 -368 -407 -422l-80 -92l4 -5q74 13 84 13q66 0 112 -35q52 -39 52 -107q0 -109 -83 -165q-69 -48 -173 -48q-144 0 -238 43l41 111q98 -31 144 -31q108 0 108 72q0 74 -90 74q-35 0 -86 -19z" />
    <glyph glyph-name="scedilla" unicode="&#x15f;" horiz-adv-x="909" 
d="M256 -150l100 127q-114 3 -272 43l16 226q140 -70 271 -70q67 0 116 26q64 34 64 103q0 82 -124 123q-204 69 -230 85q-123 75 -123 239q0 160 126 249q112 78 287 78q118 0 299 -39l-18 -206q-132 45 -246 45q-162 0 -162 -117q0 -64 124 -105q183 -60 230 -91
q124 -82 124 -247q0 -149 -104 -238q-91 -79 -245 -99l-77 -88l4 -5q73 13 84 13q66 0 112 -35q52 -39 52 -107q0 -109 -83 -165q-69 -48 -173 -48q-145 0 -238 43l41 111q97 -31 143 -31q109 0 109 72q0 74 -90 74q-36 0 -86 -19z" />
    <glyph glyph-name="Tcommaaccent" unicode="&#x162;" 
d="M426 0v1204h-410v226h1106v-226h-409v-1204h-287zM453 -297v207h237v-158q0 -239 -245 -239v84q122 0 131 106h-123z" />
    <glyph glyph-name="tcommaaccent" unicode="&#x163;" horiz-adv-x="797" 
d="M231 317v537h-202v201h202v211l275 88v-299h244v-201h-244v-492q0 -174 129 -174q80 0 125 29l8 -217q-86 -25 -203 -25q-159 0 -246.5 92t-87.5 250zM360 -297v207h237v-158q0 -239 -245 -239v84q122 0 131 106h-123z" />
    <glyph glyph-name="Tcaron" unicode="&#x164;" 
d="M426 0v1204h-410v226h1106v-226h-409v-1204h-287zM676 1552h-207l-225 299h182l144 -176l139 176h182z" />
    <glyph glyph-name="tcaron" unicode="&#x165;" horiz-adv-x="797" 
d="M231 317v537h-202v201h202v211l275 88v-299h244v-201h-244v-492q0 -174 129 -174q80 0 125 29l8 -217q-86 -25 -203 -25q-159 0 -246.5 92t-87.5 250zM608 1329v207h238v-158q0 -239 -246 -239v84q122 0 131 106h-123z" />
    <glyph glyph-name="Tbar" unicode="&#x166;" 
d="M426 0v646h-312v176h312v382h-410v226h1106v-226h-409v-382h312v-176h-312v-646h-287z" />
    <glyph glyph-name="tbar" unicode="&#x167;" horiz-adv-x="797" 
d="M231 317v167h-186v191h186v179h-202v201h202v211l275 88v-299h244v-201h-244v-179h220v-191h-220v-122q0 -174 129 -174q80 0 125 29l8 -217q-86 -25 -203 -25q-159 0 -246.5 92t-87.5 250z" />
    <glyph glyph-name="Utilde" unicode="&#x168;" horiz-adv-x="1479" 
d="M156 516v914h286v-826q0 -403 297 -403t297 403v826h287v-914q0 -541 -584 -541q-583 0 -583 541zM498 1589h-111q0 96 59 170q62 78 150 78q59 0 166 -41q117 -45 149 -45q91 0 91 100h110q0 -107 -52 -175q-54 -73 -146 -73q-83 0 -177 37q-99 39 -139 39
q-49 0 -77 -30q-23 -26 -23 -60z" />
    <glyph glyph-name="utilde" unicode="&#x169;" horiz-adv-x="1251" 
d="M1110 1055v-1055h-260v143h-4q-138 -168 -346 -168q-180 0 -273 118q-86 108 -86 296v666h275v-563q0 -139 23 -200q39 -104 155 -104q133 0 195 125q47 92 47 226v516h274zM398 1235h-111q0 96 59 170q62 78 150 78q59 0 166 -41q117 -45 149 -45q91 0 91 100h110
q0 -107 -52 -175q-54 -73 -146 -73q-83 0 -177 37q-99 39 -139 39q-49 0 -77 -30q-23 -26 -23 -60z" />
    <glyph glyph-name="Umacron" unicode="&#x16a;" horiz-adv-x="1479" 
d="M156 516v914h286v-826q0 -403 297 -403t297 403v826h287v-914q0 -541 -584 -541q-583 0 -583 541zM1035 1620h-590v164h590v-164z" />
    <glyph glyph-name="umacron" unicode="&#x16b;" horiz-adv-x="1251" 
d="M1110 1055v-1055h-260v143h-4q-138 -168 -346 -168q-180 0 -273 118q-86 108 -86 296v666h275v-563q0 -139 23 -200q39 -104 155 -104q133 0 195 125q47 92 47 226v516h274zM915 1266h-590v164h590v-164z" />
    <glyph glyph-name="Ubreve" unicode="&#x16c;" horiz-adv-x="1479" 
d="M156 516v914h286v-826q0 -403 297 -403t297 403v826h287v-914q0 -541 -584 -541q-583 0 -583 541zM406 1849h127q35 -164 205 -164t209 164h126q-9 -138 -103 -224.5t-232 -86.5t-232 87t-100 224z" />
    <glyph glyph-name="ubreve" unicode="&#x16d;" horiz-adv-x="1251" 
d="M1110 1055v-1055h-260v143h-4q-138 -168 -346 -168q-180 0 -273 118q-86 108 -86 296v666h275v-563q0 -139 23 -200q39 -104 155 -104q133 0 195 125q47 92 47 226v516h274zM287 1495h127q35 -164 205 -164t209 164h126q-9 -138 -103 -224.5t-232 -86.5t-232 87t-100 224
z" />
    <glyph glyph-name="Uring" unicode="&#x16e;" horiz-adv-x="1479" 
d="M156 516v914h286v-826q0 -403 297 -403t297 403v826h287v-914q0 -541 -584 -541q-583 0 -583 541zM523 1695q0 89 65 154t154 65q90 0 153.5 -64.5t63.5 -154.5q0 -91 -63.5 -154t-153.5 -63t-154.5 63.5t-64.5 153.5zM633 1695q0 -44 31.5 -75t77.5 -31q44 0 75 31
t31 75q0 46 -31 77t-75 31q-46 0 -77.5 -31t-31.5 -77z" />
    <glyph glyph-name="uring" unicode="&#x16f;" horiz-adv-x="1251" 
d="M1110 1055v-1055h-260v143h-4q-138 -168 -346 -168q-180 0 -273 118q-86 108 -86 296v666h275v-563q0 -139 23 -200q39 -104 155 -104q133 0 195 125q47 92 47 226v516h274zM403 1403q0 89 65 154t154 65q90 0 153.5 -64.5t63.5 -154.5q0 -91 -63.5 -154t-153.5 -63
t-154.5 63.5t-64.5 153.5zM513 1403q0 -44 31.5 -75t77.5 -31q44 0 75 31t31 75q0 46 -31 77t-75 31q-46 0 -77.5 -31t-31.5 -77z" />
    <glyph glyph-name="Uhungarumlaut" unicode="&#x170;" horiz-adv-x="1479" 
d="M156 516v914h286v-826q0 -403 297 -403t297 403v826h287v-914q0 -541 -584 -541q-583 0 -583 541zM409 1550l170 299h280l-280 -299h-170zM812 1552l170 299h281l-281 -299h-170z" />
    <glyph glyph-name="uhungarumlaut" unicode="&#x171;" horiz-adv-x="1251" 
d="M1110 1055v-1055h-260v143h-4q-138 -168 -346 -168q-180 0 -273 118q-86 108 -86 296v666h275v-563q0 -139 23 -200q39 -104 155 -104q133 0 195 125q47 92 47 226v516h274zM302 1196l170 299h280l-280 -299h-170zM705 1198l170 299h281l-281 -299h-170z" />
    <glyph glyph-name="Uogonek" unicode="&#x172;" horiz-adv-x="1479" 
d="M442 1430v-826q0 -403 297 -403t297 403v826h287v-914q0 -365 -264 -481q-110 -48 -154 -92q-88 -88 -88 -181q0 -92 84 -92q64 0 115 68l82 -17q-40 -84 -95 -121q-60 -40 -161 -40q-201 0 -201 184q0 126 188 238q-21 -3 -44 -5t-46 -2q-583 0 -583 541v914h286z" />
    <glyph glyph-name="uogonek" unicode="&#x173;" horiz-adv-x="1251" 
d="M1110 1055v-1055h-113q-168 -129 -168 -250q0 -92 84 -92q64 0 115 68l82 -17q-40 -85 -95 -121q-60 -41 -161 -41q-201 0 -201 185q0 137 242 268h-45v143h-4q-138 -168 -346 -168q-180 0 -273 118q-86 108 -86 296v666h275v-563q0 -139 23 -200q39 -104 155 -104
q133 0 195 125q47 92 47 226v516h274z" />
    <glyph glyph-name="Wcircumflex" unicode="&#x174;" horiz-adv-x="2048" 
d="M399 0l-379 1430h302l266 -1143h4l244 1143h389l252 -1143h4l268 1143h279l-373 -1430h-369l-258 1143h-4l-254 -1143h-371zM923 1851h207l215 -299h-182l-139 176l-144 -176h-182z" />
    <glyph glyph-name="wcircumflex" unicode="&#x175;" horiz-adv-x="1821" 
d="M379 0l-356 1055h290l234 -781h4l213 781h319l230 -781h4l219 781h262l-323 -1055h-324l-229 805h-4l-226 -805h-313zM810 1497h207l215 -299h-182l-139 176l-144 -176h-182z" />
    <glyph glyph-name="Ycircumflex" unicode="&#x176;" horiz-adv-x="1366" 
d="M545 0v565l-522 865h335l338 -601l344 601h303l-512 -865v-565h-286zM582 1851h207l215 -299h-182l-139 176l-144 -176h-182z" />
    <glyph glyph-name="ycircumflex" unicode="&#x177;" 
d="M326 1055l254 -770h4l254 770h278l-395 -1047q-94 -249 -145 -319q-104 -144 -293 -144q-96 0 -195 29l18 203q53 -19 142 -19q82 0 130 51.5t48 137.5l-403 1108h303zM471 1497h207l215 -299h-182l-139 176l-144 -176h-182z" />
    <glyph glyph-name="Zacute" unicode="&#x179;" 
d="M74 0v233l671 971h-645v226h951v-234l-678 -971h692v-225h-991zM471 1552l170 299h281l-281 -299h-170z" />
    <glyph glyph-name="zacute" unicode="&#x17a;" horiz-adv-x="1024" 
d="M96 842v213h836v-226l-524 -616h542v-213h-876v223l534 619h-512zM424 1198l170 299h281l-281 -299h-170z" />
    <glyph glyph-name="Zdotaccent" unicode="&#x17b;" 
d="M74 0v233l671 971h-645v226h951v-234l-678 -971h692v-225h-991zM715 1601h-237v238h237v-238z" />
    <glyph glyph-name="zdotaccent" unicode="&#x17c;" horiz-adv-x="1024" 
d="M96 842v213h836v-226l-524 -616h542v-213h-876v223l534 619h-512zM648 1247h-237v238h237v-238z" />
    <glyph glyph-name="longs" unicode="&#x17f;" horiz-adv-x="797" 
d="M242 0v854h-203v201h203v147q0 160 87 259q95 109 249 100l102 -7q33 -3 98 -16l-22 -227q-27 16 -62 26l-57 11q-121 0 -121 -162v-1186h-274z" />
    <glyph glyph-name="glyph387" horiz-adv-x="569" 
d="M164 -297v207h237v-158q0 -239 -245 -239v84q122 0 131 106h-123z" />
    <glyph glyph-name="uni0259" unicode="&#x259;" 
d="M1063 532q0 -243 -121 -393q-131 -164 -369 -164q-280 0 -401 188q-100 154 -100 449h729q0 128 -89 200q-81 67 -212 67q-159 0 -350 -107v223q151 84 362 84q261 0 406 -143t145 -404zM801 424h-467q0 -111 55 -177q59 -71 168 -71q221 0 244 248z" />
    <glyph glyph-name="uni01F4" unicode="&#x1f4;" horiz-adv-x="1479" 
d="M1300 1395l-18 -242q-164 76 -369 76q-243 0 -384 -149q-134 -142 -134 -369q0 -224 129 -364q133 -146 357 -146q106 0 188 20v373h-303v225h577v-770q-272 -74 -462 -74q-360 0 -566 177q-219 187 -219 538q0 364 210 566q207 198 575 198q222 0 419 -59zM671 1552
l170 299h281l-281 -299h-170z" />
    <glyph glyph-name="uni01F5" unicode="&#x1f5;" horiz-adv-x="1251" 
d="M594 213q122 0 185 97q57 86 57 229q0 144 -55 231q-61 96 -175 96q-128 0 -193 -106q-53 -88 -53 -228q0 -121 58 -213q66 -106 176 -106zM848 1055h262v-953q0 -557 -557 -557q-195 0 -365 72l23 233q172 -92 307 -92q201 0 273 137q45 86 45 273h-5q-40 -72 -125 -118
q-92 -50 -202 -50q-220 0 -332 160q-98 140 -98 372q0 217 105 369q122 178 341 178q218 0 324 -168h4v144zM491 1198l170 299h281l-281 -299h-170z" />
    <glyph glyph-name="AEacute" unicode="&#x1fc;" horiz-adv-x="1933" 
d="M1030 553l-47 664h-4l-354 -664h405zM18 0l783 1430h1022v-226h-555l28 -352h482v-225h-457l33 -402h477v-225h-756l-24 328h-549l-176 -328h-308zM1134 1552l170 299h281l-281 -299h-170z" />
    <glyph glyph-name="aeacute" unicode="&#x1fd;" horiz-adv-x="1821" 
d="M1022 631h463q0 105 -51 172q-57 76 -164 76q-117 0 -185 -73q-63 -68 -63 -175zM1675 283v-224q-152 -84 -362 -84q-309 0 -443 191q-57 -94 -170 -145q-104 -47 -223 -46q-170 2 -277 72q-126 82 -126 242q0 198 173 290q136 72 355 72h158q0 117 -53 171
q-57 59 -191 59q-171 0 -326 -117l-8 235q173 80 375 80q123 0 194 -23q91 -29 164 -110q127 133 361 133q471 0 471 -637h-725q0 -124 89 -197q83 -69 214 -69q160 0 350 107zM336 289q0 -48 42 -80.5t114 -32.5q144 0 207 77q61 74 61 234h-119q-305 0 -305 -198z
M803 1198l170 299h281l-281 -299h-170z" />
    <glyph glyph-name="Oslashacute" unicode="&#x1fe;" horiz-adv-x="1593" 
d="M467 397l575 742q-100 90 -245 90q-199 0 -308 -161q-94 -139 -94 -349q0 -190 72 -322zM1118 1042l-577 -743q98 -98 256 -98q204 0 310 162q91 139 91 356q0 193 -80 323zM1313 1489l92 -76l-111 -143q203 -200 203 -551q0 -333 -180 -534q-189 -210 -520 -210
q-251 0 -418 117l-117 -151l-92 73l121 156q-195 191 -195 549q0 336 180 532q186 203 521 203q236 0 405 -108zM629 1552l170 299h281l-281 -299h-170z" />
    <glyph glyph-name="oslashacute" unicode="&#x1ff;" horiz-adv-x="1251" 
d="M397 344l389 467q-65 55 -161 55q-126 0 -199 -97q-66 -88 -66 -216q0 -124 37 -209zM854 725l-395 -475q64 -62 166 -62q266 0 266 365q0 95 -37 172zM1051 1126l82 -67l-111 -133q156 -153 156 -406q0 -235 -146 -386q-152 -159 -407 -159q-182 0 -322 88l-113 -135
l-84 68l115 137q-147 148 -147 387q0 256 158 410q153 149 393 149q178 0 315 -86zM501 1198l170 299h281l-281 -299h-170z" />
    <glyph glyph-name="Scommaaccent" unicode="&#x218;" 
d="M961 1403l-27 -236q-142 62 -291 62q-90 0 -149 -41q-76 -52 -76 -158q0 -97 162 -165q261 -109 302 -138q162 -113 162 -319q0 -222 -160 -334q-140 -99 -376 -99q-142 0 -367 56l27 258q163 -88 324 -88q94 0 167 43q86 52 86 141q0 108 -162 180q-280 124 -302 139
q-162 111 -162 314q0 223 155 338q133 98 344 98q189 0 343 -51zM449 -297v207h237v-158q0 -239 -245 -239v84q122 0 131 106h-123z" />
    <glyph glyph-name="scommaaccent" unicode="&#x219;" horiz-adv-x="909" 
d="M786 1040l-18 -206q-132 45 -246 45q-162 0 -162 -117q0 -64 124 -105q183 -60 230 -91q124 -82 124 -247q0 -172 -138 -264q-119 -80 -305 -80q-141 0 -311 45l16 226q140 -70 271 -70q67 0 116 26q64 34 64 103q0 82 -124 123q-204 69 -230 85q-123 75 -123 239
q0 160 126 249q112 78 287 78q118 0 299 -39zM334 -297v207h237v-158q0 -239 -245 -239v84q122 0 131 106h-123z" />
    <glyph glyph-name="afii61664" unicode="&#x200c;" horiz-adv-x="0" 
d="M39 -244h-81v1543h81v-1543z" />
    <glyph glyph-name="afii301" unicode="&#x200d;" horiz-adv-x="0" 
d="M197 1466l-155 -155l148 -149l-44 -44l-107 107v-1469h-81v1471l-109 -109l-45 44l149 149l-156 155l45 45l155 -156l155 156z" />
    <glyph glyph-name="afii299" unicode="&#x200e;" horiz-adv-x="0" 
d="M452 1266l-204 -205l-45 45l128 127h-292v-1477h-81v1543h373l-129 146l45 45l204 -215l-4 -4z" />
    <glyph glyph-name="afii300" unicode="&#x200f;" horiz-adv-x="0" 
d="M42 -244h-81v1477h-292l128 -127l-45 -45l-204 205l5 5l-4 4l204 215l45 -45l-129 -142l373 -4v-1543z" />
    <glyph glyph-name="Ifraktur" unicode="&#x2111;" horiz-adv-x="1154" 
d="M1072 1236q-38 -27 -103 -107q-97 -118 -97 -202q0 -79 63.5 -246t63.5 -254q0 -169 -142 -308q-147 -144 -330 -132q-58 4 -136 65.5t-136 61.5q-31 0 -91 -37q-43 -27 -61 -43l-25 21q133 182 212 182q50 0 167 -84t181 -84q102 0 156 105q44 86 44 207q0 74 -43.5 201
t-43.5 213q0 182 156 338q-140 -92 -231 -92q-50 0 -155.5 55.5t-161.5 55.5q-91 0 -91 -114q0 -57 68.5 -140.5t68.5 -156.5q0 -92 -176 -194l-32 40q102 50 102 110q0 55 -71 143.5t-71 147.5q0 49 104 155q92 94 140 119q135 -64 190 -84q83 -29 161 -29q77 0 193 55
q52 29 105 58z" />
    <glyph glyph-name="weierstrass" unicode="&#x2118;" horiz-adv-x="1157" 
d="M1062 567q0 -185 -113 -374q-130 -215 -304 -215q-50 0 -85 28.5t-35 77.5q0 79 75 79q72 0 72 -74q0 -21 -15 -47q23 -18 27 -18q99 0 175 208q62 171 62 293q0 141 -107 141q-188 0 -448 -357l11 -33l29 -72q57 -140 57 -247q0 -121 -64 -216q-73 -106 -189 -106
q-147 0 -147 170q0 160 193 427l-10 26q-66 160 -66 258q0 219 294 360l17 -24q-191 -109 -191 -289q0 -65 42 -187l8 -24q331 431 545 431q86 0 130 -68q37 -57 37 -148zM353 -109q0 93 -68 267l-12 31q-164 -236 -164 -375q0 -135 102 -135q69 0 109 75q33 61 33 137z" />
    <glyph glyph-name="Rfraktur" unicode="&#x211c;" horiz-adv-x="1573" 
d="M1505 193q-185 -151 -254 -236q-75 66 -182 306l-31 70q-29 67 -95 193q-63 11 -113 11q-56 0 -136 -12q-82 -247 -224 -405q47 5 82 5q110 0 194 -27q-66 -52 -98 -141q-100 31 -236 31q-85 0 -200 -31l66 133q121 23 179 110q114 170 114 471q0 215 -65.5 351
t-167.5 136q-42 0 -68 -30t-26 -72q0 -57 58 -114l46 -46l36 -35q37 -36 37 -83q0 -66 -129 -204l-40 36q44 49 44 90q0 48 -56 95l-54 45q-85 72 -85 161q139 198 342 277q199 -27 276 -250q109 153 304 250q64 -37 104 -148l31 -88q23 -67 77 -82v-57q-130 -76 -327 -219
q-11 -8 -85 -61q148 34 255 34q33 -45 93 -178l42 -92q75 -167 133 -239q58 31 124 82zM1068 890q-49 51 -72 115l-13 34q-17 47 -45 84q-110 -45 -202 -157q15 -96 15 -165q0 -82 -34 -196q59 57 159 136l89 70q23 18 70 54z" />
    <glyph glyph-name="aleph" unicode="&#x2135;" horiz-adv-x="1385" 
d="M1224 1141q-51 -343 -314 -621q192 -183 282 -390l-124 -155h-64v29q0 147 -135 307q-78 94 -252 237l-63 52l-48 44l-79 70q-8 7 -51 49q-74 -145 -74 -315q0 -126 39 -251h178l-60 -197h-341l63 197q-12 81 -12 126q0 239 164 486q-102 120 -152 242l127 158h57
q-5 -34 -5 -51q0 -164 312 -426l102 -86l64 -58q8 -7 29 -26q132 183 146 425h-164l-37 43l72 228h64v-74h241z" />
    <glyph glyph-name="arrowleft" unicode="&#x2190;" horiz-adv-x="2048" 
d="M1920 466h-1554l198 -260v-50l-435 344v32l435 344v-50l-198 -260h1554v-100z" />
    <glyph glyph-name="arrowup" unicode="&#x2191;" horiz-adv-x="2048" 
d="M1393 798h-50l-260 198v-1423h-100v1423l-260 -198h-50l344 435h32z" />
    <glyph glyph-name="arrowright" unicode="&#x2192;" horiz-adv-x="2048" 
d="M1982 500l-435 -344v50l198 260h-1653v100h1653l-198 260v50l435 -344v-32z" />
    <glyph glyph-name="arrowdown" unicode="&#x2193;" horiz-adv-x="2048" 
d="M1393 63l-344 -435h-32l-344 435h50l260 -198v1518h100v-1518l260 198h50z" />
    <glyph glyph-name="arrowboth" unicode="&#x2194;" horiz-adv-x="2048" 
d="M1920 501l-435 -345v50l198 260h-1317l198 -260v-50l-435 344v32l435 344v-50l-198 -260h1317l-198 260v50l435 -337v-38z" />
    <glyph glyph-name="carriagereturn" unicode="&#x21b5;" horiz-adv-x="1924" 
d="M1702 197h-1280l198 -260v-50l-435 344v32l435 344v-50l-198 -260h1182v1183h98v-1283z" />
    <glyph glyph-name="arrowdblleft" unicode="&#x21d0;" horiz-adv-x="1635" 
d="M189 503l525 -420l52 66l-181 144h862v84h-966l-158 126l158 126h966v84h-862l181 145l-52 65z" />
    <glyph glyph-name="arrowdblup" unicode="&#x21d1;" horiz-adv-x="1343" 
d="M1091 734l-65 -53l-145 181v-862h-84v966l-126 159l-125 -159v-966h-84v862l-145 -181l-65 53l419 524z" />
    <glyph glyph-name="arrowdblright" unicode="&#x21d2;" horiz-adv-x="1635" 
d="M1447 503l-525 -420l-52 66l181 144h-862v84h966l158 126l-158 126h-966v84h862l-181 145l52 65z" />
    <glyph glyph-name="arrowdbldown" unicode="&#x21d3;" horiz-adv-x="1343" 
d="M1090 524l-419 -524l-419 524l65 53l145 -180v861h84v-966l125 -158l125 158v966h84v-861l145 180z" />
    <glyph glyph-name="arrowdblboth" unicode="&#x21d4;" horiz-adv-x="2097" 
d="M1908 503l-524 -420l-53 66l181 144h-926l180 -144l-53 -66l-524 420l524 420l53 -65l-180 -145h926l-181 145l53 65zM1774 503l-157 126h-1137l-157 -126l157 -126h1137z" />
    <glyph glyph-name="universal" unicode="&#x2200;" horiz-adv-x="1557" 
d="M1377 1325l-524 -1325h-150l-523 1325h116l142 -363h679l143 363h117zM1083 874h-610l306 -767z" />
    <glyph glyph-name="existential" unicode="&#x2203;" horiz-adv-x="1348" 
d="M1078 0h-808v102h700v516h-678v102h678v502h-700v103h808v-1325z" />
    <glyph glyph-name="emptyset" unicode="&#x2205;" horiz-adv-x="1876" 
d="M1626 660q0 -286 -201 -485.5t-487 -199.5q-255 0 -452 167l-139 -136l-65 65l139 137q-171 200 -171 453q0 285 201 484.5t486 199.5q251 0 454 -169l138 137l65 -65l-139 -138q171 -200 171 -450zM1534 660q0 213 -143 385l-841 -836q170 -142 388 -142q248 0 422 173
t174 420zM1325 1110q-175 143 -387 143q-248 0 -422 -172t-174 -420q0 -217 144 -388z" />
    <glyph glyph-name="gradient" unicode="&#x2207;" horiz-adv-x="1363" 
d="M1293 1333l-609 -1345l-554 1345h1163zM1172 1254h-827l394 -951z" />
    <glyph glyph-name="element" unicode="&#x2208;" horiz-adv-x="1628" 
d="M1406 0h-592q-248 0 -420 172t-172 420q0 247 172.5 419.5t419.5 172.5h592v-99h-592q-189 0 -332.5 -128t-158.5 -315h1083v-99h-1083q14 -188 158 -316t333 -128h592v-99z" />
    <glyph glyph-name="notelement" unicode="&#x2209;" horiz-adv-x="1628" 
d="M1406 0h-592l-74 -222h-104l77 231q-214 37 -352.5 201.5t-138.5 381.5q0 247 172.5 419.5t419.5 172.5h291l74 223h104l-74 -223h197v-99h-230l-148 -443h378v-99h-411l-148 -444h559v-99zM1072 1085h-258q-189 0 -332.5 -128t-158.5 -315h601zM891 543h-568
q13 -170 134 -293q117 -119 288 -147z" />
    <glyph glyph-name="suchthat" unicode="&#x220b;" horiz-adv-x="1628" 
d="M1406 592q0 -248 -172 -420t-420 -172h-592v99h592q189 0 333 128t158 316h-1083v99h1083q-14 188 -158 315.5t-333 127.5h-592v99h592q248 0 420 -172t172 -420z" />
    <glyph glyph-name="asteriskmath" unicode="&#x2217;" horiz-adv-x="868" 
d="M758 268l-39 -66l-250 143v-284h-80v284l-230 -143l-42 66l238 144l-245 133l40 73l239 -129v268h80v-273l239 134l38 -73l-229 -133z" />
    <glyph glyph-name="proportional" unicode="&#x221d;" horiz-adv-x="1098" 
d="M1058 246q-35 5 -101 29t-90 40q-41 27 -86 90q-49 69 -64 130q-113 -233 -324 -233q-154 0 -250 109q-93 105 -93 260q0 145 79 250q87 116 228 116q105 0 179 -68q56 -50 114 -161q60 145 158 223q112 89 250 89v-88q-63 -10 -144 -83q-65 -59 -168 -344
q55 -154 152.5 -217.5t159.5 -63.5v-78zM621 731q-90 215 -267 215q-114 0 -183 -82q-66 -77 -66 -193q0 -110 58 -195q66 -96 172 -96q116 0 193 125q43 69 93 226z" />
    <glyph glyph-name="angle" unicode="&#x2220;" horiz-adv-x="1628" 
d="M1406 0h-1184l1184 1184v-139l-944 -946h944v-99z" />
    <glyph glyph-name="logicaland" unicode="&#x2227;" horiz-adv-x="1628" 
d="M1406 0h-110l-483 962l-481 -962h-110l592 1184z" />
    <glyph glyph-name="logicalor" unicode="&#x2228;" horiz-adv-x="1628" 
d="M1406 1184l-592 -1184l-592 1184h110l483 -962l481 962h110z" />
    <glyph glyph-name="intersection" unicode="&#x2229;" horiz-adv-x="1628" 
d="M1390 0h-99v592q0 206 -143.5 349.5t-349.5 143.5q-205 0 -349 -144t-144 -349v-592h-99v592q0 248 172 420t420 172q247 0 419.5 -172.5t172.5 -419.5v-592z" />
    <glyph glyph-name="union" unicode="&#x222a;" horiz-adv-x="1628" 
d="M1406 592q0 -247 -172.5 -419.5t-419.5 -172.5q-248 0 -420 172t-172 420v592h99v-592q0 -205 144 -349t349 -144q206 0 349.5 143.5t143.5 349.5v592h99v-592z" />
    <glyph glyph-name="therefore" unicode="&#x2234;" horiz-adv-x="1501" 
d="M851 923q0 -42 -29.5 -71.5t-71.5 -29.5t-71 29.5t-29 71.5q0 41 29.5 70.5t70.5 29.5q42 0 71.5 -29t29.5 -71zM1301 96q0 -42 -29.5 -71.5t-71.5 -29.5t-71 29.5t-29 71.5q0 41 29.5 70.5t70.5 29.5q42 0 71.5 -29t29.5 -71zM401 93q0 -42 -29.5 -71.5t-71.5 -29.5
t-71 29.5t-29 71.5q0 41 29.5 70.5t70.5 29.5q42 0 71.5 -29t29.5 -71z" />
    <glyph glyph-name="congruent" unicode="&#x2245;" horiz-adv-x="1365" 
d="M1222 1206q-2 -122 -67 -202q-71 -88 -189 -88q-67 0 -190 46q-91 38 -181 75q-153 63 -220 63q-150 0 -186 -184h-47q3 119 63 200q68 90 182 90q95 0 380 -120q152 -64 222 -64q80 0 131 53q48 50 55 131h47zM1222 622h-1080v108h1080v-108zM1222 237h-1080v108h1080
v-108z" />
    <glyph glyph-name="equivalence" unicode="&#x2261;" horiz-adv-x="1365" 
d="M1222 1002h-1080v108h1080v-108zM1222 622h-1080v108h1080v-108zM1222 237h-1080v108h1080v-108z" />
    <glyph glyph-name="propersubset" unicode="&#x2282;" horiz-adv-x="1628" 
d="M1406 0h-592q-248 0 -420 172t-172 420q0 247 172.5 419.5t419.5 172.5h592v-99h-592q-206 0 -349.5 -143.5t-143.5 -349.5q0 -204 144.5 -348.5t348.5 -144.5h592v-99z" />
    <glyph glyph-name="propersuperset" unicode="&#x2283;" horiz-adv-x="1628" 
d="M1406 592q0 -248 -172 -420t-420 -172h-592v99h592q206 0 350 143.5t144 349.5q0 207 -143.5 350t-350.5 143h-592v99h592q248 0 420 -172t172 -420z" />
    <glyph glyph-name="notsubset" unicode="&#x2284;" horiz-adv-x="1628" 
d="M1406 0h-592l-74 -222h-104l77 231q-215 39 -353 202t-138 381q0 247 172.5 419.5t419.5 172.5h291l74 223h104l-74 -223h197v-99h-230l-329 -986h559v-99zM1072 1085h-258q-206 0 -349.5 -143.5t-143.5 -349.5q0 -186 119.5 -322t304.5 -167z" />
    <glyph glyph-name="reflexsubset" unicode="&#x2286;" horiz-adv-x="1628" 
d="M1406 345h-765q-175 0 -297 122.5t-122 297.5t122 297t297 122h765v-99h-765q-133 0 -226.5 -93.5t-93.5 -226.5t93.5 -227t226.5 -94h765v-99zM1406 0h-1184v99h1184v-99z" />
    <glyph glyph-name="reflexsuperset" unicode="&#x2287;" horiz-adv-x="1628" 
d="M1406 765q0 -176 -121.5 -298t-297.5 -122h-765v99h765q134 0 227.5 93.5t93.5 227.5t-93.5 227.5t-227.5 93.5h-765v98h765q176 0 297.5 -121.5t121.5 -297.5zM1406 0h-1184v99h1184v-99z" />
    <glyph glyph-name="circleplus" unicode="&#x2295;" horiz-adv-x="1628" 
d="M1431 592q0 -257 -180 -437t-437 -180t-437 180t-180 437t180 437.5t437 180.5t437 -180.5t180 -437.5zM1330 642q-19 187 -149 318t-317 149l-1 -467h467zM765 642v467q-188 -18 -318 -148.5t-148 -318.5h466zM1330 543h-467l1 -467q187 19 317 149.5t149 317.5zM765 76
v467h-467q19 -188 149 -318t318 -149z" />
    <glyph glyph-name="circlemultiply" unicode="&#x2297;" horiz-adv-x="1628" 
d="M1431 592q0 -259 -180.5 -438t-439.5 -179q-254 0 -434 180t-180 434q0 259 179 439.5t438 180.5t438 -179t179 -438zM1144 991q-143 119 -331 119q-183 0 -328 -119l329 -329zM1332 592q0 185 -118 330l-330 -330l330 -329q118 144 118 329zM1144 192l-330 331
l-330 -331q145 -118 330 -118q186 0 330 118zM744 592l-330 330q-118 -145 -118 -329q0 -186 118 -331z" />
    <glyph glyph-name="perpendicular" unicode="&#x22a5;" horiz-adv-x="1628" 
d="M1406 0h-1184v99h543v1085h99v-1085h542v-99z" />
    <glyph glyph-name="dotmath" unicode="&#x22c5;" horiz-adv-x="391" 
d="M296 667q0 -41 -30 -71t-71 -30t-70.5 30t-29.5 71t29.5 70.5t70.5 29.5q43 0 72 -28.5t29 -71.5z" />
    <glyph glyph-name="uni2308" unicode="&#x2308;" horiz-adv-x="1086" 
d="M888 1237h-363v-1533h-130v1646h493v-113z" />
    <glyph glyph-name="uni2309" unicode="&#x2309;" horiz-adv-x="1086" 
d="M888 -296h-130v1533h-363v113h493v-1646z" />
    <glyph glyph-name="uni230A" unicode="&#x230a;" horiz-adv-x="1086" 
d="M888 -350h-493v1646h130v-1533h363v-113z" />
    <glyph glyph-name="uni230B" unicode="&#x230b;" horiz-adv-x="1086" 
d="M888 -350h-493v113h363v1533h130v-1646z" />
    <glyph glyph-name="angleleft" unicode="&#x2329;" horiz-adv-x="710" 
d="M650 -124h-100l-440 730l440 730h100l-430 -730z" />
    <glyph glyph-name="angleright" unicode="&#x232a;" horiz-adv-x="710" 
d="M600 606l-440 -730h-100l430 730l-430 731l100 -1z" />
    <glyph glyph-name="spade" unicode="&#x2660;" horiz-adv-x="1088" 
d="M1030 498q0 -93 -62.5 -158t-155.5 -65q-81 0 -154 57q-54 43 -101 133q2 -275 158 -369q83 -50 219 -59l7 -37h-792l7 37q196 0 295 118q92 110 88 310q-90 -190 -261 -190q-90 0 -155 64.5t-65 154.5q0 153 179 299q99 81 149 137q126 142 159 301q30 -126 102 -224
q52 -71 171 -179q103 -94 142 -145q70 -92 70 -185z" />
    <glyph glyph-name="club" unicode="&#x2663;" horiz-adv-x="1344" 
d="M1288 557q0 -117 -78.5 -200t-195.5 -83q-137 0 -245 112q-34 35 -87 125q7 -287 185 -405q62 -41 223 -72l8 -34h-848l8 34q165 35 219 69q86 54 136 157q48 98 48 204q0 16 -1 47q-117 -238 -327 -238q-118 0 -198 81t-80 199q0 107 67 188q71 87 175 87q60 0 163 -51
q-67 110 -67 182q0 118 79.5 195t197.5 77q116 0 197 -76.5t81 -191.5q0 -88 -69 -186q84 40 101 45q27 8 61 8q108 0 179 -84q68 -79 68 -189z" />
    <glyph glyph-name="heart" unicode="&#x2665;" horiz-adv-x="1216" 
d="M1153 981q0 -114 -69 -239q-42 -77 -145 -206q-164 -207 -239 -340q-59 -105 -90 -220q-37 141 -127 286q-49 78 -184 257q-119 158 -149 203q-87 133 -87 247q0 111 73.5 186t184.5 75q109 0 190 -78q61 -59 99 -173q72 252 283 252q107 0 183.5 -72t76.5 -178z" />
    <glyph glyph-name="diamond" unicode="&#x2666;" horiz-adv-x="1045" 
d="M982 604q-75 -79 -242 -302q-135 -180 -218 -326q-58 112 -275 400q-31 41 -183 228q101 115 260 328q118 158 197 299q89 -150 219 -324q151 -201 242 -303z" />
    <glyph glyph-name="uni0374" unicode="&#x374;" horiz-adv-x="643" 
d="M629 1481l-326 -625h-219l211 625h334z" />
    <glyph glyph-name="uni0375" unicode="&#x375;" horiz-adv-x="643" 
d="M629 623l-320 -623h-219l205 623h334z" />
    <glyph glyph-name="uni037A" unicode="&#x37a;" horiz-adv-x="1214" 
d="M864 -356q-111 -60 -200 -60q-112 0 -154 69q-33 54 -33 175v66h250v-33q0 -43 23 -49q16 -5 33 0q18 4 81 36v-204z" />
    <glyph glyph-name="uni037E" unicode="&#x37e;" horiz-adv-x="569" 
d="M47 -225l131 512h297l-186 -512h-242zM141 768v287h287v-287h-287z" />
    <glyph glyph-name="tonos" unicode="&#x384;" horiz-adv-x="301" 
d="M-104 1559l-33 -377h-236l-33 377h302z" />
    <glyph glyph-name="dieresistonos" unicode="&#x385;" horiz-adv-x="1272" 
d="M1051 1206h-228v234h228v-234zM836 1575l-191 -369h-156l84 369h263zM438 1206h-225v234h225v-234z" />
    <glyph glyph-name="Alphatonos" unicode="&#x386;" horiz-adv-x="1540" 
d="M1001 553l-206 590l-211 -590h417zM80 0l557 1430h324l561 -1430h-318l-123 328h-579l-125 -328h-297zM0 1130l170 300h281l-281 -300h-170z" />
    <glyph glyph-name="anoteleia" unicode="&#x387;" horiz-adv-x="569" 
d="M285 750q-72 0 -115 42.5t-43 114.5q0 70 44 114t114 44q72 0 114.5 -43t42.5 -115q0 -70 -43.5 -113.5t-113.5 -43.5z" />
    <glyph glyph-name="Epsilontonos" unicode="&#x388;" horiz-adv-x="1610" 
d="M637 0v1430h844v-226h-557v-352h510v-225h-510v-402h561v-225h-848zM0 1130l170 300h281l-281 -300h-170z" />
    <glyph glyph-name="Etatonos" unicode="&#x389;" horiz-adv-x="1950" 
d="M637 0v1430h287v-578h573v578h287v-1430h-287v627h-573v-627h-287zM0 1130l170 300h281l-281 -300h-170z" />
    <glyph glyph-name="Iotatonos" unicode="&#x38a;" horiz-adv-x="1040" 
d="M612 0v1430h287v-1430h-287zM0 1130l170 300h281l-281 -300h-170z" />
    <glyph glyph-name="Omicrontonos" unicode="&#x38c;" horiz-adv-x="1901" 
d="M403 719q0 339 179 534q185 201 522 201q330 0 518 -204q182 -198 182 -531q0 -336 -180 -536q-188 -208 -520 -208q-337 0 -522 206q-179 198 -179 538zM702 719q0 -218 90 -356q105 -162 312 -162q203 0 309 161q92 141 92 357q0 212 -92 350q-107 160 -309 160
q-199 0 -307 -160q-95 -139 -95 -350zM0 1130l170 300h281l-281 -300h-170z" />
    <glyph glyph-name="Upsilontonos" unicode="&#x38e;" horiz-adv-x="1898" 
d="M1077 0v565l-522 865h336l338 -601l344 601h303l-512 -865v-565h-287zM0 1130l170 300h281l-281 -300h-170z" />
    <glyph glyph-name="Omegatonos" unicode="&#x38f;" horiz-adv-x="1913" 
d="M1817 0h-596v238q290 161 290 526q0 465 -403 465t-403 -465q0 -364 290 -526v-238h-596v225h328q-324 199 -324 570q0 315 197 491q188 168 508 168q318 0 507 -169q197 -176 197 -490q0 -376 -322 -570h327v-225zM0 1130l170 300h281l-281 -300h-170z" />
    <glyph glyph-name="iotadieresistonos" unicode="&#x390;" horiz-adv-x="569" 
d="M147 0v1055h275v-1055h-275zM694 1247h-225v232h225v-232zM483 1616l-190 -369h-156l86 369h260zM86 1247h-227v232h227v-232z" />
    <glyph glyph-name="Alpha" unicode="&#x391;" horiz-adv-x="1479" 
d="M940 553l-207 590h-4l-207 -590h418zM18 0l557 1430h324l561 -1430h-317l-123 328h-580l-125 -328h-297z" />
    <glyph glyph-name="Beta" unicode="&#x392;" horiz-adv-x="1251" 
d="M453 639v-414h135q295 0 295 199q0 215 -295 215h-135zM453 1204v-352h116q271 0 271 174q0 111 -89 151q-60 27 -188 27h-110zM166 0v1430h500q184 0 299 -66q161 -92 161 -301q0 -126 -77.5 -211t-206.5 -109v-4q146 -14 236.5 -103.5t90.5 -221.5q0 -238 -184 -342
q-127 -72 -319 -72h-500z" />
    <glyph glyph-name="Gamma" unicode="&#x393;" horiz-adv-x="983" 
d="M166 0v1430h795v-226h-508v-1204h-287z" />
    <glyph glyph-name="Delta" unicode="&#x394;" horiz-adv-x="1479" 
d="M1063 225l-330 918l-336 -918h666zM18 0l557 1430h324l561 -1430h-1442z" />
    <glyph glyph-name="Epsilon" unicode="&#x395;" 
d="M166 0v1430h844v-226h-557v-352h510v-225h-510v-402h561v-225h-848z" />
    <glyph glyph-name="Zeta" unicode="&#x396;" 
d="M74 0v233l671 971h-645v226h951v-234l-678 -971h692v-225h-991z" />
    <glyph glyph-name="Eta" unicode="&#x397;" horiz-adv-x="1479" 
d="M166 0v1430h287v-578h573v578h287v-1430h-287v627h-573v-627h-287z" />
    <glyph glyph-name="Theta" unicode="&#x398;" horiz-adv-x="1593" 
d="M96 719q0 339 179 534q185 201 522 201q330 0 518 -204q182 -198 182 -531q0 -336 -180 -536q-188 -208 -520 -208q-337 0 -522 206q-179 198 -179 538zM395 719q0 -218 89 -356q106 -162 313 -162q203 0 309 161q92 141 92 357q0 212 -92 350q-107 160 -309 160
q-199 0 -308 -160q-94 -139 -94 -350zM1087 643h-585v186h585v-186z" />
    <glyph glyph-name="Iota" unicode="&#x399;" horiz-adv-x="569" 
d="M141 0v1430h287v-1430h-287z" />
    <glyph glyph-name="Kappa" unicode="&#x39a;" horiz-adv-x="1366" 
d="M166 0v1430h287v-615l516 615h352l-588 -674l613 -756h-375l-514 664h-4v-664h-287z" />
    <glyph glyph-name="Lambda" unicode="&#x39b;" horiz-adv-x="1479" 
d="M733 1143l-418 -1143h-297l557 1430h324l561 -1430h-317z" />
    <glyph glyph-name="Mu" unicode="&#x39c;" horiz-adv-x="1933" 
d="M166 0v1430h459l340 -1084h4l340 1084h458v-1430h-274v1180h-4l-385 -1180h-275l-385 1180l-4 -4v-1176h-274z" />
    <glyph glyph-name="Nu" unicode="&#x39d;" horiz-adv-x="1479" 
d="M152 0v1430h352l545 -1070h4v1070h274v-1430h-350l-547 1069h-4v-1069h-274z" />
    <glyph glyph-name="Xi" unicode="&#x39e;" horiz-adv-x="1278" 
d="M1178 1198h-1084v232h1084v-232zM1065 623h-862v225h862v-225zM1194 0h-1112v231h1112v-231z" />
    <glyph glyph-name="Omicron" unicode="&#x39f;" horiz-adv-x="1593" 
d="M96 719q0 336 180 532q186 203 521 203q330 0 518 -205q182 -199 182 -530q0 -333 -180 -534q-189 -210 -520 -210q-336 0 -523 208q-178 198 -178 536zM395 719q0 -217 91 -356q106 -162 311 -162q204 0 310 162q91 139 91 356q0 210 -94 349q-108 161 -307 161
t-308 -161q-94 -139 -94 -349z" />
    <glyph glyph-name="Pi" unicode="&#x3a0;" horiz-adv-x="1479" 
d="M166 0v1430h1147v-1430h-287v1204h-573v-1204h-287z" />
    <glyph glyph-name="Rho" unicode="&#x3a1;" 
d="M428 1204v-436h100q273 0 273 213q0 223 -273 223h-100zM141 0v1430h363q596 0 596 -433q0 -236 -160 -352q-142 -102 -391 -102h-121v-543h-287z" />
    <glyph glyph-name="Sigma" unicode="&#x3a3;" horiz-adv-x="1204" 
d="M1130 0h-1071v244l433 491l-414 451v244h1032v-228h-707l426 -467l-444 -512h743z" />
    <glyph glyph-name="Tau" unicode="&#x3a4;" 
d="M426 0v1204h-410v226h1106v-226h-409v-1204h-287z" />
    <glyph glyph-name="Upsilon" unicode="&#x3a5;" horiz-adv-x="1366" 
d="M545 0v565l-522 865h335l338 -601l344 601h303l-512 -865v-565h-286z" />
    <glyph glyph-name="Phi" unicode="&#x3a6;" horiz-adv-x="1677" 
d="M977 1430v-148q261 0 429 -151q175 -157 175 -414q0 -235 -189 -383q-174 -137 -415 -137v-197h-279v197q-242 0 -415 136q-187 148 -187 384q0 257 174 414q168 151 428 151v148h279zM977 1085v-690q146 0 230 101q79 94 79 243q0 317 -309 346zM698 395v690
q-307 -29 -307 -346q0 -149 78 -243q83 -101 229 -101z" />
    <glyph glyph-name="Chi" unicode="&#x3a7;" horiz-adv-x="1366" 
d="M20 0l469 743l-426 687h332l299 -510l305 510h308l-430 -687l469 -743h-338l-330 557l-334 -557h-324z" />
    <glyph glyph-name="Psi" unicode="&#x3a8;" horiz-adv-x="1806" 
d="M1651 821q0 -540 -604 -540v-281h-287v281q-604 0 -604 540v609h286v-521q0 -403 318 -403v924h287v-924q166 0 248 123q69 105 69 280v521h287v-609z" />
    <glyph glyph-name="Omega" unicode="&#x3a9;" horiz-adv-x="1606" 
d="M1509 0h-596v238q291 161 291 526q0 465 -403 465q-404 0 -404 -465q0 -364 291 -526v-238h-596v225h328q-324 199 -324 570q0 315 197 491q188 168 508 168q318 0 507 -169q197 -176 197 -490q0 -376 -323 -570h327v-225z" />
    <glyph glyph-name="Iotadieresis" unicode="&#x3aa;" horiz-adv-x="569" 
d="M141 0v1430h287v-1430h-287zM377 1808h237v-237h-237v237zM193 1571h-238v237h238v-237z" />
    <glyph glyph-name="Upsilondieresis" unicode="&#x3ab;" horiz-adv-x="1366" 
d="M545 0v565l-522 865h335l338 -601l344 601h303l-512 -865v-565h-286zM776 1808h238v-237h-238v237zM592 1571h-238v237h238v-237z" />
    <glyph glyph-name="alphatonos" unicode="&#x3ac;" horiz-adv-x="1251" 
d="M360 530q0 -135 48 -225q61 -117 184 -117q124 0 188 115q54 95 54 227t-56 224q-67 112 -190 112q-121 0 -180 -114q-48 -91 -48 -222zM844 0v119q-120 -144 -328 -144q-229 0 -344 170q-98 146 -98 385q0 241 98 383q114 166 344 166q195 0 315 -147l5 123h274v-1055
h-266zM516 1198l170 299h281l-281 -299h-170z" />
    <glyph glyph-name="epsilontonos" unicode="&#x3ad;" horiz-adv-x="1006" 
d="M936 41q-168 -66 -377 -66q-193 0 -316 60q-163 79 -163 252q0 99 68 175q66 73 165 95q-196 44 -196 229q0 151 140 230q114 63 278 63q224 0 393 -69l-25 -183q-144 74 -334 74q-174 0 -174 -127q0 -129 215 -129h162v-174h-174q-236 0 -236 -162q0 -78 67 -121
q57 -36 140 -36q161 0 359 84zM455 1198l170 299h280l-280 -299h-170z" />
    <glyph glyph-name="etatonos" unicode="&#x3ae;" horiz-adv-x="1251" 
d="M141 0v1055h260v-144q125 168 351 168q181 0 274 -119q84 -107 84 -294v-1096h-274v993q0 139 -23 199q-39 104 -156 104q-133 0 -194 -123q-47 -94 -47 -227v-516h-275zM475 1198l170 299h281l-281 -299h-170z" />
    <glyph glyph-name="iotatonos" unicode="&#x3af;" horiz-adv-x="569" 
d="M147 0v1055h275v-1055h-275zM168 1198l170 299h280l-280 -299h-170z" />
    <glyph glyph-name="upsilondieresistonos" unicode="&#x3b0;" horiz-adv-x="1251" 
d="M1110 444q0 -224 -129.5 -346.5t-355.5 -122.5q-228 0 -356 122t-128 347v611h275v-600q0 -269 209 -269q211 0 211 269v600h274v-611zM1038 1247h-225v232h225v-232zM827 1616l-190 -369h-156l86 369h260zM430 1247h-227v232h227v-232z" />
    <glyph glyph-name="alpha" unicode="&#x3b1;" horiz-adv-x="1251" 
d="M360 530q0 -135 48 -225q61 -117 184 -117q124 0 188 115q54 95 54 227t-56 224q-67 112 -190 112q-121 0 -180 -114q-48 -91 -48 -222zM844 0v119q-120 -144 -328 -144q-229 0 -344 170q-98 146 -98 385q0 241 98 383q114 166 344 166q195 0 315 -147l5 123h274v-1055
h-266z" />
    <glyph glyph-name="beta" unicode="&#x3b2;" horiz-adv-x="1255" 
d="M1182 451q0 -205 -118 -338q-122 -138 -325 -138q-220 0 -323 175v-580h-275v1415q0 576 500 576q184 0 309 -86q152 -105 152 -304q0 -253 -232 -327q140 -25 227 -139q85 -110 85 -254zM895 469q0 131 -70 196q-66 61 -190 64l-80 2v180h47q116 0 165 55q46 52 46 171
q0 211 -188 211q-209 0 -209 -361v-500q0 -115 64 -205q72 -100 184 -100q110 0 174 91q57 81 57 196z" />
    <glyph glyph-name="gamma" unicode="&#x3b3;" horiz-adv-x="1143" 
d="M1120 1055l-415 -1116v-369h-271v373l-409 1112h294l256 -826l267 826h278z" />
    <glyph glyph-name="delta" unicode="&#x3b4;" horiz-adv-x="1251" 
d="M713 889q-170 0 -261.5 -92t-91.5 -260q0 -349 269 -349q138 0 205 111q55 90 55 238q0 199 -129 311zM522 1059l-332 293v196h848v-192h-501q24 -11 129 -105q80 -73 241 -217q141 -122 204 -237q67 -121 67 -273q0 -248 -150.5 -398.5t-398.5 -150.5q-250 0 -402.5 150
t-152.5 399q0 204 112 359q129 176 336 176z" />
    <glyph glyph-name="epsilon" unicode="&#x3b5;" horiz-adv-x="1006" 
d="M936 41q-168 -66 -377 -66q-193 0 -316 60q-163 79 -163 252q0 99 68 175q66 73 165 95q-196 44 -196 229q0 151 140 230q114 63 278 63q224 0 393 -69l-25 -183q-144 74 -334 74q-174 0 -174 -127q0 -129 215 -129h162v-174h-174q-236 0 -236 -162q0 -78 67 -121
q57 -36 140 -36q161 0 359 84z" />
    <glyph glyph-name="zeta" unicode="&#x3b6;" horiz-adv-x="973" 
d="M1051 1378q-243 -128 -459 -397q-232 -288 -232 -502q0 -152 68.5 -221.5t220.5 -69.5q336 0 336 -280q0 -165 -115 -307l-206 32q106 99 106 228q0 131 -190 131q-506 0 -506 440q0 242 213 524q179 237 418 398h-539v192h885v-168z" />
    <glyph glyph-name="eta" unicode="&#x3b7;" horiz-adv-x="1251" 
d="M141 0v1055h260v-144q125 168 351 168q181 0 274 -119q84 -107 84 -294v-1096h-274v993q0 139 -23 199q-39 104 -156 104q-133 0 -194 -123q-47 -94 -47 -227v-516h-275z" />
    <glyph glyph-name="theta" unicode="&#x3b8;" horiz-adv-x="1180" 
d="M1106 770q0 -795 -516 -795q-283 0 -414 258q-102 203 -102 537q0 326 95 523q130 268 421 268q287 0 416 -258q100 -201 100 -533zM834 887q0 184 -54 309q-65 154 -190 154q-121 0 -184 -152q-54 -127 -54 -311h482zM838 711h-490q0 -523 242 -523q137 0 201 183
q47 135 47 340z" />
    <glyph glyph-name="iota" unicode="&#x3b9;" horiz-adv-x="569" 
d="M147 0v1055h275v-1055h-275z" />
    <glyph glyph-name="kappa" unicode="&#x3ba;" 
d="M147 0v1055h275v-434l332 434h323l-393 -484l442 -571h-348l-352 500v-500h-279z" />
    <glyph glyph-name="lambda" unicode="&#x3bb;" horiz-adv-x="1096" 
d="M1067 0h-274l-246 795l-234 -795h-297l404 1143l-123 403h256z" />
    <glyph glyph-name="mu" unicode="&#x3bc;" horiz-adv-x="1251" 
d="M1110 0h-260v180q-40 -91 -114 -146q-79 -59 -175 -59q-121 0 -162 74v-479h-258v1485h275v-529q0 -139 23 -207q39 -116 149 -116q248 0 248 385v467h274v-1055z" />
    <glyph glyph-name="nu" unicode="&#x3bd;" 
d="M416 0l-391 1055h294l263 -768l258 768h274l-389 -1055h-309z" />
    <glyph glyph-name="xi" unicode="&#x3be;" horiz-adv-x="1030" 
d="M1040 -154q-16 -122 -110 -245l-207 32q84 73 100 160q4 23 4 43q0 150 -184 150q-569 0 -569 450q0 158 116 283q112 120 271 149q-256 66 -256 265q0 82 63 145q56 56 142 76h-258v192h901v-192h-240q-344 0 -344 -211q0 -127 133 -173q81 -28 240 -28h133v-184h-268
q-134 0 -232 -70q-113 -80 -113 -217q0 -285 343 -285q148 0 239 -68q100 -76 100 -218v-27q-4 -18 -4 -27z" />
    <glyph glyph-name="omicron" unicode="&#x3bf;" horiz-adv-x="1251" 
d="M74 520q0 249 151 404t400 155t401 -154t152 -405q0 -244 -154 -394.5t-399 -150.5q-246 0 -398.5 150t-152.5 395zM360 553q0 -365 265 -365q266 0 266 365q0 132 -66 218q-72 95 -200 95q-127 0 -199 -96q-66 -86 -66 -217z" />
    <glyph glyph-name="pi" unicode="&#x3c0;" horiz-adv-x="1231" 
d="M1090 0h-275v842h-399v-842h-275v1055h949v-1055z" />
    <glyph glyph-name="rho" unicode="&#x3c1;" horiz-adv-x="1251" 
d="M1178 530q0 -240 -101 -386q-117 -169 -348 -169q-189 0 -309 146l-4 -551h-275v950q0 249 151.5 404t399.5 155q486 0 486 -549zM891 530q0 135 -46 223q-59 113 -181 113q-121 0 -189 -112q-57 -95 -57 -224q0 -135 51 -227q64 -115 190 -115q121 0 183 117
q49 93 49 225z" />
    <glyph glyph-name="sigma1" unicode="&#x3c2;" horiz-adv-x="1032" 
d="M981 1024l-20 -205q-125 53 -230 53q-371 0 -371 -337q0 -220 209 -308q187 -78 240 -119q109 -83 109 -227q0 -65 -39 -147q-25 -52 -78 -133l-203 28q104 119 104 199q0 67 -26 100q-34 43 -146 78q-456 146 -456 531q0 270 178 411q161 127 440 127q163 0 289 -51z
" />
    <glyph glyph-name="sigma" unicode="&#x3c3;" horiz-adv-x="1331" 
d="M1284 860h-264q158 -108 158 -342q0 -241 -153.5 -392t-395.5 -151q-245 0 -400 149.5t-155 393.5q0 250 153 394q150 141 402 141h655v-193zM891 528q0 138 -61 230q-70 106 -201 106t-204 -106q-65 -93 -65 -230q0 -143 61 -234q71 -108 208 -108q133 0 203 110
q59 92 59 232z" />
    <glyph glyph-name="tau" unicode="&#x3c4;" horiz-adv-x="991" 
d="M971 842h-338v-842h-275v842h-338v213h951v-213z" />
    <glyph glyph-name="upsilon" unicode="&#x3c5;" horiz-adv-x="1251" 
d="M1110 444q0 -224 -129.5 -346.5t-355.5 -122.5q-228 0 -356 122t-128 347v611h275v-600q0 -269 209 -269q211 0 211 269v600h274v-611z" />
    <glyph glyph-name="phi" unicode="&#x3c6;" horiz-adv-x="1528" 
d="M1454 526q0 -250 -151 -401.5t-402 -151.5v-403h-274v403q-261 0 -409 159q-144 154 -144 417q0 189 110 337q115 157 297 185l45 -219q-166 -45 -166 -309q0 -333 267 -363v885q129 14 204 14q261 0 420 -112q203 -144 203 -441zM1167 545q0 136 -63 225
q-72 100 -203 100v-692q266 27 266 367z" />
    <glyph glyph-name="chi" unicode="&#x3c7;" 
d="M725 362l395 -792h-327l-234 530l-240 -530h-301l396 762l-359 723h324l201 -465l208 465h291z" />
    <glyph glyph-name="psi" unicode="&#x3c8;" horiz-adv-x="1640" 
d="M1501 444q0 -234 -159 -357q-143 -112 -384 -112v-405h-274v405q-240 0 -384 112q-159 123 -159 357v611h275v-584q0 -291 268 -291v1127h274v-1127q267 0 267 291v584h276v-611z" />
    <glyph glyph-name="omega" unicode="&#x3c9;" horiz-adv-x="1573" 
d="M1499 481q0 -207 -90 -344q-106 -162 -303 -162q-238 0 -318 172q-81 -172 -319 -172q-197 0 -303 160q-92 139 -92 346q0 174 47 312q31 91 125 262h280q-90 -165 -127 -279q-43 -134 -43 -282q0 -312 148 -312q147 0 147 224v401h273v-401q0 -224 147 -224
q148 0 148 312q0 248 -170 561h278q92 -165 125 -262q47 -138 47 -312z" />
    <glyph glyph-name="iotadieresis" unicode="&#x3ca;" horiz-adv-x="569" 
d="M422 0h-275v1055h275v-1055zM377 1485h237v-238h-237v238zM193 1247h-238v238h238v-238z" />
    <glyph glyph-name="upsilondieresis" unicode="&#x3cb;" horiz-adv-x="1251" 
d="M1110 444q0 -224 -129.5 -346.5t-355.5 -122.5q-228 0 -356 122t-128 347v611h275v-600q0 -269 209 -269q211 0 211 269v600h274v-611zM715 1485h237v-238h-237v238zM530 1247h-237v238h237v-238z" />
    <glyph glyph-name="omicrontonos" unicode="&#x3cc;" horiz-adv-x="1251" 
d="M74 520q0 249 151 404t400 155t401 -154t152 -405q0 -244 -154 -394.5t-399 -150.5q-246 0 -398.5 150t-152.5 395zM360 553q0 -365 265 -365q266 0 266 365q0 132 -66 218q-72 95 -200 95q-127 0 -199 -96q-66 -86 -66 -217zM496 1198l170 299h280l-280 -299h-170z" />
    <glyph glyph-name="upsilontonos" unicode="&#x3cd;" horiz-adv-x="1251" 
d="M1110 444q0 -224 -129.5 -346.5t-355.5 -122.5q-228 0 -356 122t-128 347v611h275v-600q0 -269 209 -269q211 0 211 269v600h274v-611zM516 1198l170 299h281l-281 -299h-170z" />
    <glyph glyph-name="omegatonos" unicode="&#x3ce;" horiz-adv-x="1573" 
d="M1499 481q0 -207 -90 -344q-106 -162 -303 -162q-238 0 -318 172q-81 -172 -319 -172q-197 0 -303 160q-92 139 -92 346q0 174 47 312q31 91 125 262h280q-90 -165 -127 -279q-43 -134 -43 -282q0 -312 148 -312q147 0 147 224v401h273v-401q0 -224 147 -224
q148 0 148 312q0 248 -170 561h278q92 -165 125 -262q47 -138 47 -312zM639 1198l170 299h281l-281 -299h-170z" />
    <glyph glyph-name="uni03D0" unicode="&#x3d0;" horiz-adv-x="1165" 
d="M1092 434q0 -201 -151 -332q-143 -127 -347 -127q-234 0 -375 179q-147 186 -147 557q0 328 145 564q171 279 479 279q160 0 256 -84q84 -73 84 -186q0 -156 -135 -245q-117 -78 -280 -78q-132 0 -244 40q-45 -157 -45 -256q131 115 303 115q189 0 321 -117
q136 -122 136 -309zM766 1364q-25 31 -86 31q-59 0 -105 -35q-97 -74 -149 -178q80 -29 178 -29q109 0 152 68q35 34 35 86q0 39 -25 57zM829 416q0 98 -65.5 164.5t-163.5 66.5q-176 0 -260 -182q25 -293 276 -293q97 0 157 75q56 70 56 169z" />
    <glyph glyph-name="theta1" unicode="&#x3d1;" horiz-adv-x="1200" 
d="M780 776q0 191 -49 347q-72 227 -223 227q-68 0 -104 -70q-29 -57 -29 -131q0 -88 14 -133q68 -211 391 -240zM780 557q-281 0 -471 145q-211 159 -211 431q0 187 109 305q113 123 299 123q195 0 336 -140q80 -79 137 -245q65 -192 65 -404h119v-219h-116
q0 -255 -104 -404q-119 -174 -361 -174q-221 0 -326 127q-59 72 -117 250q-4 15 -16 15h-86v264h90q153 0 211 -135q32 -79 96 -236q50 -72 150 -72q196 0 196 369z" />
    <glyph glyph-name="Upsilon1" unicode="&#x3d2;" horiz-adv-x="1366" 
d="M827 0h-286v418q0 372 -138 577q-133 201 -356 201v234h53q432 0 584 -445q158 445 584 445h53v-234q-223 0 -356 -201q-138 -205 -138 -577v-418z" />
    <glyph glyph-name="uni03D3" unicode="&#x3d3;" horiz-adv-x="1898" 
d="M0 1130l170 300h281l-281 -300h-170zM1297 0h-286v418q0 373 -138 577q-134 201 -356 201v234h53q430 0 584 -445q159 445 584 445h53v-234q-124 0 -205.5 -48t-150.5 -153q-138 -205 -138 -577v-418z" />
    <glyph glyph-name="uni03D4" unicode="&#x3d4;" horiz-adv-x="1366" 
d="M827 0h-286v418q0 373 -138 577q-134 201 -356 201v234h53q430 0 584 -445q159 445 584 445h53v-234q-124 0 -205.5 -48t-150.5 -153q-138 -205 -138 -577v-418zM796 1808h238v-237h-238v237zM612 1571h-238v237h238v-237z" />
    <glyph glyph-name="phi1" unicode="&#x3d5;" horiz-adv-x="1479" 
d="M1413 514q0 -237 -148 -384.5t-384 -147.5v-412h-275v412q-532 51 -532 555q0 212 86 358q102 174 293 174q93 0 145 -14q99 -27 145 -109q48 78 144 107q55 16 147 16q190 0 291 -172q88 -150 88 -383zM1126 520q0 322 -116 322q-15 2 -25 2q-45 0 -67 -45
q-37 -73 -37 -258v-385q245 46 245 364zM606 156v403q0 203 -51 260q-20 23 -80 23q-115 0 -115 -314q0 -155 49 -240q58 -102 197 -132z" />
    <glyph glyph-name="omega1" unicode="&#x3d6;" horiz-adv-x="1751" 
d="M1737 844h-205q74 -167 74 -369q0 -207 -101 -344q-114 -156 -315 -156q-205 0 -295 136q-90 -136 -295 -136q-199 0 -313 156q-103 139 -103 344q0 133 21 225q15 70 51 144q-70 -15 -154 -60q-26 -14 -69 -41v236q42 30 73 43q102 43 240 43h1391v-221zM1327 485
q0 197 -53 357h-760q-51 -154 -51 -357q0 -354 149 -354q148 0 148 248v287h270v-287q0 -248 148 -248q149 0 149 354z" />
    <glyph glyph-name="uni03DA" unicode="&#x3da;" horiz-adv-x="1303" 
d="M1225 1382l-25 -235q-177 94 -326 94q-226 0 -368 -132q-146 -136 -146 -361q0 -212 94.5 -337.5t297.5 -185.5l243 -71q166 -76 166 -232q0 -375 -514 -375q-66 0 -276 33l24 234q150 -58 246 -58q264 0 264 129q0 51 -59 82q-40 21 -113 35q-659 124 -659 743
q0 337 231 529q216 180 559 180q171 0 361 -72z" />
    <glyph glyph-name="uni03DC" unicode="&#x3dc;" horiz-adv-x="1026" 
d="M166 0v1430h795v-226h-508v-311h381v-225h-381v-668h-287z" />
    <glyph glyph-name="uni03DE" unicode="&#x3de;" horiz-adv-x="1057" 
d="M1030 823l-254 -823h-258l178 590h-653l256 840h254l-178 -607h655z" />
    <glyph glyph-name="uni03E0" unicode="&#x3e0;" horiz-adv-x="1755" 
d="M1276 711l-346 -289l-185 125l385 334l-12 12l-80 65l-387 -329l-196 133l374 325q-327 162 -720 162v205h88q302 0 620 -127q326 -130 531 -342q307 -318 307 -768q0 -94 -21 -217h-254q29 119 29 246q0 263 -133 465z" />
    <glyph glyph-name="uni03F0" unicode="&#x3f0;" horiz-adv-x="1282" 
d="M686 416l-100 -94q0 -54 -26 -108q-28 -59 -71 -91l-190 -143l-211 77q55 90 102 162q113 172 158 217l4 90q8 161 -37 240q-16 41 -88 41q-28 0 -129 -27l8 254q11 2 115 23q73 14 84 14q281 0 281 -432l112 78q25 144 88 205l154 147l262 -55l-112 -170
q-124 -184 -164 -232l-2 -67v-111q0 -192 118 -192h35l115 8l-12 -221q-126 -52 -203 -52q-158 0 -233 149q-58 115 -58 290z" />
    <glyph glyph-name="uni03F1" unicode="&#x3f1;" horiz-adv-x="1249" 
d="M383 152q0 -196 92 -278q86 -77 283 -77h301v-217h-285q-367 0 -513 206q-122 173 -122 560q0 326 64 453q36 73 94 129q156 151 395 151q486 0 486 -549q0 -240 -101 -386q-117 -169 -348 -169q-94 0 -168 31q-39 16 -86 51q-58 44 -92 95zM891 530q0 136 -45 222
q-60 114 -182 114q-120 0 -189 -112q-57 -95 -57 -224q0 -134 51 -227q63 -115 190 -115q119 0 183 117q49 90 49 225z" />
    <glyph glyph-name="glyph541" horiz-adv-x="569" 
d="M59 1198l170 299h281l-281 -299h-170z" />
    <glyph glyph-name="glyph542" horiz-adv-x="569" 
d="M59 1198l170 299h281l-281 -299h-170z" />
    <glyph glyph-name="uni2756" unicode="&#x2756;" horiz-adv-x="1275" 
d="M323 300l-220 220l220 220l221 -220zM413 830l220 220l221 -220l-220 -220zM943 740l220 -220l-220 -220l-220 220zM853 210l-220 -220l-220 220l220 220z" />
    <glyph glyph-name="uni25C8" unicode="&#x25c8;" horiz-adv-x="1220" 
d="M73 530l537 538l538 -538l-538 -537zM272 530l338 -338l338 338l-338 338zM456 530l154 154l154 -154l-154 -154z" />
    <glyph glyph-name="glyph545" horiz-adv-x="747" 
d="M396 1331l58 -11l-43 -206l200 67l20 -60l-195 -66l150 -136l-42 -45l-152 140l-43 -208l-55 12l39 201l-196 -67l-21 60l201 70l-162 148l42 45l158 -146z" />
    <glyph glyph-name="minute" unicode="&#x2032;" horiz-adv-x="589" 
d="M110 1044l159 492h255l-267 -492h-147z" />
    <glyph glyph-name="second" unicode="&#x2033;" horiz-adv-x="978" 
d="M913 1536l-266 -492h-146l157 492h255zM523 1536l-266 -492h-146l157 492h255z" />
    <glyph glyph-name="uni203E" unicode="&#x203e;" horiz-adv-x="1024" 
d="M1024 1590h-1024v158h1024v-158z" />
  </font>
</defs>
</svg>
